<?xml version="1.0" encoding="UTF-8" standalone="no"?>
<svg
   xmlns:dc="http://purl.org/dc/elements/1.1/"
   xmlns:cc="http://creativecommons.org/ns#"
   xmlns:rdf="http://www.w3.org/1999/02/22-rdf-syntax-ns#"
   xmlns:svg="http://www.w3.org/2000/svg"
   xmlns="http://www.w3.org/2000/svg"
   xmlns:sodipodi="http://sodipodi.sourceforge.net/DTD/sodipodi-0.dtd"
   xmlns:inkscape="http://www.inkscape.org/namespaces/inkscape"
   width="210mm"
   height="297mm"
   viewBox="0 0 210 297"
   version="1.1"
   id="svg1430"
   inkscape:version="1.0.1 (3bc2e813f5, 2020-09-07)"
   sodipodi:docname="backpanel.svg">
  <defs
     id="defs1424">
    <marker
       style="overflow:visible;"
       id="marker4267"
       refX="0.0"
       refY="0.0"
       orient="auto"
       inkscape:stockid="Arrow1Send"
       inkscape:isstock="true">
      <path
         transform="scale(0.2) rotate(180) translate(6,0)"
         style="fill-rule:evenodd;stroke:#000000;stroke-width:1pt;stroke-opacity:1;fill:#000000;fill-opacity:1"
         d="M 0.0,0.0 L 5.0,-5.0 L -12.5,0.0 L 5.0,5.0 L 0.0,0.0 z "
         id="path4265" />
    </marker>
    <marker
       style="overflow:visible;"
       id="marker4137"
       refX="0.0"
       refY="0.0"
       orient="auto"
       inkscape:stockid="Arrow1Send"
       inkscape:isstock="true">
      <path
         transform="scale(0.2) rotate(180) translate(6,0)"
         style="fill-rule:evenodd;stroke:#000000;stroke-width:1pt;stroke-opacity:1;fill:#000000;fill-opacity:1"
         d="M 0.0,0.0 L 5.0,-5.0 L -12.5,0.0 L 5.0,5.0 L 0.0,0.0 z "
         id="path4135" />
    </marker>
    <marker
       style="overflow:visible"
       id="Arrow1Sstart"
       refX="0.0"
       refY="0.0"
       orient="auto"
       inkscape:stockid="Arrow1Sstart"
       inkscape:isstock="true">
      <path
         transform="scale(0.2) translate(6,0)"
         style="fill-rule:evenodd;stroke:#000000;stroke-width:1pt;stroke-opacity:1;fill:#000000;fill-opacity:1"
         d="M 0.0,0.0 L 5.0,-5.0 L -12.5,0.0 L 5.0,5.0 L 0.0,0.0 z "
         id="path2137" />
    </marker>
    <marker
       style="overflow:visible;"
       id="marker3915"
       refX="0.0"
       refY="0.0"
       orient="auto"
       inkscape:stockid="Arrow1Send"
       inkscape:isstock="true">
      <path
         transform="scale(0.2) rotate(180) translate(6,0)"
         style="fill-rule:evenodd;stroke:#000000;stroke-width:1pt;stroke-opacity:1;fill:#000000;fill-opacity:1"
         d="M 0.0,0.0 L 5.0,-5.0 L -12.5,0.0 L 5.0,5.0 L 0.0,0.0 z "
         id="path3913" />
    </marker>
    <marker
       style="overflow:visible;"
       id="Arrow1Send"
       refX="0.0"
       refY="0.0"
       orient="auto"
       inkscape:stockid="Arrow1Send"
       inkscape:isstock="true">
      <path
         transform="scale(0.2) rotate(180) translate(6,0)"
         style="fill-rule:evenodd;stroke:#000000;stroke-width:1pt;stroke-opacity:1;fill:#000000;fill-opacity:1"
         d="M 0.0,0.0 L 5.0,-5.0 L -12.5,0.0 L 5.0,5.0 L 0.0,0.0 z "
         id="path2140" />
    </marker>
    <marker
       style="overflow:visible;"
       id="marker3233"
       refX="0.0"
       refY="0.0"
       orient="auto"
       inkscape:stockid="Arrow1Lend"
       inkscape:isstock="true">
      <path
         transform="scale(0.8) rotate(180) translate(12.5,0)"
         style="fill-rule:evenodd;stroke:#000000;stroke-width:1pt;stroke-opacity:1;fill:#000000;fill-opacity:1"
         d="M 0.0,0.0 L 5.0,-5.0 L -12.5,0.0 L 5.0,5.0 L 0.0,0.0 z "
         id="path3231" />
    </marker>
    <marker
       style="overflow:visible"
       id="TriangleOutL"
       refX="0.0"
       refY="0.0"
       orient="auto"
       inkscape:stockid="TriangleOutL"
       inkscape:isstock="true">
      <path
         transform="scale(0.8)"
         style="fill-rule:evenodd;stroke:#000000;stroke-width:1pt;stroke-opacity:1;fill:#000000;fill-opacity:1"
         d="M 5.77,0.0 L -2.88,5.0 L -2.88,-5.0 L 5.77,0.0 z "
         id="path2267" />
    </marker>
    <marker
       style="overflow:visible;"
       id="marker2933"
       refX="0.0"
       refY="0.0"
       orient="auto"
       inkscape:stockid="Arrow2Lend"
       inkscape:isstock="true">
      <path
         transform="scale(1.1) rotate(180) translate(1,0)"
         d="M 8.7185878,4.0337352 L -2.2072895,0.016013256 L 8.7185884,-4.0017078 C 6.9730900,-1.6296469 6.9831476,1.6157441 8.7185878,4.0337352 z "
         style="fill-rule:evenodd;stroke-width:0.625;stroke-linejoin:round;stroke:#000000;stroke-opacity:1;fill:#000000;fill-opacity:1"
         id="path2931" />
    </marker>
    <marker
       style="overflow:visible;"
       id="marker2857"
       refX="0.0"
       refY="0.0"
       orient="auto"
       inkscape:stockid="Arrow1Lend"
       inkscape:isstock="true">
      <path
         transform="scale(0.8) rotate(180) translate(12.5,0)"
         style="fill-rule:evenodd;stroke:#000000;stroke-width:1pt;stroke-opacity:1;fill:#000000;fill-opacity:1"
         d="M 0.0,0.0 L 5.0,-5.0 L -12.5,0.0 L 5.0,5.0 L 0.0,0.0 z "
         id="path2855" />
    </marker>
    <marker
       style="overflow:visible;"
       id="marker2787"
       refX="0.0"
       refY="0.0"
       orient="auto"
       inkscape:stockid="Arrow1Lend"
       inkscape:isstock="true">
      <path
         transform="scale(0.8) rotate(180) translate(12.5,0)"
         style="fill-rule:evenodd;stroke:#000000;stroke-width:1pt;stroke-opacity:1;fill:#000000;fill-opacity:1"
         d="M 0.0,0.0 L 5.0,-5.0 L -12.5,0.0 L 5.0,5.0 L 0.0,0.0 z "
         id="path2785" />
    </marker>
    <marker
       style="overflow:visible;"
       id="marker2717"
       refX="0.0"
       refY="0.0"
       orient="auto"
       inkscape:stockid="Arrow1Mend"
       inkscape:isstock="true">
      <path
         transform="scale(0.4) rotate(180) translate(10,0)"
         style="fill-rule:evenodd;stroke:#000000;stroke-width:1pt;stroke-opacity:1;fill:#000000;fill-opacity:1"
         d="M 0.0,0.0 L 5.0,-5.0 L -12.5,0.0 L 5.0,5.0 L 0.0,0.0 z "
         id="path2715" />
    </marker>
    <marker
       style="overflow:visible"
       id="marker2633"
       refX="0.0"
       refY="0.0"
       orient="auto"
       inkscape:stockid="Arrow2Mstart"
       inkscape:isstock="true">
      <path
         transform="scale(0.6) translate(0,0)"
         d="M 8.7185878,4.0337352 L -2.2072895,0.016013256 L 8.7185884,-4.0017078 C 6.9730900,-1.6296469 6.9831476,1.6157441 8.7185878,4.0337352 z "
         style="fill-rule:evenodd;stroke-width:0.625;stroke-linejoin:round;stroke:#000000;stroke-opacity:1;fill:#000000;fill-opacity:1"
         id="path2631" />
    </marker>
    <marker
       style="overflow:visible"
       id="Arrow2Lstart"
       refX="0.0"
       refY="0.0"
       orient="auto"
       inkscape:stockid="Arrow2Lstart"
       inkscape:isstock="true">
      <path
         transform="scale(1.1) translate(1,0)"
         d="M 8.7185878,4.0337352 L -2.2072895,0.016013256 L 8.7185884,-4.0017078 C 6.9730900,-1.6296469 6.9831476,1.6157441 8.7185878,4.0337352 z "
         style="fill-rule:evenodd;stroke-width:0.625;stroke-linejoin:round;stroke:#000000;stroke-opacity:1;fill:#000000;fill-opacity:1"
         id="path2143" />
    </marker>
    <marker
       style="overflow:visible"
       id="Arrow2Mstart"
       refX="0.0"
       refY="0.0"
       orient="auto"
       inkscape:stockid="Arrow2Mstart"
       inkscape:isstock="true">
      <path
         transform="scale(0.6) translate(0,0)"
         d="M 8.7185878,4.0337352 L -2.2072895,0.016013256 L 8.7185884,-4.0017078 C 6.9730900,-1.6296469 6.9831476,1.6157441 8.7185878,4.0337352 z "
         style="fill-rule:evenodd;stroke-width:0.625;stroke-linejoin:round;stroke:#000000;stroke-opacity:1;fill:#000000;fill-opacity:1"
         id="path2149" />
    </marker>
    <marker
       style="overflow:visible;"
       id="Arrow1Mend"
       refX="0.0"
       refY="0.0"
       orient="auto"
       inkscape:stockid="Arrow1Mend"
       inkscape:isstock="true">
      <path
         transform="scale(0.4) rotate(180) translate(10,0)"
         style="fill-rule:evenodd;stroke:#000000;stroke-width:1pt;stroke-opacity:1;fill:#000000;fill-opacity:1"
         d="M 0.0,0.0 L 5.0,-5.0 L -12.5,0.0 L 5.0,5.0 L 0.0,0.0 z "
         id="path2134" />
    </marker>
    <marker
       style="overflow:visible;"
       id="Arrow2Lend"
       refX="0.0"
       refY="0.0"
       orient="auto"
       inkscape:stockid="Arrow2Lend"
       inkscape:isstock="true">
      <path
         transform="scale(1.1) rotate(180) translate(1,0)"
         d="M 8.7185878,4.0337352 L -2.2072895,0.016013256 L 8.7185884,-4.0017078 C 6.9730900,-1.6296469 6.9831476,1.6157441 8.7185878,4.0337352 z "
         style="fill-rule:evenodd;stroke-width:0.625;stroke-linejoin:round;stroke:#000000;stroke-opacity:1;fill:#000000;fill-opacity:1"
         id="path2146" />
    </marker>
    <marker
       style="overflow:visible;"
       id="marker2435"
       refX="0.0"
       refY="0.0"
       orient="auto"
       inkscape:stockid="Arrow1Lend"
       inkscape:isstock="true">
      <path
         transform="scale(0.8) rotate(180) translate(12.5,0)"
         style="fill-rule:evenodd;stroke:#000000;stroke-width:1pt;stroke-opacity:1;fill:#000000;fill-opacity:1"
         d="M 0.0,0.0 L 5.0,-5.0 L -12.5,0.0 L 5.0,5.0 L 0.0,0.0 z "
         id="path2433" />
    </marker>
    <marker
       style="overflow:visible;"
       id="marker2413"
       refX="0.0"
       refY="0.0"
       orient="auto"
       inkscape:stockid="Arrow1Lend"
       inkscape:isstock="true">
      <path
         transform="scale(0.8) rotate(180) translate(12.5,0)"
         style="fill-rule:evenodd;stroke:#000000;stroke-width:1pt;stroke-opacity:1;fill:#000000;fill-opacity:1"
         d="M 0.0,0.0 L 5.0,-5.0 L -12.5,0.0 L 5.0,5.0 L 0.0,0.0 z "
         id="path2411" />
    </marker>
    <marker
       style="overflow:visible;"
       id="Arrow1Lend"
       refX="0.0"
       refY="0.0"
       orient="auto"
       inkscape:stockid="Arrow1Lend"
       inkscape:isstock="true">
      <path
         transform="scale(0.8) rotate(180) translate(12.5,0)"
         style="fill-rule:evenodd;stroke:#000000;stroke-width:1pt;stroke-opacity:1;fill:#000000;fill-opacity:1"
         d="M 0.0,0.0 L 5.0,-5.0 L -12.5,0.0 L 5.0,5.0 L 0.0,0.0 z "
         id="path2128" />
    </marker>
  </defs>
  <sodipodi:namedview
     id="base"
     pagecolor="#ffffff"
     bordercolor="#666666"
     borderopacity="1.0"
     inkscape:pageopacity="0.0"
     inkscape:pageshadow="2"
     inkscape:zoom="8"
     inkscape:cx="50.266515"
     inkscape:cy="-25.262271"
     inkscape:document-units="mm"
     inkscape:current-layer="layer2"
     inkscape:document-rotation="0"
     showgrid="true"
     showborder="false"
     inkscape:showpageshadow="false"
     inkscape:pagecheckerboard="false"
     showguides="true"
     inkscape:guide-bbox="true"
     inkscape:window-width="2560"
     inkscape:window-height="1411"
     inkscape:window-x="2560"
     inkscape:window-y="0"
     inkscape:window-maximized="1"
     inkscape:snap-text-baseline="true">
    <inkscape:grid
       type="xygrid"
       id="grid1993"
       units="mm"
       spacingx="1"
       spacingy="1"
       enabled="false" />
    <inkscape:grid
       type="xygrid"
       id="grid1995"
       spacingx="0.2"
       spacingy="0.2"
       dotted="true"
       color="#ff0000"
       opacity="0.1254902"
       empcolor="#ff0000"
       empopacity="0.1254902"
       enabled="true"
       units="mm"
       empspacing="20" />
    <sodipodi:guide
       position="0,297.00001"
       orientation="1,0"
       id="guide2000" />
    <sodipodi:guide
       position="0,297.00001"
       orientation="0,-1"
       id="guide2002" />
    <inkscape:grid
       type="xygrid"
       id="grid2111"
       units="in"
       spacingx="3.175"
       spacingy="3.175"
       color="#00ff00"
       opacity="0.1254902"
       empcolor="#00ff00"
       empopacity="0.1254902"
       enabled="true" />
  </sodipodi:namedview>
  <metadata
     id="metadata1427">
    <rdf:RDF>
      <cc:Work
         rdf:about="">
        <dc:format>image/svg+xml</dc:format>
        <dc:type
           rdf:resource="http://purl.org/dc/dcmitype/StillImage" />
        <dc:title></dc:title>
        <cc:license
           rdf:resource="http://creativecommons.org/licenses/by-sa/4.0/" />
      </cc:Work>
      <cc:License
         rdf:about="http://creativecommons.org/licenses/by-sa/4.0/">
        <cc:permits
           rdf:resource="http://creativecommons.org/ns#Reproduction" />
        <cc:permits
           rdf:resource="http://creativecommons.org/ns#Distribution" />
        <cc:requires
           rdf:resource="http://creativecommons.org/ns#Notice" />
        <cc:requires
           rdf:resource="http://creativecommons.org/ns#Attribution" />
        <cc:permits
           rdf:resource="http://creativecommons.org/ns#DerivativeWorks" />
        <cc:requires
           rdf:resource="http://creativecommons.org/ns#ShareAlike" />
      </cc:License>
    </rdf:RDF>
  </metadata>
  <g
     inkscape:groupmode="layer"
     id="layer4"
     inkscape:label="useless"
     style="display:none">
    <g
       aria-label="20A MAX"
       id="text2123"
       style="font-size:3.52778px;line-height:1.25;font-family:sans-serif;text-align:center;letter-spacing:0px;word-spacing:0px;text-anchor:middle;stroke:none;stroke-width:0.264583"
       transform="translate(0,-2.6458333)">
      <path
         d="m 2.2532645,-6.642833 h 1.2143962 v 0.2928331 H 1.8346855 V -6.642833 q 0.1980929,-0.2049832 0.5391574,-0.5494927 0.342787,-0.3462321 0.4306369,-0.4461399 0.1670871,-0.1877577 0.2325439,-0.3169488 0.067179,-0.1309136 0.067179,-0.2566596 0,-0.2049831 -0.144694,-0.3341742 -0.1429715,-0.1291911 -0.3737929,-0.1291911 -0.163642,0 -0.346232,0.056844 -0.1808675,0.056844 -0.3875733,0.1722548 v -0.3513998 q 0.2101508,-0.084405 0.3927409,-0.1274685 0.1825901,-0.043064 0.3341743,-0.043064 0.399631,0 0.6373426,0.1998155 0.2377116,0.1998156 0.2377116,0.5339898 0,0.1584744 -0.060289,0.3014459 -0.058567,0.1412489 -0.2153185,0.3341742 -0.043064,0.049954 -0.273885,0.289388 -0.2308214,0.2377116 -0.6511229,0.6666264 z"
         style="font-size:3.52778px;stroke:none;stroke-width:0.264583"
         id="path4547" />
      <path
         d="m 4.9421615,-8.6926648 q -0.2687174,0 -0.4047987,0.2652724 -0.1343587,0.2635498 -0.1343587,0.7940945 0,0.5288221 0.1343587,0.7940945 0.1360813,0.2635497 0.4047987,0.2635497 0.27044,0 0.4047987,-0.2635497 0.1360813,-0.2652724 0.1360813,-0.7940945 0,-0.5305447 -0.1360813,-0.7940945 -0.1343587,-0.2652724 -0.4047987,-0.2652724 z m 0,-0.2756076 q 0.4323595,0 0.6597358,0.342787 0.2290988,0.3410644 0.2290988,0.9921875 0,0.6494004 -0.2290988,0.9921874 -0.2273763,0.3410645 -0.6597358,0.3410645 -0.4323595,0 -0.6614583,-0.3410645 -0.2273763,-0.342787 -0.2273763,-0.9921874 0,-0.6511231 0.2273763,-0.9921875 0.2290988,-0.342787 0.6614583,-0.342787 z"
         style="font-size:3.52778px;stroke:none;stroke-width:0.264583"
         id="path4549" />
      <path
         d="M 7.271046,-8.5789766 6.7990679,-7.2991237 H 7.7447466 Z M 7.0746756,-8.9217636 H 7.469139 l 0.9801296,2.5717637 H 8.0875336 L 7.8532671,-7.0097357 H 6.6939925 L 6.459726,-6.3499999 H 6.0928234 Z"
         style="font-size:3.52778px;stroke:none;stroke-width:0.264583"
         id="path4551" />
      <path
         d="M 9.9461627,-8.9217636 H 10.46465 l 0.65629,1.7501084 0.659736,-1.7501084 h 0.518487 v 2.5717637 h -0.339342 v -2.25826 l -0.663181,1.7638888 h -0.349677 l -0.663181,-1.7638888 v 2.25826 H 9.9461627 Z"
         style="font-size:3.52778px;stroke:none;stroke-width:0.264583"
         id="path4553" />
      <path
         d="m 13.849455,-8.5789766 -0.471978,1.2798529 h 0.945679 z m -0.19637,-0.342787 h 0.394463 l 0.98013,2.5717637 h -0.361735 l -0.234267,-0.6597358 h -1.159274 l -0.234267,0.6597358 h -0.366902 z"
         style="font-size:3.52778px;stroke:none;stroke-width:0.264583"
         id="path4555" />
      <path
         d="m 15.27917,-8.9217636 h 0.373793 l 0.639066,0.956014 0.64251,-0.956014 h 0.373793 l -0.826823,1.2350667 0.881944,1.336697 H 16.98966 l -0.72347,-1.0938178 -0.728637,1.0938178 h -0.375516 l 0.918118,-1.3728705 z"
         style="font-size:3.52778px;stroke:none;stroke-width:0.264583"
         id="path4557" />
    </g>
  </g>
  <g
     inkscape:label="F.Fab"
     inkscape:groupmode="layer"
     id="layer1">
    <circle
       style="fill:none;stroke:#000000;stroke-width:0.12;stroke-miterlimit:4;stroke-dasharray:none"
       id="path2107"
       cx="0"
       cy="-9.2207119e-06"
       r="4.0000091" />
    <circle
       style="fill:none;stroke:#000000;stroke-width:0.12;stroke-miterlimit:4;stroke-dasharray:none"
       id="circle2109"
       cx="19.049999"
       cy="0"
       r="4.0000091" />
    <circle
       style="fill:none;stroke:#000000;stroke-width:0.12;stroke-miterlimit:4;stroke-dasharray:none"
       id="circle2115"
       cx="0"
       cy="-9.2207119e-06"
       r="5.4499907" />
    <circle
       style="fill:none;stroke:#000000;stroke-width:0.12;stroke-miterlimit:4;stroke-dasharray:none"
       id="circle2117"
       cx="19.049999"
       cy="-9.2207119e-06"
       r="5.4499907" />
  </g>
  <g
     inkscape:groupmode="layer"
     id="layer2"
     inkscape:label="F.SilkS">
    <g
       aria-label="36A MAX"
       id="text1013"
       style="font-size:3.52778px;line-height:1.25;font-family:sans-serif;text-align:center;letter-spacing:0px;word-spacing:0px;text-anchor:middle;stroke-width:0.264583;fill:#000000;fill-opacity:1;stroke:none;stroke-opacity:1">
      <path
         d="m 3.007736,-10.386652 q 0.2497696,0.0534 0.3892961,0.222209 0.141249,0.1688098 0.141249,0.4168568 0,0.3806833 -0.2618275,0.5891117 -0.2618274,0.2084284 -0.7441411,0.2084284 -0.1619196,0 -0.3341744,-0.032728 -0.1705324,-0.031006 -0.3531226,-0.09474 v -0.335897 q 0.1446942,0.084405 0.316949,0.1274686 0.1722549,0.043064 0.3600127,0.043064 0.3272843,0 0.4978167,-0.1291912 0.1722549,-0.1291911 0.1722549,-0.3755156 0,-0.2273765 -0.1601971,-0.3548448 -0.1584745,-0.129191 -0.442695,-0.129191 H 2.2894332 v -0.285944 H 2.602937 q 0.2566598,0 0.3927412,-0.10163 0.1360813,-0.103353 0.1360813,-0.296278 0,-0.198093 -0.141249,-0.303169 -0.1395264,-0.106798 -0.4013538,-0.106798 -0.1429716,0 -0.3066137,0.03101 -0.1636422,0.03101 -0.3600128,0.09646 v -0.310059 q 0.1980932,-0.05512 0.370348,-0.08268 0.1739775,-0.02756 0.3272843,-0.02756 0.3961863,0 0.6270078,0.180867 0.2308216,0.179145 0.2308216,0.485759 0,0.213596 -0.122301,0.361735 -0.122301,0.146417 -0.3479549,0.203261 z"
         style="font-size:3.52778px;stroke-width:0.264583;fill:#000000;fill-opacity:1;stroke:none;stroke-opacity:1"
         id="path1023" />
      <path
         d="m 4.985222,-10.424548 q -0.2342666,0 -0.3720705,0.160197 -0.1360814,0.160197 -0.1360814,0.4392501 0,0.2773304 0.1360814,0.43925 0.1378039,0.160197 0.3720705,0.160197 0.2342667,0 0.370348,-0.160197 0.137804,-0.1619196 0.137804,-0.43925 0,-0.2790531 -0.137804,-0.4392501 -0.1360813,-0.160197 -0.370348,-0.160197 z m 0.6907421,-1.090373 v 0.316949 q -0.1309137,-0.06201 -0.2652725,-0.09474 -0.1326363,-0.03273 -0.26355,-0.03273 -0.3445097,0 -0.5270999,0.232544 -0.1808676,0.232544 -0.2067059,0.7028 0.1016304,-0.149862 0.2549372,-0.229099 0.1533069,-0.08096 0.3376196,-0.08096 0.3875735,0 0.6115049,0.235989 0.2256539,0.234267 0.2256539,0.6390661 0,0.3961862 -0.2342667,0.6356205 -0.2342666,0.2394343 -0.6235627,0.2394343 -0.4461401,0 -0.6821293,-0.3410647 -0.2359892,-0.3427872 -0.2359892,-0.9921882 0,-0.609782 0.2893882,-0.971517 0.2893882,-0.363458 0.7768695,-0.363458 0.1309138,0 0.26355,0.02584 0.1343588,0.02584 0.2790529,0.07752 z"
         style="font-size:3.52778px;stroke-width:0.264583;fill:#000000;fill-opacity:1;stroke:none;stroke-opacity:1"
         id="path1025" />
      <path
         d="M 7.2710443,-11.228978 6.7990659,-9.9491244 H 7.7447452 Z M 7.0746737,-11.571765 H 7.4691374 L 8.4492677,-9 H 8.0875325 L 7.8532658,-9.6597362 H 6.6939904 L 6.4597238,-9 H 6.0928209 Z"
         style="font-size:3.52778px;stroke-width:0.264583;fill:#000000;fill-opacity:1;stroke:none;stroke-opacity:1"
         id="path1027" />
      <path
         d="m 9.9461623,-11.571765 h 0.5184867 l 0.656292,1.7501092 0.659736,-1.7501092 h 0.518487 V -9 h -0.339342 v -2.258262 l -0.663181,1.7638905 H 10.946963 L 10.283782,-11.258262 V -9 H 9.9461623 Z"
         style="font-size:3.52778px;stroke-width:0.264583;fill:#000000;fill-opacity:1;stroke:none;stroke-opacity:1"
         id="path1029" />
      <path
         d="m 13.849458,-11.228978 -0.471978,1.2798536 h 0.945679 z m -0.19637,-0.342787 h 0.394463 L 15.027682,-9 H 14.665946 L 14.43168,-9.6597362 H 13.272404 L 13.038138,-9 h -0.366903 z"
         style="font-size:3.52778px;stroke-width:0.264583;fill:#000000;fill-opacity:1;stroke:none;stroke-opacity:1"
         id="path1031" />
      <path
         d="m 15.279174,-11.571765 h 0.373793 l 0.639066,0.956014 0.64251,-0.956014 h 0.373793 L 16.481513,-10.336698 17.363458,-9 H 16.989665 L 16.266194,-10.093819 15.537556,-9 h -0.375515 l 0.918118,-1.372871 z"
         style="font-size:3.52778px;stroke-width:0.264583;fill:#000000;fill-opacity:1;stroke:none;stroke-opacity:1"
         id="path1033" />
    </g>
    <g
       id="g1032"
       transform="translate(0,6.879167)">
      <path
         style="fill:none;stroke:#000000;stroke-width:0.765;stroke-linecap:round;stroke-linejoin:round;stroke-miterlimit:4;stroke-dasharray:none;stroke-opacity:1"
         d="M 3.175,-14 H 14.8"
         id="path1016"
         sodipodi:nodetypes="cc" />
      <path
         style="fill:#000000;fill-opacity:1;stroke:#000000;stroke-width:0.265;stroke-linecap:butt;stroke-linejoin:round;stroke-miterlimit:4;stroke-dasharray:none;stroke-opacity:1"
         d="M 13.475,-14 12.945833,-15.129167 15.875,-14 l -2.929167,1.129167 z"
         id="path1018"
         sodipodi:nodetypes="ccccc" />
    </g>
  </g>
  <g
     inkscape:groupmode="layer"
     id="layer3"
     inkscape:label="misc" />
</svg>
