%TF.GenerationSoftware,KiCad,Pcbnew,5.1.8*%
%TF.CreationDate,2020-12-07T23:56:31-05:00*%
%TF.ProjectId,current-sensor,63757272-656e-4742-9d73-656e736f722e,1*%
%TF.SameCoordinates,Original*%
%TF.FileFunction,Copper,L1,Top*%
%TF.FilePolarity,Positive*%
%FSLAX46Y46*%
G04 Gerber Fmt 4.6, Leading zero omitted, Abs format (unit mm)*
G04 Created by KiCad (PCBNEW 5.1.8) date 2020-12-07 23:56:31*
%MOMM*%
%LPD*%
G01*
G04 APERTURE LIST*
%ADD10C,0.100000*%
%ADD11C,0.150000*%
%ADD12C,0.300000*%
%ADD13C,0.400000*%
%TA.AperFunction,SMDPad,CuDef*%
%ADD14R,0.600000X1.550000*%
%TD*%
%TA.AperFunction,ComponentPad*%
%ADD15O,1.740000X2.200000*%
%TD*%
%TA.AperFunction,ComponentPad*%
%ADD16O,2.100000X3.000000*%
%TD*%
%TA.AperFunction,ComponentPad*%
%ADD17O,1.400000X2.000000*%
%TD*%
%TA.AperFunction,ComponentPad*%
%ADD18O,2.500000X1.500000*%
%TD*%
%TA.AperFunction,ComponentPad*%
%ADD19C,1.700000*%
%TD*%
%TA.AperFunction,ComponentPad*%
%ADD20C,3.000000*%
%TD*%
%TA.AperFunction,ComponentPad*%
%ADD21C,2.500000*%
%TD*%
%TA.AperFunction,SMDPad,CuDef*%
%ADD22R,1.220000X0.650000*%
%TD*%
%TA.AperFunction,ViaPad*%
%ADD23C,0.800000*%
%TD*%
%TA.AperFunction,ViaPad*%
%ADD24C,1.200000*%
%TD*%
%TA.AperFunction,Conductor*%
%ADD25C,0.250000*%
%TD*%
%TA.AperFunction,Conductor*%
%ADD26C,0.500000*%
%TD*%
%TA.AperFunction,Conductor*%
%ADD27C,0.762000*%
%TD*%
%TA.AperFunction,Conductor*%
%ADD28C,0.304800*%
%TD*%
%TA.AperFunction,Conductor*%
%ADD29C,0.812800*%
%TD*%
%TA.AperFunction,Conductor*%
%ADD30C,1.000000*%
%TD*%
%TA.AperFunction,Conductor*%
%ADD31C,0.254000*%
%TD*%
%TA.AperFunction,Conductor*%
%ADD32C,0.100000*%
%TD*%
G04 APERTURE END LIST*
D10*
D11*
X159400000Y-171900000D02*
X159400000Y-203900000D01*
X267400000Y-203900000D01*
X267400000Y-171900000D01*
X159400000Y-171900000D01*
D10*
D11*
X10000000Y-10000000D02*
X10000000Y-205900000D01*
X269400000Y-205900000D01*
X269400000Y-10000000D01*
X10000000Y-10000000D01*
D10*
D11*
X12000000Y-12000000D02*
X12000000Y-203900000D01*
X267400000Y-203900000D01*
X267400000Y-12000000D01*
X12000000Y-12000000D01*
D10*
D11*
X60000000Y-12000000D02*
X60000000Y-10000000D01*
D10*
D11*
X110000000Y-12000000D02*
X110000000Y-10000000D01*
D10*
D11*
X160000000Y-12000000D02*
X160000000Y-10000000D01*
D10*
D11*
X210000000Y-12000000D02*
X210000000Y-10000000D01*
D10*
D11*
X260000000Y-12000000D02*
X260000000Y-10000000D01*
D10*
D11*
X36065476Y-11588095D02*
X35322619Y-11588095D01*
X35694047Y-11588095D02*
X35694047Y-10288095D01*
X35570238Y-10473809D01*
X35446428Y-10597619D01*
X35322619Y-10659523D01*
D10*
D11*
X85322619Y-10411904D02*
X85384523Y-10350000D01*
X85508333Y-10288095D01*
X85817857Y-10288095D01*
X85941666Y-10350000D01*
X86003571Y-10411904D01*
X86065476Y-10535714D01*
X86065476Y-10659523D01*
X86003571Y-10845238D01*
X85260714Y-11588095D01*
X86065476Y-11588095D01*
D10*
D11*
X135260714Y-10288095D02*
X136065476Y-10288095D01*
X135632142Y-10783333D01*
X135817857Y-10783333D01*
X135941666Y-10845238D01*
X136003571Y-10907142D01*
X136065476Y-11030952D01*
X136065476Y-11340476D01*
X136003571Y-11464285D01*
X135941666Y-11526190D01*
X135817857Y-11588095D01*
X135446428Y-11588095D01*
X135322619Y-11526190D01*
X135260714Y-11464285D01*
D10*
D11*
X185941666Y-10721428D02*
X185941666Y-11588095D01*
X185632142Y-10226190D02*
X185322619Y-11154761D01*
X186127380Y-11154761D01*
D10*
D11*
X236003571Y-10288095D02*
X235384523Y-10288095D01*
X235322619Y-10907142D01*
X235384523Y-10845238D01*
X235508333Y-10783333D01*
X235817857Y-10783333D01*
X235941666Y-10845238D01*
X236003571Y-10907142D01*
X236065476Y-11030952D01*
X236065476Y-11340476D01*
X236003571Y-11464285D01*
X235941666Y-11526190D01*
X235817857Y-11588095D01*
X235508333Y-11588095D01*
X235384523Y-11526190D01*
X235322619Y-11464285D01*
D10*
D11*
X60000000Y-203900000D02*
X60000000Y-205900000D01*
D10*
D11*
X110000000Y-203900000D02*
X110000000Y-205900000D01*
D10*
D11*
X160000000Y-203900000D02*
X160000000Y-205900000D01*
D10*
D11*
X210000000Y-203900000D02*
X210000000Y-205900000D01*
D10*
D11*
X260000000Y-203900000D02*
X260000000Y-205900000D01*
D10*
D11*
X36065476Y-205488095D02*
X35322619Y-205488095D01*
X35694047Y-205488095D02*
X35694047Y-204188095D01*
X35570238Y-204373809D01*
X35446428Y-204497619D01*
X35322619Y-204559523D01*
D10*
D11*
X85322619Y-204311904D02*
X85384523Y-204250000D01*
X85508333Y-204188095D01*
X85817857Y-204188095D01*
X85941666Y-204250000D01*
X86003571Y-204311904D01*
X86065476Y-204435714D01*
X86065476Y-204559523D01*
X86003571Y-204745238D01*
X85260714Y-205488095D01*
X86065476Y-205488095D01*
D10*
D11*
X135260714Y-204188095D02*
X136065476Y-204188095D01*
X135632142Y-204683333D01*
X135817857Y-204683333D01*
X135941666Y-204745238D01*
X136003571Y-204807142D01*
X136065476Y-204930952D01*
X136065476Y-205240476D01*
X136003571Y-205364285D01*
X135941666Y-205426190D01*
X135817857Y-205488095D01*
X135446428Y-205488095D01*
X135322619Y-205426190D01*
X135260714Y-205364285D01*
D10*
D11*
X185941666Y-204621428D02*
X185941666Y-205488095D01*
X185632142Y-204126190D02*
X185322619Y-205054761D01*
X186127380Y-205054761D01*
D10*
D11*
X236003571Y-204188095D02*
X235384523Y-204188095D01*
X235322619Y-204807142D01*
X235384523Y-204745238D01*
X235508333Y-204683333D01*
X235817857Y-204683333D01*
X235941666Y-204745238D01*
X236003571Y-204807142D01*
X236065476Y-204930952D01*
X236065476Y-205240476D01*
X236003571Y-205364285D01*
X235941666Y-205426190D01*
X235817857Y-205488095D01*
X235508333Y-205488095D01*
X235384523Y-205426190D01*
X235322619Y-205364285D01*
D10*
D11*
X10000000Y-60000000D02*
X12000000Y-60000000D01*
D10*
D11*
X10000000Y-110000000D02*
X12000000Y-110000000D01*
D10*
D11*
X10000000Y-160000000D02*
X12000000Y-160000000D01*
D10*
D11*
X10690476Y-35216666D02*
X11309523Y-35216666D01*
X10566666Y-35588095D02*
X11000000Y-34288095D01*
X11433333Y-35588095D01*
D10*
D11*
X11092857Y-84907142D02*
X11278571Y-84969047D01*
X11340476Y-85030952D01*
X11402380Y-85154761D01*
X11402380Y-85340476D01*
X11340476Y-85464285D01*
X11278571Y-85526190D01*
X11154761Y-85588095D01*
X10659523Y-85588095D01*
X10659523Y-84288095D01*
X11092857Y-84288095D01*
X11216666Y-84350000D01*
X11278571Y-84411904D01*
X11340476Y-84535714D01*
X11340476Y-84659523D01*
X11278571Y-84783333D01*
X11216666Y-84845238D01*
X11092857Y-84907142D01*
X10659523Y-84907142D01*
D10*
D11*
X11402380Y-135464285D02*
X11340476Y-135526190D01*
X11154761Y-135588095D01*
X11030952Y-135588095D01*
X10845238Y-135526190D01*
X10721428Y-135402380D01*
X10659523Y-135278571D01*
X10597619Y-135030952D01*
X10597619Y-134845238D01*
X10659523Y-134597619D01*
X10721428Y-134473809D01*
X10845238Y-134350000D01*
X11030952Y-134288095D01*
X11154761Y-134288095D01*
X11340476Y-134350000D01*
X11402380Y-134411904D01*
D10*
D11*
X10659523Y-185588095D02*
X10659523Y-184288095D01*
X10969047Y-184288095D01*
X11154761Y-184350000D01*
X11278571Y-184473809D01*
X11340476Y-184597619D01*
X11402380Y-184845238D01*
X11402380Y-185030952D01*
X11340476Y-185278571D01*
X11278571Y-185402380D01*
X11154761Y-185526190D01*
X10969047Y-185588095D01*
X10659523Y-185588095D01*
D10*
D11*
X269400000Y-60000000D02*
X267400000Y-60000000D01*
D10*
D11*
X269400000Y-110000000D02*
X267400000Y-110000000D01*
D10*
D11*
X269400000Y-160000000D02*
X267400000Y-160000000D01*
D10*
D11*
X268090476Y-35216666D02*
X268709523Y-35216666D01*
X267966666Y-35588095D02*
X268400000Y-34288095D01*
X268833333Y-35588095D01*
D10*
D11*
X268492857Y-84907142D02*
X268678571Y-84969047D01*
X268740476Y-85030952D01*
X268802380Y-85154761D01*
X268802380Y-85340476D01*
X268740476Y-85464285D01*
X268678571Y-85526190D01*
X268554761Y-85588095D01*
X268059523Y-85588095D01*
X268059523Y-84288095D01*
X268492857Y-84288095D01*
X268616666Y-84350000D01*
X268678571Y-84411904D01*
X268740476Y-84535714D01*
X268740476Y-84659523D01*
X268678571Y-84783333D01*
X268616666Y-84845238D01*
X268492857Y-84907142D01*
X268059523Y-84907142D01*
D10*
D11*
X268802380Y-135464285D02*
X268740476Y-135526190D01*
X268554761Y-135588095D01*
X268430952Y-135588095D01*
X268245238Y-135526190D01*
X268121428Y-135402380D01*
X268059523Y-135278571D01*
X267997619Y-135030952D01*
X267997619Y-134845238D01*
X268059523Y-134597619D01*
X268121428Y-134473809D01*
X268245238Y-134350000D01*
X268430952Y-134288095D01*
X268554761Y-134288095D01*
X268740476Y-134350000D01*
X268802380Y-134411904D01*
D10*
D11*
X268059523Y-185588095D02*
X268059523Y-184288095D01*
X268369047Y-184288095D01*
X268554761Y-184350000D01*
X268678571Y-184473809D01*
X268740476Y-184597619D01*
X268802380Y-184845238D01*
X268802380Y-185030952D01*
X268740476Y-185278571D01*
X268678571Y-185402380D01*
X268554761Y-185526190D01*
X268369047Y-185588095D01*
X268059523Y-185588095D01*
D10*
D11*
X182832142Y-199678571D02*
X182832142Y-198178571D01*
X183189285Y-198178571D01*
X183403571Y-198250000D01*
X183546428Y-198392857D01*
X183617857Y-198535714D01*
X183689285Y-198821428D01*
X183689285Y-199035714D01*
X183617857Y-199321428D01*
X183546428Y-199464285D01*
X183403571Y-199607142D01*
X183189285Y-199678571D01*
X182832142Y-199678571D01*
X184975000Y-199678571D02*
X184975000Y-198892857D01*
X184903571Y-198750000D01*
X184760714Y-198678571D01*
X184475000Y-198678571D01*
X184332142Y-198750000D01*
X184975000Y-199607142D02*
X184832142Y-199678571D01*
X184475000Y-199678571D01*
X184332142Y-199607142D01*
X184260714Y-199464285D01*
X184260714Y-199321428D01*
X184332142Y-199178571D01*
X184475000Y-199107142D01*
X184832142Y-199107142D01*
X184975000Y-199035714D01*
X185475000Y-198678571D02*
X186046428Y-198678571D01*
X185689285Y-198178571D02*
X185689285Y-199464285D01*
X185760714Y-199607142D01*
X185903571Y-199678571D01*
X186046428Y-199678571D01*
X187117857Y-199607142D02*
X186975000Y-199678571D01*
X186689285Y-199678571D01*
X186546428Y-199607142D01*
X186475000Y-199464285D01*
X186475000Y-198892857D01*
X186546428Y-198750000D01*
X186689285Y-198678571D01*
X186975000Y-198678571D01*
X187117857Y-198750000D01*
X187189285Y-198892857D01*
X187189285Y-199035714D01*
X186475000Y-199178571D01*
X187832142Y-199535714D02*
X187903571Y-199607142D01*
X187832142Y-199678571D01*
X187760714Y-199607142D01*
X187832142Y-199535714D01*
X187832142Y-199678571D01*
X187832142Y-198750000D02*
X187903571Y-198821428D01*
X187832142Y-198892857D01*
X187760714Y-198821428D01*
X187832142Y-198750000D01*
X187832142Y-198892857D01*
X189617857Y-198321428D02*
X189689285Y-198250000D01*
X189832142Y-198178571D01*
X190189285Y-198178571D01*
X190332142Y-198250000D01*
X190403571Y-198321428D01*
X190475000Y-198464285D01*
X190475000Y-198607142D01*
X190403571Y-198821428D01*
X189546428Y-199678571D01*
X190475000Y-199678571D01*
X191403571Y-198178571D02*
X191546428Y-198178571D01*
X191689285Y-198250000D01*
X191760714Y-198321428D01*
X191832142Y-198464285D01*
X191903571Y-198750000D01*
X191903571Y-199107142D01*
X191832142Y-199392857D01*
X191760714Y-199535714D01*
X191689285Y-199607142D01*
X191546428Y-199678571D01*
X191403571Y-199678571D01*
X191260714Y-199607142D01*
X191189285Y-199535714D01*
X191117857Y-199392857D01*
X191046428Y-199107142D01*
X191046428Y-198750000D01*
X191117857Y-198464285D01*
X191189285Y-198321428D01*
X191260714Y-198250000D01*
X191403571Y-198178571D01*
X192475000Y-198321428D02*
X192546428Y-198250000D01*
X192689285Y-198178571D01*
X193046428Y-198178571D01*
X193189285Y-198250000D01*
X193260714Y-198321428D01*
X193332142Y-198464285D01*
X193332142Y-198607142D01*
X193260714Y-198821428D01*
X192403571Y-199678571D01*
X193332142Y-199678571D01*
X194260714Y-198178571D02*
X194403571Y-198178571D01*
X194546428Y-198250000D01*
X194617857Y-198321428D01*
X194689285Y-198464285D01*
X194760714Y-198750000D01*
X194760714Y-199107142D01*
X194689285Y-199392857D01*
X194617857Y-199535714D01*
X194546428Y-199607142D01*
X194403571Y-199678571D01*
X194260714Y-199678571D01*
X194117857Y-199607142D01*
X194046428Y-199535714D01*
X193975000Y-199392857D01*
X193903571Y-199107142D01*
X193903571Y-198750000D01*
X193975000Y-198464285D01*
X194046428Y-198321428D01*
X194117857Y-198250000D01*
X194260714Y-198178571D01*
X195403571Y-199107142D02*
X196546428Y-199107142D01*
X198046428Y-199678571D02*
X197189285Y-199678571D01*
X197617857Y-199678571D02*
X197617857Y-198178571D01*
X197475000Y-198392857D01*
X197332142Y-198535714D01*
X197189285Y-198607142D01*
X198617857Y-198321428D02*
X198689285Y-198250000D01*
X198832142Y-198178571D01*
X199189285Y-198178571D01*
X199332142Y-198250000D01*
X199403571Y-198321428D01*
X199475000Y-198464285D01*
X199475000Y-198607142D01*
X199403571Y-198821428D01*
X198546428Y-199678571D01*
X199475000Y-199678571D01*
X200117857Y-199107142D02*
X201260714Y-199107142D01*
X202260714Y-198178571D02*
X202403571Y-198178571D01*
X202546428Y-198250000D01*
X202617857Y-198321428D01*
X202689285Y-198464285D01*
X202760714Y-198750000D01*
X202760714Y-199107142D01*
X202689285Y-199392857D01*
X202617857Y-199535714D01*
X202546428Y-199607142D01*
X202403571Y-199678571D01*
X202260714Y-199678571D01*
X202117857Y-199607142D01*
X202046428Y-199535714D01*
X201975000Y-199392857D01*
X201903571Y-199107142D01*
X201903571Y-198750000D01*
X201975000Y-198464285D01*
X202046428Y-198321428D01*
X202117857Y-198250000D01*
X202260714Y-198178571D01*
X203260714Y-198178571D02*
X204260714Y-198178571D01*
X203617857Y-199678571D01*
D10*
D11*
X159400000Y-200400000D02*
X267400000Y-200400000D01*
D10*
D11*
X160832142Y-202478571D02*
X160832142Y-200978571D01*
X161689285Y-202478571D02*
X161046428Y-201621428D01*
X161689285Y-200978571D02*
X160832142Y-201835714D01*
X162332142Y-202478571D02*
X162332142Y-201478571D01*
X162332142Y-200978571D02*
X162260714Y-201050000D01*
X162332142Y-201121428D01*
X162403571Y-201050000D01*
X162332142Y-200978571D01*
X162332142Y-201121428D01*
X163903571Y-202335714D02*
X163832142Y-202407142D01*
X163617857Y-202478571D01*
X163475000Y-202478571D01*
X163260714Y-202407142D01*
X163117857Y-202264285D01*
X163046428Y-202121428D01*
X162975000Y-201835714D01*
X162975000Y-201621428D01*
X163046428Y-201335714D01*
X163117857Y-201192857D01*
X163260714Y-201050000D01*
X163475000Y-200978571D01*
X163617857Y-200978571D01*
X163832142Y-201050000D01*
X163903571Y-201121428D01*
X165189285Y-202478571D02*
X165189285Y-201692857D01*
X165117857Y-201550000D01*
X164975000Y-201478571D01*
X164689285Y-201478571D01*
X164546428Y-201550000D01*
X165189285Y-202407142D02*
X165046428Y-202478571D01*
X164689285Y-202478571D01*
X164546428Y-202407142D01*
X164475000Y-202264285D01*
X164475000Y-202121428D01*
X164546428Y-201978571D01*
X164689285Y-201907142D01*
X165046428Y-201907142D01*
X165189285Y-201835714D01*
X166546428Y-202478571D02*
X166546428Y-200978571D01*
X166546428Y-202407142D02*
X166403571Y-202478571D01*
X166117857Y-202478571D01*
X165975000Y-202407142D01*
X165903571Y-202335714D01*
X165832142Y-202192857D01*
X165832142Y-201764285D01*
X165903571Y-201621428D01*
X165975000Y-201550000D01*
X166117857Y-201478571D01*
X166403571Y-201478571D01*
X166546428Y-201550000D01*
X168403571Y-201692857D02*
X168903571Y-201692857D01*
X169117857Y-202478571D02*
X168403571Y-202478571D01*
X168403571Y-200978571D01*
X169117857Y-200978571D01*
X169760714Y-202335714D02*
X169832142Y-202407142D01*
X169760714Y-202478571D01*
X169689285Y-202407142D01*
X169760714Y-202335714D01*
X169760714Y-202478571D01*
X170475000Y-202478571D02*
X170475000Y-200978571D01*
X170832142Y-200978571D01*
X171046428Y-201050000D01*
X171189285Y-201192857D01*
X171260714Y-201335714D01*
X171332142Y-201621428D01*
X171332142Y-201835714D01*
X171260714Y-202121428D01*
X171189285Y-202264285D01*
X171046428Y-202407142D01*
X170832142Y-202478571D01*
X170475000Y-202478571D01*
X171975000Y-202335714D02*
X172046428Y-202407142D01*
X171975000Y-202478571D01*
X171903571Y-202407142D01*
X171975000Y-202335714D01*
X171975000Y-202478571D01*
X172617857Y-202050000D02*
X173332142Y-202050000D01*
X172475000Y-202478571D02*
X172975000Y-200978571D01*
X173475000Y-202478571D01*
X173975000Y-202335714D02*
X174046428Y-202407142D01*
X173975000Y-202478571D01*
X173903571Y-202407142D01*
X173975000Y-202335714D01*
X173975000Y-202478571D01*
X176975000Y-202478571D02*
X176975000Y-200978571D01*
X177117857Y-201907142D02*
X177546428Y-202478571D01*
X177546428Y-201478571D02*
X176975000Y-202050000D01*
X178189285Y-202478571D02*
X178189285Y-201478571D01*
X178189285Y-200978571D02*
X178117857Y-201050000D01*
X178189285Y-201121428D01*
X178260714Y-201050000D01*
X178189285Y-200978571D01*
X178189285Y-201121428D01*
X179546428Y-202407142D02*
X179403571Y-202478571D01*
X179117857Y-202478571D01*
X178975000Y-202407142D01*
X178903571Y-202335714D01*
X178832142Y-202192857D01*
X178832142Y-201764285D01*
X178903571Y-201621428D01*
X178975000Y-201550000D01*
X179117857Y-201478571D01*
X179403571Y-201478571D01*
X179546428Y-201550000D01*
X180832142Y-202478571D02*
X180832142Y-201692857D01*
X180760714Y-201550000D01*
X180617857Y-201478571D01*
X180332142Y-201478571D01*
X180189285Y-201550000D01*
X180832142Y-202407142D02*
X180689285Y-202478571D01*
X180332142Y-202478571D01*
X180189285Y-202407142D01*
X180117857Y-202264285D01*
X180117857Y-202121428D01*
X180189285Y-201978571D01*
X180332142Y-201907142D01*
X180689285Y-201907142D01*
X180832142Y-201835714D01*
X182189285Y-202478571D02*
X182189285Y-200978571D01*
X182189285Y-202407142D02*
X182046428Y-202478571D01*
X181760714Y-202478571D01*
X181617857Y-202407142D01*
X181546428Y-202335714D01*
X181475000Y-202192857D01*
X181475000Y-201764285D01*
X181546428Y-201621428D01*
X181617857Y-201550000D01*
X181760714Y-201478571D01*
X182046428Y-201478571D01*
X182189285Y-201550000D01*
X184760714Y-200978571D02*
X184046428Y-200978571D01*
X183975000Y-201692857D01*
X184046428Y-201621428D01*
X184189285Y-201550000D01*
X184546428Y-201550000D01*
X184689285Y-201621428D01*
X184760714Y-201692857D01*
X184832142Y-201835714D01*
X184832142Y-202192857D01*
X184760714Y-202335714D01*
X184689285Y-202407142D01*
X184546428Y-202478571D01*
X184189285Y-202478571D01*
X184046428Y-202407142D01*
X183975000Y-202335714D01*
X185475000Y-202335714D02*
X185546428Y-202407142D01*
X185475000Y-202478571D01*
X185403571Y-202407142D01*
X185475000Y-202335714D01*
X185475000Y-202478571D01*
X186975000Y-202478571D02*
X186117857Y-202478571D01*
X186546428Y-202478571D02*
X186546428Y-200978571D01*
X186403571Y-201192857D01*
X186260714Y-201335714D01*
X186117857Y-201407142D01*
X187617857Y-202335714D02*
X187689285Y-202407142D01*
X187617857Y-202478571D01*
X187546428Y-202407142D01*
X187617857Y-202335714D01*
X187617857Y-202478571D01*
X188546428Y-201621428D02*
X188403571Y-201550000D01*
X188332142Y-201478571D01*
X188260714Y-201335714D01*
X188260714Y-201264285D01*
X188332142Y-201121428D01*
X188403571Y-201050000D01*
X188546428Y-200978571D01*
X188832142Y-200978571D01*
X188975000Y-201050000D01*
X189046428Y-201121428D01*
X189117857Y-201264285D01*
X189117857Y-201335714D01*
X189046428Y-201478571D01*
X188975000Y-201550000D01*
X188832142Y-201621428D01*
X188546428Y-201621428D01*
X188403571Y-201692857D01*
X188332142Y-201764285D01*
X188260714Y-201907142D01*
X188260714Y-202192857D01*
X188332142Y-202335714D01*
X188403571Y-202407142D01*
X188546428Y-202478571D01*
X188832142Y-202478571D01*
X188975000Y-202407142D01*
X189046428Y-202335714D01*
X189117857Y-202192857D01*
X189117857Y-201907142D01*
X189046428Y-201764285D01*
X188975000Y-201692857D01*
X188832142Y-201621428D01*
D10*
D11*
X159400000Y-197400000D02*
X267400000Y-197400000D01*
D10*
D12*
X246809285Y-199678571D02*
X246309285Y-198964285D01*
X245952142Y-199678571D02*
X245952142Y-198178571D01*
X246523571Y-198178571D01*
X246666428Y-198250000D01*
X246737857Y-198321428D01*
X246809285Y-198464285D01*
X246809285Y-198678571D01*
X246737857Y-198821428D01*
X246666428Y-198892857D01*
X246523571Y-198964285D01*
X245952142Y-198964285D01*
X248023571Y-199607142D02*
X247880714Y-199678571D01*
X247595000Y-199678571D01*
X247452142Y-199607142D01*
X247380714Y-199464285D01*
X247380714Y-198892857D01*
X247452142Y-198750000D01*
X247595000Y-198678571D01*
X247880714Y-198678571D01*
X248023571Y-198750000D01*
X248095000Y-198892857D01*
X248095000Y-199035714D01*
X247380714Y-199178571D01*
X248595000Y-198678571D02*
X248952142Y-199678571D01*
X249309285Y-198678571D01*
X249880714Y-199535714D02*
X249952142Y-199607142D01*
X249880714Y-199678571D01*
X249809285Y-199607142D01*
X249880714Y-199535714D01*
X249880714Y-199678571D01*
X249880714Y-198750000D02*
X249952142Y-198821428D01*
X249880714Y-198892857D01*
X249809285Y-198821428D01*
X249880714Y-198750000D01*
X249880714Y-198892857D01*
X252523571Y-199678571D02*
X251666428Y-199678571D01*
X252095000Y-199678571D02*
X252095000Y-198178571D01*
X251952142Y-198392857D01*
X251809285Y-198535714D01*
X251666428Y-198607142D01*
D10*
D11*
X160760714Y-199607142D02*
X160975000Y-199678571D01*
X161332142Y-199678571D01*
X161475000Y-199607142D01*
X161546428Y-199535714D01*
X161617857Y-199392857D01*
X161617857Y-199250000D01*
X161546428Y-199107142D01*
X161475000Y-199035714D01*
X161332142Y-198964285D01*
X161046428Y-198892857D01*
X160903571Y-198821428D01*
X160832142Y-198750000D01*
X160760714Y-198607142D01*
X160760714Y-198464285D01*
X160832142Y-198321428D01*
X160903571Y-198250000D01*
X161046428Y-198178571D01*
X161403571Y-198178571D01*
X161617857Y-198250000D01*
X162260714Y-199678571D02*
X162260714Y-198678571D01*
X162260714Y-198178571D02*
X162189285Y-198250000D01*
X162260714Y-198321428D01*
X162332142Y-198250000D01*
X162260714Y-198178571D01*
X162260714Y-198321428D01*
X162832142Y-198678571D02*
X163617857Y-198678571D01*
X162832142Y-199678571D01*
X163617857Y-199678571D01*
X164760714Y-199607142D02*
X164617857Y-199678571D01*
X164332142Y-199678571D01*
X164189285Y-199607142D01*
X164117857Y-199464285D01*
X164117857Y-198892857D01*
X164189285Y-198750000D01*
X164332142Y-198678571D01*
X164617857Y-198678571D01*
X164760714Y-198750000D01*
X164832142Y-198892857D01*
X164832142Y-199035714D01*
X164117857Y-199178571D01*
X165475000Y-199535714D02*
X165546428Y-199607142D01*
X165475000Y-199678571D01*
X165403571Y-199607142D01*
X165475000Y-199535714D01*
X165475000Y-199678571D01*
X165475000Y-198750000D02*
X165546428Y-198821428D01*
X165475000Y-198892857D01*
X165403571Y-198821428D01*
X165475000Y-198750000D01*
X165475000Y-198892857D01*
X167260714Y-199250000D02*
X167975000Y-199250000D01*
X167117857Y-199678571D02*
X167617857Y-198178571D01*
X168117857Y-199678571D01*
D10*
D11*
X245832142Y-202478571D02*
X245832142Y-200978571D01*
X247189285Y-202478571D02*
X247189285Y-200978571D01*
X247189285Y-202407142D02*
X247046428Y-202478571D01*
X246760714Y-202478571D01*
X246617857Y-202407142D01*
X246546428Y-202335714D01*
X246475000Y-202192857D01*
X246475000Y-201764285D01*
X246546428Y-201621428D01*
X246617857Y-201550000D01*
X246760714Y-201478571D01*
X247046428Y-201478571D01*
X247189285Y-201550000D01*
X247903571Y-202335714D02*
X247975000Y-202407142D01*
X247903571Y-202478571D01*
X247832142Y-202407142D01*
X247903571Y-202335714D01*
X247903571Y-202478571D01*
X247903571Y-201550000D02*
X247975000Y-201621428D01*
X247903571Y-201692857D01*
X247832142Y-201621428D01*
X247903571Y-201550000D01*
X247903571Y-201692857D01*
X250546428Y-202478571D02*
X249689285Y-202478571D01*
X250117857Y-202478571D02*
X250117857Y-200978571D01*
X249975000Y-201192857D01*
X249832142Y-201335714D01*
X249689285Y-201407142D01*
X252260714Y-200907142D02*
X250975000Y-202835714D01*
X253546428Y-202478571D02*
X252689285Y-202478571D01*
X253117857Y-202478571D02*
X253117857Y-200978571D01*
X252975000Y-201192857D01*
X252832142Y-201335714D01*
X252689285Y-201407142D01*
D10*
D11*
X159400000Y-193400000D02*
X267400000Y-193400000D01*
D10*
D13*
X161112380Y-194104761D02*
X162255238Y-194104761D01*
X161433809Y-196104761D02*
X161683809Y-194104761D01*
X162671904Y-196104761D02*
X162838571Y-194771428D01*
X162921904Y-194104761D02*
X162814761Y-194200000D01*
X162898095Y-194295238D01*
X163005238Y-194200000D01*
X162921904Y-194104761D01*
X162898095Y-194295238D01*
X163505238Y-194771428D02*
X164267142Y-194771428D01*
X163874285Y-194104761D02*
X163660000Y-195819047D01*
X163731428Y-196009523D01*
X163910000Y-196104761D01*
X164100476Y-196104761D01*
X165052857Y-196104761D02*
X164874285Y-196009523D01*
X164802857Y-195819047D01*
X165017142Y-194104761D01*
X166588571Y-196009523D02*
X166386190Y-196104761D01*
X166005238Y-196104761D01*
X165826666Y-196009523D01*
X165755238Y-195819047D01*
X165850476Y-195057142D01*
X165969523Y-194866666D01*
X166171904Y-194771428D01*
X166552857Y-194771428D01*
X166731428Y-194866666D01*
X166802857Y-195057142D01*
X166779047Y-195247619D01*
X165802857Y-195438095D01*
X167552857Y-195914285D02*
X167636190Y-196009523D01*
X167529047Y-196104761D01*
X167445714Y-196009523D01*
X167552857Y-195914285D01*
X167529047Y-196104761D01*
X167683809Y-194866666D02*
X167767142Y-194961904D01*
X167660000Y-195057142D01*
X167576666Y-194961904D01*
X167683809Y-194866666D01*
X167660000Y-195057142D01*
X171171904Y-195914285D02*
X171064761Y-196009523D01*
X170767142Y-196104761D01*
X170576666Y-196104761D01*
X170302857Y-196009523D01*
X170136190Y-195819047D01*
X170064761Y-195628571D01*
X170017142Y-195247619D01*
X170052857Y-194961904D01*
X170195714Y-194580952D01*
X170314761Y-194390476D01*
X170529047Y-194200000D01*
X170826666Y-194104761D01*
X171017142Y-194104761D01*
X171290952Y-194200000D01*
X171374285Y-194295238D01*
X173029047Y-194771428D02*
X172862380Y-196104761D01*
X172171904Y-194771428D02*
X172040952Y-195819047D01*
X172112380Y-196009523D01*
X172290952Y-196104761D01*
X172576666Y-196104761D01*
X172779047Y-196009523D01*
X172886190Y-195914285D01*
X173814761Y-196104761D02*
X173981428Y-194771428D01*
X173933809Y-195152380D02*
X174052857Y-194961904D01*
X174160000Y-194866666D01*
X174362380Y-194771428D01*
X174552857Y-194771428D01*
X175052857Y-196104761D02*
X175219523Y-194771428D01*
X175171904Y-195152380D02*
X175290952Y-194961904D01*
X175398095Y-194866666D01*
X175600476Y-194771428D01*
X175790952Y-194771428D01*
X177064761Y-196009523D02*
X176862380Y-196104761D01*
X176481428Y-196104761D01*
X176302857Y-196009523D01*
X176231428Y-195819047D01*
X176326666Y-195057142D01*
X176445714Y-194866666D01*
X176648095Y-194771428D01*
X177029047Y-194771428D01*
X177207619Y-194866666D01*
X177279047Y-195057142D01*
X177255238Y-195247619D01*
X176279047Y-195438095D01*
X178171904Y-194771428D02*
X178005238Y-196104761D01*
X178148095Y-194961904D02*
X178255238Y-194866666D01*
X178457619Y-194771428D01*
X178743333Y-194771428D01*
X178921904Y-194866666D01*
X178993333Y-195057142D01*
X178862380Y-196104761D01*
X179695714Y-194771428D02*
X180457619Y-194771428D01*
X180064761Y-194104761D02*
X179850476Y-195819047D01*
X179921904Y-196009523D01*
X180100476Y-196104761D01*
X180290952Y-196104761D01*
X182398095Y-196009523D02*
X182671904Y-196104761D01*
X183148095Y-196104761D01*
X183350476Y-196009523D01*
X183457619Y-195914285D01*
X183576666Y-195723809D01*
X183600476Y-195533333D01*
X183529047Y-195342857D01*
X183445714Y-195247619D01*
X183267142Y-195152380D01*
X182898095Y-195057142D01*
X182719523Y-194961904D01*
X182636190Y-194866666D01*
X182564761Y-194676190D01*
X182588571Y-194485714D01*
X182707619Y-194295238D01*
X182814761Y-194200000D01*
X183017142Y-194104761D01*
X183493333Y-194104761D01*
X183767142Y-194200000D01*
X185160000Y-196009523D02*
X184957619Y-196104761D01*
X184576666Y-196104761D01*
X184398095Y-196009523D01*
X184326666Y-195819047D01*
X184421904Y-195057142D01*
X184540952Y-194866666D01*
X184743333Y-194771428D01*
X185124285Y-194771428D01*
X185302857Y-194866666D01*
X185374285Y-195057142D01*
X185350476Y-195247619D01*
X184374285Y-195438095D01*
X186267142Y-194771428D02*
X186100476Y-196104761D01*
X186243333Y-194961904D02*
X186350476Y-194866666D01*
X186552857Y-194771428D01*
X186838571Y-194771428D01*
X187017142Y-194866666D01*
X187088571Y-195057142D01*
X186957619Y-196104761D01*
X187826666Y-196009523D02*
X188005238Y-196104761D01*
X188386190Y-196104761D01*
X188588571Y-196009523D01*
X188707619Y-195819047D01*
X188719523Y-195723809D01*
X188648095Y-195533333D01*
X188469523Y-195438095D01*
X188183809Y-195438095D01*
X188005238Y-195342857D01*
X187933809Y-195152380D01*
X187945714Y-195057142D01*
X188064761Y-194866666D01*
X188267142Y-194771428D01*
X188552857Y-194771428D01*
X188731428Y-194866666D01*
X189814761Y-196104761D02*
X189636190Y-196009523D01*
X189552857Y-195914285D01*
X189481428Y-195723809D01*
X189552857Y-195152380D01*
X189671904Y-194961904D01*
X189779047Y-194866666D01*
X189981428Y-194771428D01*
X190267142Y-194771428D01*
X190445714Y-194866666D01*
X190529047Y-194961904D01*
X190600476Y-195152380D01*
X190529047Y-195723809D01*
X190410000Y-195914285D01*
X190302857Y-196009523D01*
X190100476Y-196104761D01*
X189814761Y-196104761D01*
X191338571Y-196104761D02*
X191505238Y-194771428D01*
X191457619Y-195152380D02*
X191576666Y-194961904D01*
X191683809Y-194866666D01*
X191886190Y-194771428D01*
X192076666Y-194771428D01*
D10*
D11*
X161332142Y-191492857D02*
X160832142Y-191492857D01*
X160832142Y-192278571D02*
X160832142Y-190778571D01*
X161546428Y-190778571D01*
X162117857Y-192278571D02*
X162117857Y-191278571D01*
X162117857Y-190778571D02*
X162046428Y-190850000D01*
X162117857Y-190921428D01*
X162189285Y-190850000D01*
X162117857Y-190778571D01*
X162117857Y-190921428D01*
X163046428Y-192278571D02*
X162903571Y-192207142D01*
X162832142Y-192064285D01*
X162832142Y-190778571D01*
X164189285Y-192207142D02*
X164046428Y-192278571D01*
X163760714Y-192278571D01*
X163617857Y-192207142D01*
X163546428Y-192064285D01*
X163546428Y-191492857D01*
X163617857Y-191350000D01*
X163760714Y-191278571D01*
X164046428Y-191278571D01*
X164189285Y-191350000D01*
X164260714Y-191492857D01*
X164260714Y-191635714D01*
X163546428Y-191778571D01*
X164903571Y-192135714D02*
X164975000Y-192207142D01*
X164903571Y-192278571D01*
X164832142Y-192207142D01*
X164903571Y-192135714D01*
X164903571Y-192278571D01*
X164903571Y-191350000D02*
X164975000Y-191421428D01*
X164903571Y-191492857D01*
X164832142Y-191421428D01*
X164903571Y-191350000D01*
X164903571Y-191492857D01*
X167403571Y-192207142D02*
X167260714Y-192278571D01*
X166975000Y-192278571D01*
X166832142Y-192207142D01*
X166760714Y-192135714D01*
X166689285Y-191992857D01*
X166689285Y-191564285D01*
X166760714Y-191421428D01*
X166832142Y-191350000D01*
X166975000Y-191278571D01*
X167260714Y-191278571D01*
X167403571Y-191350000D01*
X168689285Y-191278571D02*
X168689285Y-192278571D01*
X168046428Y-191278571D02*
X168046428Y-192064285D01*
X168117857Y-192207142D01*
X168260714Y-192278571D01*
X168475000Y-192278571D01*
X168617857Y-192207142D01*
X168689285Y-192135714D01*
X169403571Y-192278571D02*
X169403571Y-191278571D01*
X169403571Y-191564285D02*
X169475000Y-191421428D01*
X169546428Y-191350000D01*
X169689285Y-191278571D01*
X169832142Y-191278571D01*
X170332142Y-192278571D02*
X170332142Y-191278571D01*
X170332142Y-191564285D02*
X170403571Y-191421428D01*
X170475000Y-191350000D01*
X170617857Y-191278571D01*
X170760714Y-191278571D01*
X171832142Y-192207142D02*
X171689285Y-192278571D01*
X171403571Y-192278571D01*
X171260714Y-192207142D01*
X171189285Y-192064285D01*
X171189285Y-191492857D01*
X171260714Y-191350000D01*
X171403571Y-191278571D01*
X171689285Y-191278571D01*
X171832142Y-191350000D01*
X171903571Y-191492857D01*
X171903571Y-191635714D01*
X171189285Y-191778571D01*
X172546428Y-191278571D02*
X172546428Y-192278571D01*
X172546428Y-191421428D02*
X172617857Y-191350000D01*
X172760714Y-191278571D01*
X172975000Y-191278571D01*
X173117857Y-191350000D01*
X173189285Y-191492857D01*
X173189285Y-192278571D01*
X173689285Y-191278571D02*
X174260714Y-191278571D01*
X173903571Y-190778571D02*
X173903571Y-192064285D01*
X173975000Y-192207142D01*
X174117857Y-192278571D01*
X174260714Y-192278571D01*
X174760714Y-191707142D02*
X175903571Y-191707142D01*
X176546428Y-192207142D02*
X176689285Y-192278571D01*
X176975000Y-192278571D01*
X177117857Y-192207142D01*
X177189285Y-192064285D01*
X177189285Y-191992857D01*
X177117857Y-191850000D01*
X176975000Y-191778571D01*
X176760714Y-191778571D01*
X176617857Y-191707142D01*
X176546428Y-191564285D01*
X176546428Y-191492857D01*
X176617857Y-191350000D01*
X176760714Y-191278571D01*
X176975000Y-191278571D01*
X177117857Y-191350000D01*
X178403571Y-192207142D02*
X178260714Y-192278571D01*
X177975000Y-192278571D01*
X177832142Y-192207142D01*
X177760714Y-192064285D01*
X177760714Y-191492857D01*
X177832142Y-191350000D01*
X177975000Y-191278571D01*
X178260714Y-191278571D01*
X178403571Y-191350000D01*
X178475000Y-191492857D01*
X178475000Y-191635714D01*
X177760714Y-191778571D01*
X179117857Y-191278571D02*
X179117857Y-192278571D01*
X179117857Y-191421428D02*
X179189285Y-191350000D01*
X179332142Y-191278571D01*
X179546428Y-191278571D01*
X179689285Y-191350000D01*
X179760714Y-191492857D01*
X179760714Y-192278571D01*
X180403571Y-192207142D02*
X180546428Y-192278571D01*
X180832142Y-192278571D01*
X180975000Y-192207142D01*
X181046428Y-192064285D01*
X181046428Y-191992857D01*
X180975000Y-191850000D01*
X180832142Y-191778571D01*
X180617857Y-191778571D01*
X180475000Y-191707142D01*
X180403571Y-191564285D01*
X180403571Y-191492857D01*
X180475000Y-191350000D01*
X180617857Y-191278571D01*
X180832142Y-191278571D01*
X180975000Y-191350000D01*
X181903571Y-192278571D02*
X181760714Y-192207142D01*
X181689285Y-192135714D01*
X181617857Y-191992857D01*
X181617857Y-191564285D01*
X181689285Y-191421428D01*
X181760714Y-191350000D01*
X181903571Y-191278571D01*
X182117857Y-191278571D01*
X182260714Y-191350000D01*
X182332142Y-191421428D01*
X182403571Y-191564285D01*
X182403571Y-191992857D01*
X182332142Y-192135714D01*
X182260714Y-192207142D01*
X182117857Y-192278571D01*
X181903571Y-192278571D01*
X183046428Y-192278571D02*
X183046428Y-191278571D01*
X183046428Y-191564285D02*
X183117857Y-191421428D01*
X183189285Y-191350000D01*
X183332142Y-191278571D01*
X183475000Y-191278571D01*
X183975000Y-192135714D02*
X184046428Y-192207142D01*
X183975000Y-192278571D01*
X183903571Y-192207142D01*
X183975000Y-192135714D01*
X183975000Y-192278571D01*
X184689285Y-192278571D02*
X184689285Y-190778571D01*
X184832142Y-191707142D02*
X185260714Y-192278571D01*
X185260714Y-191278571D02*
X184689285Y-191850000D01*
X185903571Y-192278571D02*
X185903571Y-191278571D01*
X185903571Y-190778571D02*
X185832142Y-190850000D01*
X185903571Y-190921428D01*
X185975000Y-190850000D01*
X185903571Y-190778571D01*
X185903571Y-190921428D01*
X187260714Y-192207142D02*
X187117857Y-192278571D01*
X186832142Y-192278571D01*
X186689285Y-192207142D01*
X186617857Y-192135714D01*
X186546428Y-191992857D01*
X186546428Y-191564285D01*
X186617857Y-191421428D01*
X186689285Y-191350000D01*
X186832142Y-191278571D01*
X187117857Y-191278571D01*
X187260714Y-191350000D01*
X188546428Y-192278571D02*
X188546428Y-191492857D01*
X188475000Y-191350000D01*
X188332142Y-191278571D01*
X188046428Y-191278571D01*
X187903571Y-191350000D01*
X188546428Y-192207142D02*
X188403571Y-192278571D01*
X188046428Y-192278571D01*
X187903571Y-192207142D01*
X187832142Y-192064285D01*
X187832142Y-191921428D01*
X187903571Y-191778571D01*
X188046428Y-191707142D01*
X188403571Y-191707142D01*
X188546428Y-191635714D01*
X189903571Y-192278571D02*
X189903571Y-190778571D01*
X189903571Y-192207142D02*
X189760714Y-192278571D01*
X189475000Y-192278571D01*
X189332142Y-192207142D01*
X189260714Y-192135714D01*
X189189285Y-191992857D01*
X189189285Y-191564285D01*
X189260714Y-191421428D01*
X189332142Y-191350000D01*
X189475000Y-191278571D01*
X189760714Y-191278571D01*
X189903571Y-191350000D01*
X190260714Y-192421428D02*
X191403571Y-192421428D01*
X191760714Y-191278571D02*
X191760714Y-192778571D01*
X191760714Y-191350000D02*
X191903571Y-191278571D01*
X192189285Y-191278571D01*
X192332142Y-191350000D01*
X192403571Y-191421428D01*
X192475000Y-191564285D01*
X192475000Y-191992857D01*
X192403571Y-192135714D01*
X192332142Y-192207142D01*
X192189285Y-192278571D01*
X191903571Y-192278571D01*
X191760714Y-192207142D01*
X193760714Y-192207142D02*
X193617857Y-192278571D01*
X193332142Y-192278571D01*
X193189285Y-192207142D01*
X193117857Y-192135714D01*
X193046428Y-191992857D01*
X193046428Y-191564285D01*
X193117857Y-191421428D01*
X193189285Y-191350000D01*
X193332142Y-191278571D01*
X193617857Y-191278571D01*
X193760714Y-191350000D01*
X194403571Y-192278571D02*
X194403571Y-190778571D01*
X194403571Y-191350000D02*
X194546428Y-191278571D01*
X194832142Y-191278571D01*
X194975000Y-191350000D01*
X195046428Y-191421428D01*
X195117857Y-191564285D01*
X195117857Y-191992857D01*
X195046428Y-192135714D01*
X194975000Y-192207142D01*
X194832142Y-192278571D01*
X194546428Y-192278571D01*
X194403571Y-192207142D01*
D10*
D11*
X159400000Y-187400000D02*
X267400000Y-187400000D01*
D10*
D11*
X160760714Y-189507142D02*
X160975000Y-189578571D01*
X161332142Y-189578571D01*
X161475000Y-189507142D01*
X161546428Y-189435714D01*
X161617857Y-189292857D01*
X161617857Y-189150000D01*
X161546428Y-189007142D01*
X161475000Y-188935714D01*
X161332142Y-188864285D01*
X161046428Y-188792857D01*
X160903571Y-188721428D01*
X160832142Y-188650000D01*
X160760714Y-188507142D01*
X160760714Y-188364285D01*
X160832142Y-188221428D01*
X160903571Y-188150000D01*
X161046428Y-188078571D01*
X161403571Y-188078571D01*
X161617857Y-188150000D01*
X162260714Y-189578571D02*
X162260714Y-188078571D01*
X162903571Y-189578571D02*
X162903571Y-188792857D01*
X162832142Y-188650000D01*
X162689285Y-188578571D01*
X162475000Y-188578571D01*
X162332142Y-188650000D01*
X162260714Y-188721428D01*
X164189285Y-189507142D02*
X164046428Y-189578571D01*
X163760714Y-189578571D01*
X163617857Y-189507142D01*
X163546428Y-189364285D01*
X163546428Y-188792857D01*
X163617857Y-188650000D01*
X163760714Y-188578571D01*
X164046428Y-188578571D01*
X164189285Y-188650000D01*
X164260714Y-188792857D01*
X164260714Y-188935714D01*
X163546428Y-189078571D01*
X165475000Y-189507142D02*
X165332142Y-189578571D01*
X165046428Y-189578571D01*
X164903571Y-189507142D01*
X164832142Y-189364285D01*
X164832142Y-188792857D01*
X164903571Y-188650000D01*
X165046428Y-188578571D01*
X165332142Y-188578571D01*
X165475000Y-188650000D01*
X165546428Y-188792857D01*
X165546428Y-188935714D01*
X164832142Y-189078571D01*
X165975000Y-188578571D02*
X166546428Y-188578571D01*
X166189285Y-188078571D02*
X166189285Y-189364285D01*
X166260714Y-189507142D01*
X166403571Y-189578571D01*
X166546428Y-189578571D01*
X167046428Y-189435714D02*
X167117857Y-189507142D01*
X167046428Y-189578571D01*
X166975000Y-189507142D01*
X167046428Y-189435714D01*
X167046428Y-189578571D01*
X167046428Y-188650000D02*
X167117857Y-188721428D01*
X167046428Y-188792857D01*
X166975000Y-188721428D01*
X167046428Y-188650000D01*
X167046428Y-188792857D01*
D10*
D12*
X161737857Y-185150000D02*
X161595000Y-185078571D01*
X161380714Y-185078571D01*
X161166428Y-185150000D01*
X161023571Y-185292857D01*
X160952142Y-185435714D01*
X160880714Y-185721428D01*
X160880714Y-185935714D01*
X160952142Y-186221428D01*
X161023571Y-186364285D01*
X161166428Y-186507142D01*
X161380714Y-186578571D01*
X161523571Y-186578571D01*
X161737857Y-186507142D01*
X161809285Y-186435714D01*
X161809285Y-185935714D01*
X161523571Y-185935714D01*
X162452142Y-186435714D02*
X162523571Y-186507142D01*
X162452142Y-186578571D01*
X162380714Y-186507142D01*
X162452142Y-186435714D01*
X162452142Y-186578571D01*
X164309285Y-186578571D02*
X164309285Y-185078571D01*
X165166428Y-186578571D02*
X164523571Y-185721428D01*
X165166428Y-185078571D02*
X164309285Y-185935714D01*
X166380714Y-186507142D02*
X166237857Y-186578571D01*
X165952142Y-186578571D01*
X165809285Y-186507142D01*
X165737857Y-186364285D01*
X165737857Y-185792857D01*
X165809285Y-185650000D01*
X165952142Y-185578571D01*
X166237857Y-185578571D01*
X166380714Y-185650000D01*
X166452142Y-185792857D01*
X166452142Y-185935714D01*
X165737857Y-186078571D01*
X167666428Y-186507142D02*
X167523571Y-186578571D01*
X167237857Y-186578571D01*
X167095000Y-186507142D01*
X167023571Y-186364285D01*
X167023571Y-185792857D01*
X167095000Y-185650000D01*
X167237857Y-185578571D01*
X167523571Y-185578571D01*
X167666428Y-185650000D01*
X167737857Y-185792857D01*
X167737857Y-185935714D01*
X167023571Y-186078571D01*
X168166428Y-185578571D02*
X168737857Y-185578571D01*
X168380714Y-185078571D02*
X168380714Y-186364285D01*
X168452142Y-186507142D01*
X168595000Y-186578571D01*
X168737857Y-186578571D01*
X169237857Y-186578571D02*
X169237857Y-185078571D01*
X169880714Y-186578571D02*
X169880714Y-185792857D01*
X169809285Y-185650000D01*
X169666428Y-185578571D01*
X169452142Y-185578571D01*
X169309285Y-185650000D01*
X169237857Y-185721428D01*
D10*
D11*
X179400000Y-197400000D02*
X179400000Y-200400000D01*
D10*
D11*
X243400000Y-197400000D02*
X243400000Y-203900000D01*
%TO.P,U3,8*%
%TO.N,+5V*%
%TA.AperFunction,SMDPad,CuDef*%
G36*
G01*
X152245000Y-89500000D02*
X151945000Y-89500000D01*
G75*
G02*
X151795000Y-89350000I0J150000D01*
G01*
X151795000Y-87700000D01*
G75*
G02*
X151945000Y-87550000I150000J0D01*
G01*
X152245000Y-87550000D01*
G75*
G02*
X152395000Y-87700000I0J-150000D01*
G01*
X152395000Y-89350000D01*
G75*
G02*
X152245000Y-89500000I-150000J0D01*
G01*
G37*
%TD.AperFunction*%
%TO.P,U3,7*%
%TO.N,/virtual_gnd*%
%TA.AperFunction,SMDPad,CuDef*%
G36*
G01*
X153515000Y-89500000D02*
X153215000Y-89500000D01*
G75*
G02*
X153065000Y-89350000I0J150000D01*
G01*
X153065000Y-87700000D01*
G75*
G02*
X153215000Y-87550000I150000J0D01*
G01*
X153515000Y-87550000D01*
G75*
G02*
X153665000Y-87700000I0J-150000D01*
G01*
X153665000Y-89350000D01*
G75*
G02*
X153515000Y-89500000I-150000J0D01*
G01*
G37*
%TD.AperFunction*%
%TO.P,U3,6*%
%TA.AperFunction,SMDPad,CuDef*%
G36*
G01*
X154785000Y-89500000D02*
X154485000Y-89500000D01*
G75*
G02*
X154335000Y-89350000I0J150000D01*
G01*
X154335000Y-87700000D01*
G75*
G02*
X154485000Y-87550000I150000J0D01*
G01*
X154785000Y-87550000D01*
G75*
G02*
X154935000Y-87700000I0J-150000D01*
G01*
X154935000Y-89350000D01*
G75*
G02*
X154785000Y-89500000I-150000J0D01*
G01*
G37*
%TD.AperFunction*%
%TO.P,U3,5*%
%TO.N,Net-(C5-Pad1)*%
%TA.AperFunction,SMDPad,CuDef*%
G36*
G01*
X156055000Y-89500000D02*
X155755000Y-89500000D01*
G75*
G02*
X155605000Y-89350000I0J150000D01*
G01*
X155605000Y-87700000D01*
G75*
G02*
X155755000Y-87550000I150000J0D01*
G01*
X156055000Y-87550000D01*
G75*
G02*
X156205000Y-87700000I0J-150000D01*
G01*
X156205000Y-89350000D01*
G75*
G02*
X156055000Y-89500000I-150000J0D01*
G01*
G37*
%TD.AperFunction*%
%TO.P,U3,4*%
%TO.N,GND*%
%TA.AperFunction,SMDPad,CuDef*%
G36*
G01*
X156055000Y-94450000D02*
X155755000Y-94450000D01*
G75*
G02*
X155605000Y-94300000I0J150000D01*
G01*
X155605000Y-92650000D01*
G75*
G02*
X155755000Y-92500000I150000J0D01*
G01*
X156055000Y-92500000D01*
G75*
G02*
X156205000Y-92650000I0J-150000D01*
G01*
X156205000Y-94300000D01*
G75*
G02*
X156055000Y-94450000I-150000J0D01*
G01*
G37*
%TD.AperFunction*%
%TO.P,U3,3*%
%TO.N,Net-(C1-Pad1)*%
%TA.AperFunction,SMDPad,CuDef*%
G36*
G01*
X154785000Y-94450000D02*
X154485000Y-94450000D01*
G75*
G02*
X154335000Y-94300000I0J150000D01*
G01*
X154335000Y-92650000D01*
G75*
G02*
X154485000Y-92500000I150000J0D01*
G01*
X154785000Y-92500000D01*
G75*
G02*
X154935000Y-92650000I0J-150000D01*
G01*
X154935000Y-94300000D01*
G75*
G02*
X154785000Y-94450000I-150000J0D01*
G01*
G37*
%TD.AperFunction*%
%TO.P,U3,2*%
%TO.N,Net-(R7-Pad2)*%
%TA.AperFunction,SMDPad,CuDef*%
G36*
G01*
X153515000Y-94450000D02*
X153215000Y-94450000D01*
G75*
G02*
X153065000Y-94300000I0J150000D01*
G01*
X153065000Y-92650000D01*
G75*
G02*
X153215000Y-92500000I150000J0D01*
G01*
X153515000Y-92500000D01*
G75*
G02*
X153665000Y-92650000I0J-150000D01*
G01*
X153665000Y-94300000D01*
G75*
G02*
X153515000Y-94450000I-150000J0D01*
G01*
G37*
%TD.AperFunction*%
%TO.P,U3,1*%
%TA.AperFunction,SMDPad,CuDef*%
G36*
G01*
X152245000Y-94450000D02*
X151945000Y-94450000D01*
G75*
G02*
X151795000Y-94300000I0J150000D01*
G01*
X151795000Y-92650000D01*
G75*
G02*
X151945000Y-92500000I150000J0D01*
G01*
X152245000Y-92500000D01*
G75*
G02*
X152395000Y-92650000I0J-150000D01*
G01*
X152395000Y-94300000D01*
G75*
G02*
X152245000Y-94450000I-150000J0D01*
G01*
G37*
%TD.AperFunction*%
%TD*%
%TO.P,U2,8*%
%TO.N,+5V*%
%TA.AperFunction,SMDPad,CuDef*%
G36*
G01*
X136755000Y-96500000D02*
X137055000Y-96500000D01*
G75*
G02*
X137205000Y-96650000I0J-150000D01*
G01*
X137205000Y-98300000D01*
G75*
G02*
X137055000Y-98450000I-150000J0D01*
G01*
X136755000Y-98450000D01*
G75*
G02*
X136605000Y-98300000I0J150000D01*
G01*
X136605000Y-96650000D01*
G75*
G02*
X136755000Y-96500000I150000J0D01*
G01*
G37*
%TD.AperFunction*%
%TO.P,U2,7*%
%TO.N,Net-(C1-Pad1)*%
%TA.AperFunction,SMDPad,CuDef*%
G36*
G01*
X135485000Y-96500000D02*
X135785000Y-96500000D01*
G75*
G02*
X135935000Y-96650000I0J-150000D01*
G01*
X135935000Y-98300000D01*
G75*
G02*
X135785000Y-98450000I-150000J0D01*
G01*
X135485000Y-98450000D01*
G75*
G02*
X135335000Y-98300000I0J150000D01*
G01*
X135335000Y-96650000D01*
G75*
G02*
X135485000Y-96500000I150000J0D01*
G01*
G37*
%TD.AperFunction*%
%TO.P,U2,6*%
%TO.N,Net-(R5-Pad1)*%
%TA.AperFunction,SMDPad,CuDef*%
G36*
G01*
X134215000Y-96500000D02*
X134515000Y-96500000D01*
G75*
G02*
X134665000Y-96650000I0J-150000D01*
G01*
X134665000Y-98300000D01*
G75*
G02*
X134515000Y-98450000I-150000J0D01*
G01*
X134215000Y-98450000D01*
G75*
G02*
X134065000Y-98300000I0J150000D01*
G01*
X134065000Y-96650000D01*
G75*
G02*
X134215000Y-96500000I150000J0D01*
G01*
G37*
%TD.AperFunction*%
%TO.P,U2,5*%
%TO.N,/virtual_gnd*%
%TA.AperFunction,SMDPad,CuDef*%
G36*
G01*
X132945000Y-96500000D02*
X133245000Y-96500000D01*
G75*
G02*
X133395000Y-96650000I0J-150000D01*
G01*
X133395000Y-98300000D01*
G75*
G02*
X133245000Y-98450000I-150000J0D01*
G01*
X132945000Y-98450000D01*
G75*
G02*
X132795000Y-98300000I0J150000D01*
G01*
X132795000Y-96650000D01*
G75*
G02*
X132945000Y-96500000I150000J0D01*
G01*
G37*
%TD.AperFunction*%
%TO.P,U2,4*%
%TO.N,GND*%
%TA.AperFunction,SMDPad,CuDef*%
G36*
G01*
X132945000Y-91550000D02*
X133245000Y-91550000D01*
G75*
G02*
X133395000Y-91700000I0J-150000D01*
G01*
X133395000Y-93350000D01*
G75*
G02*
X133245000Y-93500000I-150000J0D01*
G01*
X132945000Y-93500000D01*
G75*
G02*
X132795000Y-93350000I0J150000D01*
G01*
X132795000Y-91700000D01*
G75*
G02*
X132945000Y-91550000I150000J0D01*
G01*
G37*
%TD.AperFunction*%
%TO.P,U2,3*%
%TO.N,/virtual_gnd*%
%TA.AperFunction,SMDPad,CuDef*%
G36*
G01*
X134215000Y-91550000D02*
X134515000Y-91550000D01*
G75*
G02*
X134665000Y-91700000I0J-150000D01*
G01*
X134665000Y-93350000D01*
G75*
G02*
X134515000Y-93500000I-150000J0D01*
G01*
X134215000Y-93500000D01*
G75*
G02*
X134065000Y-93350000I0J150000D01*
G01*
X134065000Y-91700000D01*
G75*
G02*
X134215000Y-91550000I150000J0D01*
G01*
G37*
%TD.AperFunction*%
%TO.P,U2,2*%
%TO.N,Net-(R1-Pad2)*%
%TA.AperFunction,SMDPad,CuDef*%
G36*
G01*
X135485000Y-91550000D02*
X135785000Y-91550000D01*
G75*
G02*
X135935000Y-91700000I0J-150000D01*
G01*
X135935000Y-93350000D01*
G75*
G02*
X135785000Y-93500000I-150000J0D01*
G01*
X135485000Y-93500000D01*
G75*
G02*
X135335000Y-93350000I0J150000D01*
G01*
X135335000Y-91700000D01*
G75*
G02*
X135485000Y-91550000I150000J0D01*
G01*
G37*
%TD.AperFunction*%
%TO.P,U2,1*%
%TO.N,Net-(R2-Pad1)*%
%TA.AperFunction,SMDPad,CuDef*%
G36*
G01*
X136755000Y-91550000D02*
X137055000Y-91550000D01*
G75*
G02*
X137205000Y-91700000I0J-150000D01*
G01*
X137205000Y-93350000D01*
G75*
G02*
X137055000Y-93500000I-150000J0D01*
G01*
X136755000Y-93500000D01*
G75*
G02*
X136605000Y-93350000I0J150000D01*
G01*
X136605000Y-91700000D01*
G75*
G02*
X136755000Y-91550000I150000J0D01*
G01*
G37*
%TD.AperFunction*%
%TD*%
%TO.P,C9,2*%
%TO.N,GND*%
%TA.AperFunction,SMDPad,CuDef*%
G36*
G01*
X121793750Y-86450000D02*
X122706250Y-86450000D01*
G75*
G02*
X122950000Y-86693750I0J-243750D01*
G01*
X122950000Y-87181250D01*
G75*
G02*
X122706250Y-87425000I-243750J0D01*
G01*
X121793750Y-87425000D01*
G75*
G02*
X121550000Y-87181250I0J243750D01*
G01*
X121550000Y-86693750D01*
G75*
G02*
X121793750Y-86450000I243750J0D01*
G01*
G37*
%TD.AperFunction*%
%TO.P,C9,1*%
%TO.N,+5V*%
%TA.AperFunction,SMDPad,CuDef*%
G36*
G01*
X121793750Y-84575000D02*
X122706250Y-84575000D01*
G75*
G02*
X122950000Y-84818750I0J-243750D01*
G01*
X122950000Y-85306250D01*
G75*
G02*
X122706250Y-85550000I-243750J0D01*
G01*
X121793750Y-85550000D01*
G75*
G02*
X121550000Y-85306250I0J243750D01*
G01*
X121550000Y-84818750D01*
G75*
G02*
X121793750Y-84575000I243750J0D01*
G01*
G37*
%TD.AperFunction*%
%TD*%
%TO.P,C8,2*%
%TO.N,GND*%
%TA.AperFunction,SMDPad,CuDef*%
G36*
G01*
X115343750Y-86450000D02*
X116256250Y-86450000D01*
G75*
G02*
X116500000Y-86693750I0J-243750D01*
G01*
X116500000Y-87181250D01*
G75*
G02*
X116256250Y-87425000I-243750J0D01*
G01*
X115343750Y-87425000D01*
G75*
G02*
X115100000Y-87181250I0J243750D01*
G01*
X115100000Y-86693750D01*
G75*
G02*
X115343750Y-86450000I243750J0D01*
G01*
G37*
%TD.AperFunction*%
%TO.P,C8,1*%
%TO.N,/9V_switched*%
%TA.AperFunction,SMDPad,CuDef*%
G36*
G01*
X115343750Y-84575000D02*
X116256250Y-84575000D01*
G75*
G02*
X116500000Y-84818750I0J-243750D01*
G01*
X116500000Y-85306250D01*
G75*
G02*
X116256250Y-85550000I-243750J0D01*
G01*
X115343750Y-85550000D01*
G75*
G02*
X115100000Y-85306250I0J243750D01*
G01*
X115100000Y-84818750D01*
G75*
G02*
X115343750Y-84575000I243750J0D01*
G01*
G37*
%TD.AperFunction*%
%TD*%
D14*
%TO.P,U1,8*%
%TO.N,+5V*%
X160905000Y-82700000D03*
%TO.P,U1,7*%
%TO.N,Net-(R1-Pad1)*%
X159635000Y-82700000D03*
%TO.P,U1,6*%
%TO.N,Net-(C5-Pad1)*%
X158365000Y-82700000D03*
%TO.P,U1,5*%
%TO.N,GND*%
X157095000Y-82700000D03*
%TO.P,U1,4*%
%TO.N,/current-*%
X157095000Y-77300000D03*
%TO.P,U1,3*%
X158365000Y-77300000D03*
%TO.P,U1,2*%
%TO.N,/current+*%
X159635000Y-77300000D03*
%TO.P,U1,1*%
X160905000Y-77300000D03*
%TD*%
D15*
%TO.P,J4,2*%
%TO.N,GND*%
X107460000Y-70000000D03*
%TO.P,J4,1*%
%TO.N,/9V*%
%TA.AperFunction,ComponentPad*%
G36*
G01*
X110870000Y-69149999D02*
X110870000Y-70850001D01*
G75*
G02*
X110620001Y-71100000I-249999J0D01*
G01*
X109379999Y-71100000D01*
G75*
G02*
X109130000Y-70850001I0J249999D01*
G01*
X109130000Y-69149999D01*
G75*
G02*
X109379999Y-68900000I249999J0D01*
G01*
X110620001Y-68900000D01*
G75*
G02*
X110870000Y-69149999I0J-249999D01*
G01*
G37*
%TD.AperFunction*%
%TD*%
D16*
%TO.P,SW3,SH*%
%TO.N,GND*%
X150100000Y-102000000D03*
X137900000Y-102000000D03*
D17*
%TO.P,SW3,4*%
%TO.N,Net-(C1-Pad2)*%
X148000000Y-102000000D03*
%TO.P,SW3,3*%
%TO.N,Net-(C2-Pad2)*%
X146000000Y-102000000D03*
%TO.P,SW3,2*%
%TO.N,Net-(R5-Pad1)*%
X144000000Y-102000000D03*
%TO.P,SW3,1*%
%TO.N,Net-(C3-Pad2)*%
%TA.AperFunction,ComponentPad*%
G36*
G01*
X139300000Y-102815200D02*
X139300000Y-101184800D01*
G75*
G02*
X139484800Y-101000000I184800J0D01*
G01*
X140515200Y-101000000D01*
G75*
G02*
X140700000Y-101184800I0J-184800D01*
G01*
X140700000Y-102815200D01*
G75*
G02*
X140515200Y-103000000I-184800J0D01*
G01*
X139484800Y-103000000D01*
G75*
G02*
X139300000Y-102815200I0J184800D01*
G01*
G37*
%TD.AperFunction*%
%TD*%
D16*
%TO.P,SW2,SH*%
%TO.N,GND*%
X132100000Y-102000000D03*
X119900000Y-102000000D03*
D17*
%TO.P,SW2,4*%
%TO.N,Net-(R4-Pad2)*%
X130000000Y-102000000D03*
%TO.P,SW2,3*%
%TO.N,Net-(R3-Pad2)*%
X128000000Y-102000000D03*
%TO.P,SW2,2*%
%TO.N,Net-(R1-Pad2)*%
X126000000Y-102000000D03*
%TO.P,SW2,1*%
%TO.N,Net-(R2-Pad2)*%
%TA.AperFunction,ComponentPad*%
G36*
G01*
X121300000Y-102815200D02*
X121300000Y-101184800D01*
G75*
G02*
X121484800Y-101000000I184800J0D01*
G01*
X122515200Y-101000000D01*
G75*
G02*
X122700000Y-101184800I0J-184800D01*
G01*
X122700000Y-102815200D01*
G75*
G02*
X122515200Y-103000000I-184800J0D01*
G01*
X121484800Y-103000000D01*
G75*
G02*
X121300000Y-102815200I0J184800D01*
G01*
G37*
%TD.AperFunction*%
%TD*%
D18*
%TO.P,SW1,3*%
%TO.N,Net-(SW1-Pad3)*%
X108000000Y-97000000D03*
%TO.P,SW1,2*%
%TO.N,/9V*%
X108000000Y-94500000D03*
D19*
%TO.P,SW1,SH*%
%TO.N,GND*%
X110200000Y-100100000D03*
X106800000Y-88800000D03*
%TO.P,SW1,1*%
%TO.N,/9V_switched*%
%TA.AperFunction,ComponentPad*%
G36*
G01*
X107125000Y-91250000D02*
X108875000Y-91250000D01*
G75*
G02*
X109250000Y-91625000I0J-375000D01*
G01*
X109250000Y-92375000D01*
G75*
G02*
X108875000Y-92750000I-375000J0D01*
G01*
X107125000Y-92750000D01*
G75*
G02*
X106750000Y-92375000I0J375000D01*
G01*
X106750000Y-91625000D01*
G75*
G02*
X107125000Y-91250000I375000J0D01*
G01*
G37*
%TD.AperFunction*%
%TD*%
D20*
%TO.P,J3,2*%
%TO.N,/virtual_gnd*%
X158200000Y-99680000D03*
X165800000Y-99680000D03*
%TO.P,J3,1*%
%TO.N,/vout*%
%TA.AperFunction,ComponentPad*%
G36*
G01*
X161150000Y-92305000D02*
X161150000Y-91455000D01*
G75*
G02*
X161575000Y-91030000I425000J0D01*
G01*
X162425000Y-91030000D01*
G75*
G02*
X162850000Y-91455000I0J-425000D01*
G01*
X162850000Y-92305000D01*
G75*
G02*
X162425000Y-92730000I-425000J0D01*
G01*
X161575000Y-92730000D01*
G75*
G02*
X161150000Y-92305000I0J425000D01*
G01*
G37*
%TD.AperFunction*%
%TD*%
%TO.P,C7,2*%
%TO.N,GND*%
%TA.AperFunction,SMDPad,CuDef*%
G36*
G01*
X150243750Y-89600000D02*
X150756250Y-89600000D01*
G75*
G02*
X150975000Y-89818750I0J-218750D01*
G01*
X150975000Y-90256250D01*
G75*
G02*
X150756250Y-90475000I-218750J0D01*
G01*
X150243750Y-90475000D01*
G75*
G02*
X150025000Y-90256250I0J218750D01*
G01*
X150025000Y-89818750D01*
G75*
G02*
X150243750Y-89600000I218750J0D01*
G01*
G37*
%TD.AperFunction*%
%TO.P,C7,1*%
%TO.N,+5V*%
%TA.AperFunction,SMDPad,CuDef*%
G36*
G01*
X150243750Y-88025000D02*
X150756250Y-88025000D01*
G75*
G02*
X150975000Y-88243750I0J-218750D01*
G01*
X150975000Y-88681250D01*
G75*
G02*
X150756250Y-88900000I-218750J0D01*
G01*
X150243750Y-88900000D01*
G75*
G02*
X150025000Y-88681250I0J218750D01*
G01*
X150025000Y-88243750D01*
G75*
G02*
X150243750Y-88025000I218750J0D01*
G01*
G37*
%TD.AperFunction*%
%TD*%
D15*
%TO.P,J5,2*%
%TO.N,GND*%
X117460000Y-70000000D03*
%TO.P,J5,1*%
%TO.N,/led_high*%
%TA.AperFunction,ComponentPad*%
G36*
G01*
X120870000Y-69149999D02*
X120870000Y-70850001D01*
G75*
G02*
X120620001Y-71100000I-249999J0D01*
G01*
X119379999Y-71100000D01*
G75*
G02*
X119130000Y-70850001I0J249999D01*
G01*
X119130000Y-69149999D01*
G75*
G02*
X119379999Y-68900000I249999J0D01*
G01*
X120620001Y-68900000D01*
G75*
G02*
X120870000Y-69149999I0J-249999D01*
G01*
G37*
%TD.AperFunction*%
%TD*%
D21*
%TO.P,J2,1*%
%TO.N,/current-*%
X153500000Y-67920000D03*
X153500000Y-73000000D03*
%TD*%
%TO.P,J1,1*%
%TO.N,/current+*%
X163000000Y-67920000D03*
X163000000Y-73000000D03*
%TD*%
D22*
%TO.P,U4,5*%
%TO.N,+5V*%
X120310000Y-85050000D03*
%TO.P,U4,4*%
%TO.N,Net-(U4-Pad4)*%
X120310000Y-86950000D03*
%TO.P,U4,3*%
%TO.N,/9V_switched*%
X117690000Y-86950000D03*
%TO.P,U4,2*%
%TO.N,GND*%
X117690000Y-86000000D03*
%TO.P,U4,1*%
%TO.N,/9V_switched*%
X117690000Y-85050000D03*
%TD*%
%TO.P,R8,2*%
%TO.N,/led_high*%
%TA.AperFunction,SMDPad,CuDef*%
G36*
G01*
X122506250Y-81900000D02*
X121993750Y-81900000D01*
G75*
G02*
X121775000Y-81681250I0J218750D01*
G01*
X121775000Y-81243750D01*
G75*
G02*
X121993750Y-81025000I218750J0D01*
G01*
X122506250Y-81025000D01*
G75*
G02*
X122725000Y-81243750I0J-218750D01*
G01*
X122725000Y-81681250D01*
G75*
G02*
X122506250Y-81900000I-218750J0D01*
G01*
G37*
%TD.AperFunction*%
%TO.P,R8,1*%
%TO.N,+5V*%
%TA.AperFunction,SMDPad,CuDef*%
G36*
G01*
X122506250Y-83475000D02*
X121993750Y-83475000D01*
G75*
G02*
X121775000Y-83256250I0J218750D01*
G01*
X121775000Y-82818750D01*
G75*
G02*
X121993750Y-82600000I218750J0D01*
G01*
X122506250Y-82600000D01*
G75*
G02*
X122725000Y-82818750I0J-218750D01*
G01*
X122725000Y-83256250D01*
G75*
G02*
X122506250Y-83475000I-218750J0D01*
G01*
G37*
%TD.AperFunction*%
%TD*%
%TO.P,R7,2*%
%TO.N,Net-(R7-Pad2)*%
%TA.AperFunction,SMDPad,CuDef*%
G36*
G01*
X158150000Y-92743750D02*
X158150000Y-93256250D01*
G75*
G02*
X157931250Y-93475000I-218750J0D01*
G01*
X157493750Y-93475000D01*
G75*
G02*
X157275000Y-93256250I0J218750D01*
G01*
X157275000Y-92743750D01*
G75*
G02*
X157493750Y-92525000I218750J0D01*
G01*
X157931250Y-92525000D01*
G75*
G02*
X158150000Y-92743750I0J-218750D01*
G01*
G37*
%TD.AperFunction*%
%TO.P,R7,1*%
%TO.N,/vout*%
%TA.AperFunction,SMDPad,CuDef*%
G36*
G01*
X159725000Y-92743750D02*
X159725000Y-93256250D01*
G75*
G02*
X159506250Y-93475000I-218750J0D01*
G01*
X159068750Y-93475000D01*
G75*
G02*
X158850000Y-93256250I0J218750D01*
G01*
X158850000Y-92743750D01*
G75*
G02*
X159068750Y-92525000I218750J0D01*
G01*
X159506250Y-92525000D01*
G75*
G02*
X159725000Y-92743750I0J-218750D01*
G01*
G37*
%TD.AperFunction*%
%TD*%
%TO.P,R6,2*%
%TO.N,Net-(C1-Pad1)*%
%TA.AperFunction,SMDPad,CuDef*%
G36*
G01*
X142256250Y-97650000D02*
X141743750Y-97650000D01*
G75*
G02*
X141525000Y-97431250I0J218750D01*
G01*
X141525000Y-96993750D01*
G75*
G02*
X141743750Y-96775000I218750J0D01*
G01*
X142256250Y-96775000D01*
G75*
G02*
X142475000Y-96993750I0J-218750D01*
G01*
X142475000Y-97431250D01*
G75*
G02*
X142256250Y-97650000I-218750J0D01*
G01*
G37*
%TD.AperFunction*%
%TO.P,R6,1*%
%TO.N,Net-(R5-Pad1)*%
%TA.AperFunction,SMDPad,CuDef*%
G36*
G01*
X142256250Y-99225000D02*
X141743750Y-99225000D01*
G75*
G02*
X141525000Y-99006250I0J218750D01*
G01*
X141525000Y-98568750D01*
G75*
G02*
X141743750Y-98350000I218750J0D01*
G01*
X142256250Y-98350000D01*
G75*
G02*
X142475000Y-98568750I0J-218750D01*
G01*
X142475000Y-99006250D01*
G75*
G02*
X142256250Y-99225000I-218750J0D01*
G01*
G37*
%TD.AperFunction*%
%TD*%
%TO.P,R5,1*%
%TO.N,Net-(R5-Pad1)*%
%TA.AperFunction,SMDPad,CuDef*%
G36*
G01*
X138756250Y-94475000D02*
X138243750Y-94475000D01*
G75*
G02*
X138025000Y-94256250I0J218750D01*
G01*
X138025000Y-93818750D01*
G75*
G02*
X138243750Y-93600000I218750J0D01*
G01*
X138756250Y-93600000D01*
G75*
G02*
X138975000Y-93818750I0J-218750D01*
G01*
X138975000Y-94256250D01*
G75*
G02*
X138756250Y-94475000I-218750J0D01*
G01*
G37*
%TD.AperFunction*%
%TO.P,R5,2*%
%TO.N,Net-(R2-Pad1)*%
%TA.AperFunction,SMDPad,CuDef*%
G36*
G01*
X138756250Y-92900000D02*
X138243750Y-92900000D01*
G75*
G02*
X138025000Y-92681250I0J218750D01*
G01*
X138025000Y-92243750D01*
G75*
G02*
X138243750Y-92025000I218750J0D01*
G01*
X138756250Y-92025000D01*
G75*
G02*
X138975000Y-92243750I0J-218750D01*
G01*
X138975000Y-92681250D01*
G75*
G02*
X138756250Y-92900000I-218750J0D01*
G01*
G37*
%TD.AperFunction*%
%TD*%
%TO.P,R4,2*%
%TO.N,Net-(R4-Pad2)*%
%TA.AperFunction,SMDPad,CuDef*%
G36*
G01*
X129743750Y-98350000D02*
X130256250Y-98350000D01*
G75*
G02*
X130475000Y-98568750I0J-218750D01*
G01*
X130475000Y-99006250D01*
G75*
G02*
X130256250Y-99225000I-218750J0D01*
G01*
X129743750Y-99225000D01*
G75*
G02*
X129525000Y-99006250I0J218750D01*
G01*
X129525000Y-98568750D01*
G75*
G02*
X129743750Y-98350000I218750J0D01*
G01*
G37*
%TD.AperFunction*%
%TO.P,R4,1*%
%TO.N,Net-(R2-Pad1)*%
%TA.AperFunction,SMDPad,CuDef*%
G36*
G01*
X129743750Y-96775000D02*
X130256250Y-96775000D01*
G75*
G02*
X130475000Y-96993750I0J-218750D01*
G01*
X130475000Y-97431250D01*
G75*
G02*
X130256250Y-97650000I-218750J0D01*
G01*
X129743750Y-97650000D01*
G75*
G02*
X129525000Y-97431250I0J218750D01*
G01*
X129525000Y-96993750D01*
G75*
G02*
X129743750Y-96775000I218750J0D01*
G01*
G37*
%TD.AperFunction*%
%TD*%
%TO.P,R3,2*%
%TO.N,Net-(R3-Pad2)*%
%TA.AperFunction,SMDPad,CuDef*%
G36*
G01*
X127743750Y-98350000D02*
X128256250Y-98350000D01*
G75*
G02*
X128475000Y-98568750I0J-218750D01*
G01*
X128475000Y-99006250D01*
G75*
G02*
X128256250Y-99225000I-218750J0D01*
G01*
X127743750Y-99225000D01*
G75*
G02*
X127525000Y-99006250I0J218750D01*
G01*
X127525000Y-98568750D01*
G75*
G02*
X127743750Y-98350000I218750J0D01*
G01*
G37*
%TD.AperFunction*%
%TO.P,R3,1*%
%TO.N,Net-(R2-Pad1)*%
%TA.AperFunction,SMDPad,CuDef*%
G36*
G01*
X127743750Y-96775000D02*
X128256250Y-96775000D01*
G75*
G02*
X128475000Y-96993750I0J-218750D01*
G01*
X128475000Y-97431250D01*
G75*
G02*
X128256250Y-97650000I-218750J0D01*
G01*
X127743750Y-97650000D01*
G75*
G02*
X127525000Y-97431250I0J218750D01*
G01*
X127525000Y-96993750D01*
G75*
G02*
X127743750Y-96775000I218750J0D01*
G01*
G37*
%TD.AperFunction*%
%TD*%
%TO.P,R2,2*%
%TO.N,Net-(R2-Pad2)*%
%TA.AperFunction,SMDPad,CuDef*%
G36*
G01*
X125743750Y-98350000D02*
X126256250Y-98350000D01*
G75*
G02*
X126475000Y-98568750I0J-218750D01*
G01*
X126475000Y-99006250D01*
G75*
G02*
X126256250Y-99225000I-218750J0D01*
G01*
X125743750Y-99225000D01*
G75*
G02*
X125525000Y-99006250I0J218750D01*
G01*
X125525000Y-98568750D01*
G75*
G02*
X125743750Y-98350000I218750J0D01*
G01*
G37*
%TD.AperFunction*%
%TO.P,R2,1*%
%TO.N,Net-(R2-Pad1)*%
%TA.AperFunction,SMDPad,CuDef*%
G36*
G01*
X125743750Y-96775000D02*
X126256250Y-96775000D01*
G75*
G02*
X126475000Y-96993750I0J-218750D01*
G01*
X126475000Y-97431250D01*
G75*
G02*
X126256250Y-97650000I-218750J0D01*
G01*
X125743750Y-97650000D01*
G75*
G02*
X125525000Y-97431250I0J218750D01*
G01*
X125525000Y-96993750D01*
G75*
G02*
X125743750Y-96775000I218750J0D01*
G01*
G37*
%TD.AperFunction*%
%TD*%
%TO.P,R1,2*%
%TO.N,Net-(R1-Pad2)*%
%TA.AperFunction,SMDPad,CuDef*%
G36*
G01*
X121743750Y-98350000D02*
X122256250Y-98350000D01*
G75*
G02*
X122475000Y-98568750I0J-218750D01*
G01*
X122475000Y-99006250D01*
G75*
G02*
X122256250Y-99225000I-218750J0D01*
G01*
X121743750Y-99225000D01*
G75*
G02*
X121525000Y-99006250I0J218750D01*
G01*
X121525000Y-98568750D01*
G75*
G02*
X121743750Y-98350000I218750J0D01*
G01*
G37*
%TD.AperFunction*%
%TO.P,R1,1*%
%TO.N,Net-(R1-Pad1)*%
%TA.AperFunction,SMDPad,CuDef*%
G36*
G01*
X121743750Y-96775000D02*
X122256250Y-96775000D01*
G75*
G02*
X122475000Y-96993750I0J-218750D01*
G01*
X122475000Y-97431250D01*
G75*
G02*
X122256250Y-97650000I-218750J0D01*
G01*
X121743750Y-97650000D01*
G75*
G02*
X121525000Y-97431250I0J218750D01*
G01*
X121525000Y-96993750D01*
G75*
G02*
X121743750Y-96775000I218750J0D01*
G01*
G37*
%TD.AperFunction*%
%TD*%
%TO.P,C6,1*%
%TO.N,+5V*%
%TA.AperFunction,SMDPad,CuDef*%
G36*
G01*
X138756250Y-97725000D02*
X138243750Y-97725000D01*
G75*
G02*
X138025000Y-97506250I0J218750D01*
G01*
X138025000Y-97068750D01*
G75*
G02*
X138243750Y-96850000I218750J0D01*
G01*
X138756250Y-96850000D01*
G75*
G02*
X138975000Y-97068750I0J-218750D01*
G01*
X138975000Y-97506250D01*
G75*
G02*
X138756250Y-97725000I-218750J0D01*
G01*
G37*
%TD.AperFunction*%
%TO.P,C6,2*%
%TO.N,GND*%
%TA.AperFunction,SMDPad,CuDef*%
G36*
G01*
X138756250Y-96150000D02*
X138243750Y-96150000D01*
G75*
G02*
X138025000Y-95931250I0J218750D01*
G01*
X138025000Y-95493750D01*
G75*
G02*
X138243750Y-95275000I218750J0D01*
G01*
X138756250Y-95275000D01*
G75*
G02*
X138975000Y-95493750I0J-218750D01*
G01*
X138975000Y-95931250D01*
G75*
G02*
X138756250Y-96150000I-218750J0D01*
G01*
G37*
%TD.AperFunction*%
%TD*%
%TO.P,C5,1*%
%TO.N,Net-(C5-Pad1)*%
%TA.AperFunction,SMDPad,CuDef*%
G36*
G01*
X158725000Y-84493750D02*
X158725000Y-85006250D01*
G75*
G02*
X158506250Y-85225000I-218750J0D01*
G01*
X158068750Y-85225000D01*
G75*
G02*
X157850000Y-85006250I0J218750D01*
G01*
X157850000Y-84493750D01*
G75*
G02*
X158068750Y-84275000I218750J0D01*
G01*
X158506250Y-84275000D01*
G75*
G02*
X158725000Y-84493750I0J-218750D01*
G01*
G37*
%TD.AperFunction*%
%TO.P,C5,2*%
%TO.N,GND*%
%TA.AperFunction,SMDPad,CuDef*%
G36*
G01*
X157150000Y-84493750D02*
X157150000Y-85006250D01*
G75*
G02*
X156931250Y-85225000I-218750J0D01*
G01*
X156493750Y-85225000D01*
G75*
G02*
X156275000Y-85006250I0J218750D01*
G01*
X156275000Y-84493750D01*
G75*
G02*
X156493750Y-84275000I218750J0D01*
G01*
X156931250Y-84275000D01*
G75*
G02*
X157150000Y-84493750I0J-218750D01*
G01*
G37*
%TD.AperFunction*%
%TD*%
%TO.P,C4,1*%
%TO.N,GND*%
%TA.AperFunction,SMDPad,CuDef*%
G36*
G01*
X162856250Y-85025000D02*
X162343750Y-85025000D01*
G75*
G02*
X162125000Y-84806250I0J218750D01*
G01*
X162125000Y-84368750D01*
G75*
G02*
X162343750Y-84150000I218750J0D01*
G01*
X162856250Y-84150000D01*
G75*
G02*
X163075000Y-84368750I0J-218750D01*
G01*
X163075000Y-84806250D01*
G75*
G02*
X162856250Y-85025000I-218750J0D01*
G01*
G37*
%TD.AperFunction*%
%TO.P,C4,2*%
%TO.N,+5V*%
%TA.AperFunction,SMDPad,CuDef*%
G36*
G01*
X162856250Y-83450000D02*
X162343750Y-83450000D01*
G75*
G02*
X162125000Y-83231250I0J218750D01*
G01*
X162125000Y-82793750D01*
G75*
G02*
X162343750Y-82575000I218750J0D01*
G01*
X162856250Y-82575000D01*
G75*
G02*
X163075000Y-82793750I0J-218750D01*
G01*
X163075000Y-83231250D01*
G75*
G02*
X162856250Y-83450000I-218750J0D01*
G01*
G37*
%TD.AperFunction*%
%TD*%
%TO.P,C3,2*%
%TO.N,Net-(C3-Pad2)*%
%TA.AperFunction,SMDPad,CuDef*%
G36*
G01*
X143743750Y-98350000D02*
X144256250Y-98350000D01*
G75*
G02*
X144475000Y-98568750I0J-218750D01*
G01*
X144475000Y-99006250D01*
G75*
G02*
X144256250Y-99225000I-218750J0D01*
G01*
X143743750Y-99225000D01*
G75*
G02*
X143525000Y-99006250I0J218750D01*
G01*
X143525000Y-98568750D01*
G75*
G02*
X143743750Y-98350000I218750J0D01*
G01*
G37*
%TD.AperFunction*%
%TO.P,C3,1*%
%TO.N,Net-(C1-Pad1)*%
%TA.AperFunction,SMDPad,CuDef*%
G36*
G01*
X143743750Y-96775000D02*
X144256250Y-96775000D01*
G75*
G02*
X144475000Y-96993750I0J-218750D01*
G01*
X144475000Y-97431250D01*
G75*
G02*
X144256250Y-97650000I-218750J0D01*
G01*
X143743750Y-97650000D01*
G75*
G02*
X143525000Y-97431250I0J218750D01*
G01*
X143525000Y-96993750D01*
G75*
G02*
X143743750Y-96775000I218750J0D01*
G01*
G37*
%TD.AperFunction*%
%TD*%
%TO.P,C2,2*%
%TO.N,Net-(C2-Pad2)*%
%TA.AperFunction,SMDPad,CuDef*%
G36*
G01*
X145743750Y-98350000D02*
X146256250Y-98350000D01*
G75*
G02*
X146475000Y-98568750I0J-218750D01*
G01*
X146475000Y-99006250D01*
G75*
G02*
X146256250Y-99225000I-218750J0D01*
G01*
X145743750Y-99225000D01*
G75*
G02*
X145525000Y-99006250I0J218750D01*
G01*
X145525000Y-98568750D01*
G75*
G02*
X145743750Y-98350000I218750J0D01*
G01*
G37*
%TD.AperFunction*%
%TO.P,C2,1*%
%TO.N,Net-(C1-Pad1)*%
%TA.AperFunction,SMDPad,CuDef*%
G36*
G01*
X145743750Y-96775000D02*
X146256250Y-96775000D01*
G75*
G02*
X146475000Y-96993750I0J-218750D01*
G01*
X146475000Y-97431250D01*
G75*
G02*
X146256250Y-97650000I-218750J0D01*
G01*
X145743750Y-97650000D01*
G75*
G02*
X145525000Y-97431250I0J218750D01*
G01*
X145525000Y-96993750D01*
G75*
G02*
X145743750Y-96775000I218750J0D01*
G01*
G37*
%TD.AperFunction*%
%TD*%
%TO.P,C1,2*%
%TO.N,Net-(C1-Pad2)*%
%TA.AperFunction,SMDPad,CuDef*%
G36*
G01*
X147743750Y-98350000D02*
X148256250Y-98350000D01*
G75*
G02*
X148475000Y-98568750I0J-218750D01*
G01*
X148475000Y-99006250D01*
G75*
G02*
X148256250Y-99225000I-218750J0D01*
G01*
X147743750Y-99225000D01*
G75*
G02*
X147525000Y-99006250I0J218750D01*
G01*
X147525000Y-98568750D01*
G75*
G02*
X147743750Y-98350000I218750J0D01*
G01*
G37*
%TD.AperFunction*%
%TO.P,C1,1*%
%TO.N,Net-(C1-Pad1)*%
%TA.AperFunction,SMDPad,CuDef*%
G36*
G01*
X147743750Y-96775000D02*
X148256250Y-96775000D01*
G75*
G02*
X148475000Y-96993750I0J-218750D01*
G01*
X148475000Y-97431250D01*
G75*
G02*
X148256250Y-97650000I-218750J0D01*
G01*
X147743750Y-97650000D01*
G75*
G02*
X147525000Y-97431250I0J218750D01*
G01*
X147525000Y-96993750D01*
G75*
G02*
X147743750Y-96775000I218750J0D01*
G01*
G37*
%TD.AperFunction*%
%TD*%
D23*
%TO.N,*%
X173500000Y-66000000D03*
X152000000Y-66000000D03*
D24*
%TO.N,+5V*%
X132250000Y-88500000D03*
X130250000Y-86500000D03*
D23*
X140500000Y-91752410D03*
X139000000Y-90250000D03*
%TO.N,GND*%
X155750000Y-82750000D03*
X155500000Y-84750000D03*
X115800000Y-88200000D03*
X122300000Y-88200000D03*
X161200000Y-84800000D03*
X139500000Y-95000000D03*
X132000000Y-92000000D03*
X155750000Y-95250000D03*
X149250000Y-90000000D03*
%TO.N,/current+*%
X160000000Y-66000000D03*
X160000000Y-67500000D03*
X160000000Y-69000000D03*
X160000000Y-70500000D03*
X160000000Y-72000000D03*
X160000000Y-73500000D03*
X160000000Y-75000000D03*
X162500000Y-78000000D03*
X164000000Y-78000000D03*
X165500000Y-78000000D03*
X167000000Y-78000000D03*
X168500000Y-78000000D03*
X173500000Y-78000000D03*
X173500000Y-70500000D03*
X173500000Y-69000000D03*
X173500000Y-67500000D03*
X172000000Y-66000000D03*
X161500000Y-66000000D03*
X164500000Y-66000000D03*
X166000000Y-66000000D03*
X167500000Y-66000000D03*
X169000000Y-66000000D03*
X170500000Y-66000000D03*
%TO.N,/current-*%
X158000000Y-66000000D03*
X156500000Y-66000000D03*
X155000000Y-66000000D03*
X150500000Y-66000000D03*
X149000000Y-66000000D03*
X147500000Y-66000000D03*
X146000000Y-66000000D03*
X146000000Y-78000000D03*
X147500000Y-78000000D03*
X149000000Y-78000000D03*
X150500000Y-78000000D03*
X152000000Y-78000000D03*
X153500000Y-78000000D03*
X155000000Y-78000000D03*
X144500000Y-66000000D03*
X144500000Y-67500000D03*
X144500000Y-69000000D03*
X144500000Y-70500000D03*
X144500000Y-72000000D03*
X144500000Y-73500000D03*
X144500000Y-75000000D03*
X144500000Y-76500000D03*
X144500000Y-78000000D03*
X158000000Y-67500000D03*
X158000000Y-69000000D03*
X158000000Y-70500000D03*
X158000000Y-72000000D03*
X158000000Y-73500000D03*
X158000000Y-75000000D03*
%TO.N,/virtual_gnd*%
X133750000Y-94000000D03*
X133750000Y-96000000D03*
%TD*%
D25*
%TO.N,Net-(C1-Pad2)*%
X148000000Y-98787500D02*
X148000000Y-102000000D01*
%TO.N,Net-(C1-Pad1)*%
X148000000Y-97212500D02*
X146000000Y-97212500D01*
X146000000Y-97212500D02*
X144000000Y-97212500D01*
X144000000Y-97212500D02*
X142000000Y-97212500D01*
X135635000Y-97475000D02*
X135635000Y-98450000D01*
X135635000Y-98450000D02*
X136185000Y-99000000D01*
X140212500Y-99000000D02*
X142000000Y-97212500D01*
X136185000Y-99000000D02*
X140212500Y-99000000D01*
X151872500Y-97212500D02*
X148000000Y-97212500D01*
X154635000Y-94450000D02*
X151872500Y-97212500D01*
X154635000Y-93475000D02*
X154635000Y-94450000D01*
%TO.N,Net-(C2-Pad2)*%
X146000000Y-98787500D02*
X146000000Y-102000000D01*
%TO.N,Net-(C3-Pad2)*%
X140787500Y-102000000D02*
X140000000Y-102000000D01*
X144000000Y-98787500D02*
X140787500Y-102000000D01*
D26*
%TO.N,+5V*%
X160905000Y-82700000D02*
X160800000Y-82700000D01*
X122087500Y-85050000D02*
X122250000Y-85212500D01*
X120310000Y-85050000D02*
X122087500Y-85050000D01*
X122250000Y-85212500D02*
X122250000Y-83037500D01*
D27*
X128962500Y-85212500D02*
X122250000Y-85212500D01*
X130250000Y-86500000D02*
X128962500Y-85212500D01*
D26*
X132287500Y-88462500D02*
X132250000Y-88500000D01*
X123462500Y-84000000D02*
X122250000Y-85212500D01*
X152000000Y-84000000D02*
X123462500Y-84000000D01*
X155400000Y-80600000D02*
X152000000Y-84000000D01*
X160100000Y-80600000D02*
X155400000Y-80600000D01*
X160905000Y-81405000D02*
X160100000Y-80600000D01*
X160905000Y-82700000D02*
X160905000Y-81405000D01*
D27*
X161217500Y-83012500D02*
X160905000Y-82700000D01*
X162600000Y-83012500D02*
X161217500Y-83012500D01*
D28*
X137092500Y-97287500D02*
X136905000Y-97475000D01*
X138500000Y-97287500D02*
X137092500Y-97287500D01*
D27*
X143000000Y-88462500D02*
X132287500Y-88462500D01*
X143000000Y-88462500D02*
X150500000Y-88462500D01*
D28*
X150562500Y-88525000D02*
X150500000Y-88462500D01*
X152095000Y-88525000D02*
X150562500Y-88525000D01*
X138500000Y-97287500D02*
X138975000Y-97287500D01*
X140500000Y-95762500D02*
X140500000Y-91752410D01*
X138975000Y-97287500D02*
X140500000Y-95762500D01*
D26*
X134000000Y-90250000D02*
X139000000Y-90250000D01*
X132250000Y-88500000D02*
X134000000Y-90250000D01*
D28*
%TO.N,GND*%
X155800000Y-82700000D02*
X155750000Y-82750000D01*
X157095000Y-82700000D02*
X155800000Y-82700000D01*
X156712500Y-84750000D02*
X155500000Y-84750000D01*
X116737500Y-86000000D02*
X115800000Y-86937500D01*
X117690000Y-86000000D02*
X116737500Y-86000000D01*
X115800000Y-86937500D02*
X115800000Y-88200000D01*
X122250000Y-88150000D02*
X122300000Y-88200000D01*
X122250000Y-86937500D02*
X122250000Y-88150000D01*
X161412500Y-84587500D02*
X161200000Y-84800000D01*
X162600000Y-84587500D02*
X161412500Y-84587500D01*
X138787500Y-95712500D02*
X139500000Y-95000000D01*
X138500000Y-95712500D02*
X138787500Y-95712500D01*
X132525000Y-92525000D02*
X132000000Y-92000000D01*
X133095000Y-92525000D02*
X132525000Y-92525000D01*
X155905000Y-95095000D02*
X155750000Y-95250000D01*
X155905000Y-93475000D02*
X155905000Y-95095000D01*
X149287500Y-90037500D02*
X149250000Y-90000000D01*
X150500000Y-90037500D02*
X149287500Y-90037500D01*
D25*
%TO.N,Net-(C5-Pad1)*%
X158287500Y-82777500D02*
X158365000Y-82700000D01*
X158287500Y-84750000D02*
X158287500Y-82777500D01*
X155905000Y-87132500D02*
X158287500Y-84750000D01*
X155905000Y-88525000D02*
X155905000Y-87132500D01*
%TO.N,Net-(R1-Pad2)*%
X124174990Y-103825010D02*
X126000000Y-102000000D01*
X118000000Y-103000000D02*
X118825010Y-103825010D01*
X118000000Y-101000000D02*
X118000000Y-103000000D01*
X118825010Y-103825010D02*
X124174990Y-103825010D01*
X120212500Y-98787500D02*
X118000000Y-101000000D01*
X122000000Y-98787500D02*
X120212500Y-98787500D01*
X134750000Y-94750000D02*
X126037500Y-94750000D01*
X126037500Y-94750000D02*
X122000000Y-98787500D01*
X135635000Y-93865000D02*
X134750000Y-94750000D01*
X135635000Y-92525000D02*
X135635000Y-93865000D01*
%TO.N,Net-(R1-Pad1)*%
X159635000Y-81635000D02*
X159635000Y-82700000D01*
X159300000Y-81300000D02*
X159635000Y-81635000D01*
X151156250Y-86000000D02*
X155856250Y-81300000D01*
X132775000Y-86000000D02*
X151156250Y-86000000D01*
X155856250Y-81300000D02*
X159300000Y-81300000D01*
X122000000Y-96775000D02*
X132775000Y-86000000D01*
X122000000Y-97212500D02*
X122000000Y-96775000D01*
%TO.N,Net-(R2-Pad2)*%
X122787500Y-102000000D02*
X126000000Y-98787500D01*
X122000000Y-102000000D02*
X122787500Y-102000000D01*
%TO.N,Net-(R2-Pad1)*%
X126000000Y-97212500D02*
X128000000Y-97212500D01*
X128000000Y-97212500D02*
X130000000Y-97212500D01*
X138437500Y-92525000D02*
X138500000Y-92462500D01*
X136905000Y-92525000D02*
X138437500Y-92525000D01*
X131962500Y-95250000D02*
X130000000Y-97212500D01*
X136905000Y-93595000D02*
X135250000Y-95250000D01*
X135250000Y-95250000D02*
X131962500Y-95250000D01*
X136905000Y-92525000D02*
X136905000Y-93595000D01*
%TO.N,Net-(R3-Pad2)*%
X128000000Y-98787500D02*
X128000000Y-102000000D01*
%TO.N,Net-(R4-Pad2)*%
X130000000Y-102000000D02*
X130000000Y-98787500D01*
%TO.N,Net-(R5-Pad1)*%
X134365000Y-97475000D02*
X134365000Y-101365000D01*
X142174990Y-103825010D02*
X144000000Y-102000000D01*
X136825010Y-103825010D02*
X142174990Y-103825010D01*
X134365000Y-101365000D02*
X136825010Y-103825010D01*
X134365000Y-98450000D02*
X134365000Y-97475000D01*
X135915000Y-100000000D02*
X134365000Y-98450000D01*
X140787500Y-100000000D02*
X135915000Y-100000000D01*
X142000000Y-98787500D02*
X140787500Y-100000000D01*
X134365000Y-96866616D02*
X134365000Y-97475000D01*
X137194116Y-94037500D02*
X134365000Y-96866616D01*
X138500000Y-94037500D02*
X137194116Y-94037500D01*
D28*
%TO.N,Net-(R7-Pad2)*%
X153365000Y-92500000D02*
X153365000Y-93475000D01*
X153717410Y-92147590D02*
X153365000Y-92500000D01*
X156860090Y-92147590D02*
X153717410Y-92147590D01*
X157712500Y-93000000D02*
X156860090Y-92147590D01*
X153365000Y-93475000D02*
X152095000Y-93475000D01*
%TO.N,/9V_switched*%
X117602500Y-84962500D02*
X117690000Y-85050000D01*
X116000000Y-84962500D02*
X117602500Y-84962500D01*
X118706401Y-86848399D02*
X118604800Y-86950000D01*
X118706401Y-85151601D02*
X118706401Y-86848399D01*
X118604800Y-86950000D02*
X117690000Y-86950000D01*
X118604800Y-85050000D02*
X118706401Y-85151601D01*
X117690000Y-85050000D02*
X118604800Y-85050000D01*
D27*
X114937500Y-85062500D02*
X115800000Y-85062500D01*
X108000000Y-92000000D02*
X114937500Y-85062500D01*
X115812500Y-85050000D02*
X115800000Y-85062500D01*
X117690000Y-85050000D02*
X115812500Y-85050000D01*
D29*
%TO.N,/current+*%
X159635000Y-77300000D02*
X160905000Y-77300000D01*
X160905000Y-75095000D02*
X163000000Y-73000000D01*
X160905000Y-77300000D02*
X160905000Y-75095000D01*
X163000000Y-67920000D02*
X163000000Y-73000000D01*
%TO.N,/current-*%
X157095000Y-77300000D02*
X158314190Y-77300000D01*
X157095000Y-76595000D02*
X153500000Y-73000000D01*
X157095000Y-77300000D02*
X157095000Y-76595000D01*
X153500000Y-73000000D02*
X153500000Y-67920000D01*
D26*
%TO.N,/virtual_gnd*%
X158200000Y-99680000D02*
X165800000Y-99680000D01*
D28*
X134365000Y-93385000D02*
X133750000Y-94000000D01*
X134365000Y-92525000D02*
X134365000Y-93385000D01*
X133095000Y-96655000D02*
X133095000Y-97475000D01*
X133750000Y-96000000D02*
X133095000Y-96655000D01*
X154635000Y-88525000D02*
X153365000Y-88525000D01*
X153365000Y-88525000D02*
X153365000Y-89885000D01*
X153365000Y-89885000D02*
X152250000Y-91000000D01*
X139611154Y-91002410D02*
X134912590Y-91002410D01*
X152250000Y-91000000D02*
X139613564Y-91000000D01*
X134912590Y-91002410D02*
X134365000Y-91550000D01*
X139613564Y-91000000D02*
X139611154Y-91002410D01*
X134365000Y-91550000D02*
X134365000Y-92525000D01*
D26*
%TO.N,/vout*%
X160880000Y-93000000D02*
X162000000Y-91880000D01*
X159287500Y-93000000D02*
X160880000Y-93000000D01*
D30*
%TO.N,/9V*%
X106500000Y-94500000D02*
X104750000Y-92750000D01*
X108000000Y-94500000D02*
X106500000Y-94500000D01*
X104750000Y-92750000D02*
X104750000Y-79000000D01*
X104750000Y-79000000D02*
X110000000Y-73750000D01*
X110000000Y-73750000D02*
X110000000Y-70000000D01*
D26*
%TO.N,/led_high*%
X122250000Y-72250000D02*
X120000000Y-70000000D01*
X122250000Y-81462500D02*
X122250000Y-72250000D01*
%TD*%
D31*
%TO.N,/current-*%
X151004774Y-65698102D02*
X150965000Y-65898061D01*
X150965000Y-66101939D01*
X151004774Y-66301898D01*
X151082795Y-66490256D01*
X151196063Y-66659774D01*
X151340226Y-66803937D01*
X151509744Y-66917205D01*
X151698102Y-66995226D01*
X151840672Y-67023585D01*
X151730567Y-67244126D01*
X151632710Y-67602312D01*
X151606611Y-67972706D01*
X151653275Y-68341075D01*
X151770906Y-68693262D01*
X151896423Y-68928086D01*
X152186395Y-69054000D01*
X153320395Y-67920000D01*
X153679605Y-67920000D01*
X154813605Y-69054000D01*
X155103577Y-68928086D01*
X155269433Y-68595874D01*
X155367290Y-68237688D01*
X155393389Y-67867294D01*
X155346725Y-67498925D01*
X155229094Y-67146738D01*
X155103577Y-66911914D01*
X154813605Y-66786000D01*
X153679605Y-67920000D01*
X153320395Y-67920000D01*
X153306253Y-67905858D01*
X153485858Y-67726253D01*
X153500000Y-67740395D01*
X154634000Y-66606395D01*
X154508086Y-66316423D01*
X154175874Y-66150567D01*
X153817688Y-66052710D01*
X153447294Y-66026611D01*
X153078925Y-66073275D01*
X153035000Y-66087946D01*
X153035000Y-65898061D01*
X152995226Y-65698102D01*
X152979444Y-65660000D01*
X158437627Y-65660000D01*
X158453615Y-65733496D01*
X158473000Y-66004530D01*
X158473000Y-76995470D01*
X158453615Y-77266504D01*
X158414351Y-77447000D01*
X158238000Y-77447000D01*
X158238000Y-77427000D01*
X157222000Y-77427000D01*
X157222000Y-78551250D01*
X157375212Y-78704462D01*
X157127593Y-78796819D01*
X156866504Y-78853615D01*
X156595470Y-78873000D01*
X145504530Y-78873000D01*
X145233496Y-78853615D01*
X144972407Y-78796819D01*
X144722060Y-78703444D01*
X144487555Y-78575395D01*
X144273662Y-78415276D01*
X144084724Y-78226338D01*
X143971434Y-78075000D01*
X156156928Y-78075000D01*
X156169188Y-78199482D01*
X156205498Y-78319180D01*
X156264463Y-78429494D01*
X156343815Y-78526185D01*
X156440506Y-78605537D01*
X156550820Y-78664502D01*
X156670518Y-78700812D01*
X156795000Y-78713072D01*
X156809250Y-78710000D01*
X156968000Y-78551250D01*
X156968000Y-77427000D01*
X156318750Y-77427000D01*
X156160000Y-77585750D01*
X156156928Y-78075000D01*
X143971434Y-78075000D01*
X143924605Y-78012445D01*
X143796556Y-77777940D01*
X143703181Y-77527593D01*
X143646385Y-77266504D01*
X143627000Y-76995470D01*
X143627000Y-76525000D01*
X156156928Y-76525000D01*
X156160000Y-77014250D01*
X156318750Y-77173000D01*
X156968000Y-77173000D01*
X156968000Y-76048750D01*
X157222000Y-76048750D01*
X157222000Y-77173000D01*
X158238000Y-77173000D01*
X158238000Y-76048750D01*
X158079250Y-75890000D01*
X158065000Y-75886928D01*
X157940518Y-75899188D01*
X157820820Y-75935498D01*
X157730000Y-75984043D01*
X157639180Y-75935498D01*
X157519482Y-75899188D01*
X157395000Y-75886928D01*
X157380750Y-75890000D01*
X157222000Y-76048750D01*
X156968000Y-76048750D01*
X156809250Y-75890000D01*
X156795000Y-75886928D01*
X156670518Y-75899188D01*
X156550820Y-75935498D01*
X156440506Y-75994463D01*
X156343815Y-76073815D01*
X156264463Y-76170506D01*
X156205498Y-76280820D01*
X156169188Y-76400518D01*
X156156928Y-76525000D01*
X143627000Y-76525000D01*
X143627000Y-74313605D01*
X152366000Y-74313605D01*
X152491914Y-74603577D01*
X152824126Y-74769433D01*
X153182312Y-74867290D01*
X153552706Y-74893389D01*
X153921075Y-74846725D01*
X154273262Y-74729094D01*
X154508086Y-74603577D01*
X154634000Y-74313605D01*
X153500000Y-73179605D01*
X152366000Y-74313605D01*
X143627000Y-74313605D01*
X143627000Y-73052706D01*
X151606611Y-73052706D01*
X151653275Y-73421075D01*
X151770906Y-73773262D01*
X151896423Y-74008086D01*
X152186395Y-74134000D01*
X153320395Y-73000000D01*
X153679605Y-73000000D01*
X154813605Y-74134000D01*
X155103577Y-74008086D01*
X155269433Y-73675874D01*
X155367290Y-73317688D01*
X155393389Y-72947294D01*
X155346725Y-72578925D01*
X155229094Y-72226738D01*
X155103577Y-71991914D01*
X154813605Y-71866000D01*
X153679605Y-73000000D01*
X153320395Y-73000000D01*
X152186395Y-71866000D01*
X151896423Y-71991914D01*
X151730567Y-72324126D01*
X151632710Y-72682312D01*
X151606611Y-73052706D01*
X143627000Y-73052706D01*
X143627000Y-71686395D01*
X152366000Y-71686395D01*
X153500000Y-72820395D01*
X154634000Y-71686395D01*
X154508086Y-71396423D01*
X154175874Y-71230567D01*
X153817688Y-71132710D01*
X153447294Y-71106611D01*
X153078925Y-71153275D01*
X152726738Y-71270906D01*
X152491914Y-71396423D01*
X152366000Y-71686395D01*
X143627000Y-71686395D01*
X143627000Y-69233605D01*
X152366000Y-69233605D01*
X152491914Y-69523577D01*
X152824126Y-69689433D01*
X153182312Y-69787290D01*
X153552706Y-69813389D01*
X153921075Y-69766725D01*
X154273262Y-69649094D01*
X154508086Y-69523577D01*
X154634000Y-69233605D01*
X153500000Y-68099605D01*
X152366000Y-69233605D01*
X143627000Y-69233605D01*
X143627000Y-66004530D01*
X143646385Y-65733496D01*
X143662373Y-65660000D01*
X151020556Y-65660000D01*
X151004774Y-65698102D01*
%TA.AperFunction,Conductor*%
D32*
G36*
X151004774Y-65698102D02*
G01*
X150965000Y-65898061D01*
X150965000Y-66101939D01*
X151004774Y-66301898D01*
X151082795Y-66490256D01*
X151196063Y-66659774D01*
X151340226Y-66803937D01*
X151509744Y-66917205D01*
X151698102Y-66995226D01*
X151840672Y-67023585D01*
X151730567Y-67244126D01*
X151632710Y-67602312D01*
X151606611Y-67972706D01*
X151653275Y-68341075D01*
X151770906Y-68693262D01*
X151896423Y-68928086D01*
X152186395Y-69054000D01*
X153320395Y-67920000D01*
X153679605Y-67920000D01*
X154813605Y-69054000D01*
X155103577Y-68928086D01*
X155269433Y-68595874D01*
X155367290Y-68237688D01*
X155393389Y-67867294D01*
X155346725Y-67498925D01*
X155229094Y-67146738D01*
X155103577Y-66911914D01*
X154813605Y-66786000D01*
X153679605Y-67920000D01*
X153320395Y-67920000D01*
X153306253Y-67905858D01*
X153485858Y-67726253D01*
X153500000Y-67740395D01*
X154634000Y-66606395D01*
X154508086Y-66316423D01*
X154175874Y-66150567D01*
X153817688Y-66052710D01*
X153447294Y-66026611D01*
X153078925Y-66073275D01*
X153035000Y-66087946D01*
X153035000Y-65898061D01*
X152995226Y-65698102D01*
X152979444Y-65660000D01*
X158437627Y-65660000D01*
X158453615Y-65733496D01*
X158473000Y-66004530D01*
X158473000Y-76995470D01*
X158453615Y-77266504D01*
X158414351Y-77447000D01*
X158238000Y-77447000D01*
X158238000Y-77427000D01*
X157222000Y-77427000D01*
X157222000Y-78551250D01*
X157375212Y-78704462D01*
X157127593Y-78796819D01*
X156866504Y-78853615D01*
X156595470Y-78873000D01*
X145504530Y-78873000D01*
X145233496Y-78853615D01*
X144972407Y-78796819D01*
X144722060Y-78703444D01*
X144487555Y-78575395D01*
X144273662Y-78415276D01*
X144084724Y-78226338D01*
X143971434Y-78075000D01*
X156156928Y-78075000D01*
X156169188Y-78199482D01*
X156205498Y-78319180D01*
X156264463Y-78429494D01*
X156343815Y-78526185D01*
X156440506Y-78605537D01*
X156550820Y-78664502D01*
X156670518Y-78700812D01*
X156795000Y-78713072D01*
X156809250Y-78710000D01*
X156968000Y-78551250D01*
X156968000Y-77427000D01*
X156318750Y-77427000D01*
X156160000Y-77585750D01*
X156156928Y-78075000D01*
X143971434Y-78075000D01*
X143924605Y-78012445D01*
X143796556Y-77777940D01*
X143703181Y-77527593D01*
X143646385Y-77266504D01*
X143627000Y-76995470D01*
X143627000Y-76525000D01*
X156156928Y-76525000D01*
X156160000Y-77014250D01*
X156318750Y-77173000D01*
X156968000Y-77173000D01*
X156968000Y-76048750D01*
X157222000Y-76048750D01*
X157222000Y-77173000D01*
X158238000Y-77173000D01*
X158238000Y-76048750D01*
X158079250Y-75890000D01*
X158065000Y-75886928D01*
X157940518Y-75899188D01*
X157820820Y-75935498D01*
X157730000Y-75984043D01*
X157639180Y-75935498D01*
X157519482Y-75899188D01*
X157395000Y-75886928D01*
X157380750Y-75890000D01*
X157222000Y-76048750D01*
X156968000Y-76048750D01*
X156809250Y-75890000D01*
X156795000Y-75886928D01*
X156670518Y-75899188D01*
X156550820Y-75935498D01*
X156440506Y-75994463D01*
X156343815Y-76073815D01*
X156264463Y-76170506D01*
X156205498Y-76280820D01*
X156169188Y-76400518D01*
X156156928Y-76525000D01*
X143627000Y-76525000D01*
X143627000Y-74313605D01*
X152366000Y-74313605D01*
X152491914Y-74603577D01*
X152824126Y-74769433D01*
X153182312Y-74867290D01*
X153552706Y-74893389D01*
X153921075Y-74846725D01*
X154273262Y-74729094D01*
X154508086Y-74603577D01*
X154634000Y-74313605D01*
X153500000Y-73179605D01*
X152366000Y-74313605D01*
X143627000Y-74313605D01*
X143627000Y-73052706D01*
X151606611Y-73052706D01*
X151653275Y-73421075D01*
X151770906Y-73773262D01*
X151896423Y-74008086D01*
X152186395Y-74134000D01*
X153320395Y-73000000D01*
X153679605Y-73000000D01*
X154813605Y-74134000D01*
X155103577Y-74008086D01*
X155269433Y-73675874D01*
X155367290Y-73317688D01*
X155393389Y-72947294D01*
X155346725Y-72578925D01*
X155229094Y-72226738D01*
X155103577Y-71991914D01*
X154813605Y-71866000D01*
X153679605Y-73000000D01*
X153320395Y-73000000D01*
X152186395Y-71866000D01*
X151896423Y-71991914D01*
X151730567Y-72324126D01*
X151632710Y-72682312D01*
X151606611Y-73052706D01*
X143627000Y-73052706D01*
X143627000Y-71686395D01*
X152366000Y-71686395D01*
X153500000Y-72820395D01*
X154634000Y-71686395D01*
X154508086Y-71396423D01*
X154175874Y-71230567D01*
X153817688Y-71132710D01*
X153447294Y-71106611D01*
X153078925Y-71153275D01*
X152726738Y-71270906D01*
X152491914Y-71396423D01*
X152366000Y-71686395D01*
X143627000Y-71686395D01*
X143627000Y-69233605D01*
X152366000Y-69233605D01*
X152491914Y-69523577D01*
X152824126Y-69689433D01*
X153182312Y-69787290D01*
X153552706Y-69813389D01*
X153921075Y-69766725D01*
X154273262Y-69649094D01*
X154508086Y-69523577D01*
X154634000Y-69233605D01*
X153500000Y-68099605D01*
X152366000Y-69233605D01*
X143627000Y-69233605D01*
X143627000Y-66004530D01*
X143646385Y-65733496D01*
X143662373Y-65660000D01*
X151020556Y-65660000D01*
X151004774Y-65698102D01*
G37*
%TD.AperFunction*%
%TD*%
D31*
%TO.N,/current+*%
X172504774Y-65698102D02*
X172465000Y-65898061D01*
X172465000Y-66101939D01*
X172504774Y-66301898D01*
X172582795Y-66490256D01*
X172696063Y-66659774D01*
X172840226Y-66803937D01*
X173009744Y-66917205D01*
X173198102Y-66995226D01*
X173398061Y-67035000D01*
X173601939Y-67035000D01*
X173801898Y-66995226D01*
X173893302Y-66957365D01*
X173900001Y-67021098D01*
X173900001Y-78873000D01*
X161404530Y-78873000D01*
X161133496Y-78853615D01*
X160872407Y-78796819D01*
X160624788Y-78704462D01*
X160778000Y-78551250D01*
X160778000Y-77427000D01*
X161032000Y-77427000D01*
X161032000Y-78551250D01*
X161190750Y-78710000D01*
X161205000Y-78713072D01*
X161329482Y-78700812D01*
X161449180Y-78664502D01*
X161559494Y-78605537D01*
X161656185Y-78526185D01*
X161735537Y-78429494D01*
X161794502Y-78319180D01*
X161830812Y-78199482D01*
X161843072Y-78075000D01*
X161840000Y-77585750D01*
X161681250Y-77427000D01*
X161032000Y-77427000D01*
X160778000Y-77427000D01*
X159762000Y-77427000D01*
X159762000Y-77447000D01*
X159585649Y-77447000D01*
X159546385Y-77266504D01*
X159527000Y-76995470D01*
X159527000Y-76048750D01*
X159762000Y-76048750D01*
X159762000Y-77173000D01*
X160778000Y-77173000D01*
X160778000Y-76048750D01*
X161032000Y-76048750D01*
X161032000Y-77173000D01*
X161681250Y-77173000D01*
X161840000Y-77014250D01*
X161843072Y-76525000D01*
X161830812Y-76400518D01*
X161794502Y-76280820D01*
X161735537Y-76170506D01*
X161656185Y-76073815D01*
X161559494Y-75994463D01*
X161449180Y-75935498D01*
X161329482Y-75899188D01*
X161205000Y-75886928D01*
X161190750Y-75890000D01*
X161032000Y-76048750D01*
X160778000Y-76048750D01*
X160619250Y-75890000D01*
X160605000Y-75886928D01*
X160480518Y-75899188D01*
X160360820Y-75935498D01*
X160270000Y-75984043D01*
X160179180Y-75935498D01*
X160059482Y-75899188D01*
X159935000Y-75886928D01*
X159920750Y-75890000D01*
X159762000Y-76048750D01*
X159527000Y-76048750D01*
X159527000Y-74313605D01*
X161866000Y-74313605D01*
X161991914Y-74603577D01*
X162324126Y-74769433D01*
X162682312Y-74867290D01*
X163052706Y-74893389D01*
X163421075Y-74846725D01*
X163773262Y-74729094D01*
X164008086Y-74603577D01*
X164105225Y-74379872D01*
X168885000Y-74379872D01*
X168885000Y-74820128D01*
X168970890Y-75251925D01*
X169139369Y-75658669D01*
X169383962Y-76024729D01*
X169695271Y-76336038D01*
X170061331Y-76580631D01*
X170468075Y-76749110D01*
X170899872Y-76835000D01*
X171340128Y-76835000D01*
X171771925Y-76749110D01*
X172178669Y-76580631D01*
X172544729Y-76336038D01*
X172856038Y-76024729D01*
X173100631Y-75658669D01*
X173269110Y-75251925D01*
X173355000Y-74820128D01*
X173355000Y-74379872D01*
X173269110Y-73948075D01*
X173100631Y-73541331D01*
X172856038Y-73175271D01*
X172544729Y-72863962D01*
X172178669Y-72619369D01*
X171771925Y-72450890D01*
X171340128Y-72365000D01*
X170899872Y-72365000D01*
X170468075Y-72450890D01*
X170061331Y-72619369D01*
X169695271Y-72863962D01*
X169383962Y-73175271D01*
X169139369Y-73541331D01*
X168970890Y-73948075D01*
X168885000Y-74379872D01*
X164105225Y-74379872D01*
X164134000Y-74313605D01*
X163000000Y-73179605D01*
X161866000Y-74313605D01*
X159527000Y-74313605D01*
X159527000Y-73052706D01*
X161106611Y-73052706D01*
X161153275Y-73421075D01*
X161270906Y-73773262D01*
X161396423Y-74008086D01*
X161686395Y-74134000D01*
X162820395Y-73000000D01*
X163179605Y-73000000D01*
X164313605Y-74134000D01*
X164603577Y-74008086D01*
X164769433Y-73675874D01*
X164867290Y-73317688D01*
X164893389Y-72947294D01*
X164846725Y-72578925D01*
X164729094Y-72226738D01*
X164603577Y-71991914D01*
X164313605Y-71866000D01*
X163179605Y-73000000D01*
X162820395Y-73000000D01*
X161686395Y-71866000D01*
X161396423Y-71991914D01*
X161230567Y-72324126D01*
X161132710Y-72682312D01*
X161106611Y-73052706D01*
X159527000Y-73052706D01*
X159527000Y-71686395D01*
X161866000Y-71686395D01*
X163000000Y-72820395D01*
X164134000Y-71686395D01*
X164008086Y-71396423D01*
X163675874Y-71230567D01*
X163317688Y-71132710D01*
X162947294Y-71106611D01*
X162578925Y-71153275D01*
X162226738Y-71270906D01*
X161991914Y-71396423D01*
X161866000Y-71686395D01*
X159527000Y-71686395D01*
X159527000Y-69233605D01*
X161866000Y-69233605D01*
X161991914Y-69523577D01*
X162324126Y-69689433D01*
X162682312Y-69787290D01*
X163052706Y-69813389D01*
X163421075Y-69766725D01*
X163773262Y-69649094D01*
X164008086Y-69523577D01*
X164134000Y-69233605D01*
X163000000Y-68099605D01*
X161866000Y-69233605D01*
X159527000Y-69233605D01*
X159527000Y-67972706D01*
X161106611Y-67972706D01*
X161153275Y-68341075D01*
X161270906Y-68693262D01*
X161396423Y-68928086D01*
X161686395Y-69054000D01*
X162820395Y-67920000D01*
X163179605Y-67920000D01*
X164313605Y-69054000D01*
X164603577Y-68928086D01*
X164769433Y-68595874D01*
X164867290Y-68237688D01*
X164893389Y-67867294D01*
X164846725Y-67498925D01*
X164729094Y-67146738D01*
X164603577Y-66911914D01*
X164313605Y-66786000D01*
X163179605Y-67920000D01*
X162820395Y-67920000D01*
X161686395Y-66786000D01*
X161396423Y-66911914D01*
X161230567Y-67244126D01*
X161132710Y-67602312D01*
X161106611Y-67972706D01*
X159527000Y-67972706D01*
X159527000Y-66606395D01*
X161866000Y-66606395D01*
X163000000Y-67740395D01*
X164134000Y-66606395D01*
X164008086Y-66316423D01*
X163675874Y-66150567D01*
X163317688Y-66052710D01*
X162947294Y-66026611D01*
X162578925Y-66073275D01*
X162226738Y-66190906D01*
X161991914Y-66316423D01*
X161866000Y-66606395D01*
X159527000Y-66606395D01*
X159527000Y-66004530D01*
X159546385Y-65733496D01*
X159562373Y-65660000D01*
X172520556Y-65660000D01*
X172504774Y-65698102D01*
%TA.AperFunction,Conductor*%
D32*
G36*
X172504774Y-65698102D02*
G01*
X172465000Y-65898061D01*
X172465000Y-66101939D01*
X172504774Y-66301898D01*
X172582795Y-66490256D01*
X172696063Y-66659774D01*
X172840226Y-66803937D01*
X173009744Y-66917205D01*
X173198102Y-66995226D01*
X173398061Y-67035000D01*
X173601939Y-67035000D01*
X173801898Y-66995226D01*
X173893302Y-66957365D01*
X173900001Y-67021098D01*
X173900001Y-78873000D01*
X161404530Y-78873000D01*
X161133496Y-78853615D01*
X160872407Y-78796819D01*
X160624788Y-78704462D01*
X160778000Y-78551250D01*
X160778000Y-77427000D01*
X161032000Y-77427000D01*
X161032000Y-78551250D01*
X161190750Y-78710000D01*
X161205000Y-78713072D01*
X161329482Y-78700812D01*
X161449180Y-78664502D01*
X161559494Y-78605537D01*
X161656185Y-78526185D01*
X161735537Y-78429494D01*
X161794502Y-78319180D01*
X161830812Y-78199482D01*
X161843072Y-78075000D01*
X161840000Y-77585750D01*
X161681250Y-77427000D01*
X161032000Y-77427000D01*
X160778000Y-77427000D01*
X159762000Y-77427000D01*
X159762000Y-77447000D01*
X159585649Y-77447000D01*
X159546385Y-77266504D01*
X159527000Y-76995470D01*
X159527000Y-76048750D01*
X159762000Y-76048750D01*
X159762000Y-77173000D01*
X160778000Y-77173000D01*
X160778000Y-76048750D01*
X161032000Y-76048750D01*
X161032000Y-77173000D01*
X161681250Y-77173000D01*
X161840000Y-77014250D01*
X161843072Y-76525000D01*
X161830812Y-76400518D01*
X161794502Y-76280820D01*
X161735537Y-76170506D01*
X161656185Y-76073815D01*
X161559494Y-75994463D01*
X161449180Y-75935498D01*
X161329482Y-75899188D01*
X161205000Y-75886928D01*
X161190750Y-75890000D01*
X161032000Y-76048750D01*
X160778000Y-76048750D01*
X160619250Y-75890000D01*
X160605000Y-75886928D01*
X160480518Y-75899188D01*
X160360820Y-75935498D01*
X160270000Y-75984043D01*
X160179180Y-75935498D01*
X160059482Y-75899188D01*
X159935000Y-75886928D01*
X159920750Y-75890000D01*
X159762000Y-76048750D01*
X159527000Y-76048750D01*
X159527000Y-74313605D01*
X161866000Y-74313605D01*
X161991914Y-74603577D01*
X162324126Y-74769433D01*
X162682312Y-74867290D01*
X163052706Y-74893389D01*
X163421075Y-74846725D01*
X163773262Y-74729094D01*
X164008086Y-74603577D01*
X164105225Y-74379872D01*
X168885000Y-74379872D01*
X168885000Y-74820128D01*
X168970890Y-75251925D01*
X169139369Y-75658669D01*
X169383962Y-76024729D01*
X169695271Y-76336038D01*
X170061331Y-76580631D01*
X170468075Y-76749110D01*
X170899872Y-76835000D01*
X171340128Y-76835000D01*
X171771925Y-76749110D01*
X172178669Y-76580631D01*
X172544729Y-76336038D01*
X172856038Y-76024729D01*
X173100631Y-75658669D01*
X173269110Y-75251925D01*
X173355000Y-74820128D01*
X173355000Y-74379872D01*
X173269110Y-73948075D01*
X173100631Y-73541331D01*
X172856038Y-73175271D01*
X172544729Y-72863962D01*
X172178669Y-72619369D01*
X171771925Y-72450890D01*
X171340128Y-72365000D01*
X170899872Y-72365000D01*
X170468075Y-72450890D01*
X170061331Y-72619369D01*
X169695271Y-72863962D01*
X169383962Y-73175271D01*
X169139369Y-73541331D01*
X168970890Y-73948075D01*
X168885000Y-74379872D01*
X164105225Y-74379872D01*
X164134000Y-74313605D01*
X163000000Y-73179605D01*
X161866000Y-74313605D01*
X159527000Y-74313605D01*
X159527000Y-73052706D01*
X161106611Y-73052706D01*
X161153275Y-73421075D01*
X161270906Y-73773262D01*
X161396423Y-74008086D01*
X161686395Y-74134000D01*
X162820395Y-73000000D01*
X163179605Y-73000000D01*
X164313605Y-74134000D01*
X164603577Y-74008086D01*
X164769433Y-73675874D01*
X164867290Y-73317688D01*
X164893389Y-72947294D01*
X164846725Y-72578925D01*
X164729094Y-72226738D01*
X164603577Y-71991914D01*
X164313605Y-71866000D01*
X163179605Y-73000000D01*
X162820395Y-73000000D01*
X161686395Y-71866000D01*
X161396423Y-71991914D01*
X161230567Y-72324126D01*
X161132710Y-72682312D01*
X161106611Y-73052706D01*
X159527000Y-73052706D01*
X159527000Y-71686395D01*
X161866000Y-71686395D01*
X163000000Y-72820395D01*
X164134000Y-71686395D01*
X164008086Y-71396423D01*
X163675874Y-71230567D01*
X163317688Y-71132710D01*
X162947294Y-71106611D01*
X162578925Y-71153275D01*
X162226738Y-71270906D01*
X161991914Y-71396423D01*
X161866000Y-71686395D01*
X159527000Y-71686395D01*
X159527000Y-69233605D01*
X161866000Y-69233605D01*
X161991914Y-69523577D01*
X162324126Y-69689433D01*
X162682312Y-69787290D01*
X163052706Y-69813389D01*
X163421075Y-69766725D01*
X163773262Y-69649094D01*
X164008086Y-69523577D01*
X164134000Y-69233605D01*
X163000000Y-68099605D01*
X161866000Y-69233605D01*
X159527000Y-69233605D01*
X159527000Y-67972706D01*
X161106611Y-67972706D01*
X161153275Y-68341075D01*
X161270906Y-68693262D01*
X161396423Y-68928086D01*
X161686395Y-69054000D01*
X162820395Y-67920000D01*
X163179605Y-67920000D01*
X164313605Y-69054000D01*
X164603577Y-68928086D01*
X164769433Y-68595874D01*
X164867290Y-68237688D01*
X164893389Y-67867294D01*
X164846725Y-67498925D01*
X164729094Y-67146738D01*
X164603577Y-66911914D01*
X164313605Y-66786000D01*
X163179605Y-67920000D01*
X162820395Y-67920000D01*
X161686395Y-66786000D01*
X161396423Y-66911914D01*
X161230567Y-67244126D01*
X161132710Y-67602312D01*
X161106611Y-67972706D01*
X159527000Y-67972706D01*
X159527000Y-66606395D01*
X161866000Y-66606395D01*
X163000000Y-67740395D01*
X164134000Y-66606395D01*
X164008086Y-66316423D01*
X163675874Y-66150567D01*
X163317688Y-66052710D01*
X162947294Y-66026611D01*
X162578925Y-66073275D01*
X162226738Y-66190906D01*
X161991914Y-66316423D01*
X161866000Y-66606395D01*
X159527000Y-66606395D01*
X159527000Y-66004530D01*
X159546385Y-65733496D01*
X159562373Y-65660000D01*
X172520556Y-65660000D01*
X172504774Y-65698102D01*
G37*
%TD.AperFunction*%
%TD*%
D31*
%TO.N,/virtual_gnd*%
X155169180Y-86940058D02*
X155164345Y-86955998D01*
X155059482Y-86924188D01*
X154935000Y-86911928D01*
X154920750Y-86915000D01*
X154762000Y-87073750D01*
X154762000Y-88398000D01*
X154782000Y-88398000D01*
X154782000Y-88652000D01*
X154762000Y-88652000D01*
X154762000Y-89976250D01*
X154920750Y-90135000D01*
X154935000Y-90138072D01*
X155059482Y-90125812D01*
X155179180Y-90089502D01*
X155289494Y-90030537D01*
X155319064Y-90006270D01*
X155453418Y-90078084D01*
X155601255Y-90122929D01*
X155755000Y-90138072D01*
X156055000Y-90138072D01*
X156208745Y-90122929D01*
X156356582Y-90078084D01*
X156492829Y-90005258D01*
X156612251Y-89907251D01*
X156710258Y-89787829D01*
X156783084Y-89651582D01*
X156827929Y-89503745D01*
X156843072Y-89350000D01*
X156843072Y-87700000D01*
X156827929Y-87546255D01*
X156783084Y-87398418D01*
X156758979Y-87353322D01*
X157235301Y-86877000D01*
X167743766Y-86877000D01*
X167920189Y-86894376D01*
X168083850Y-86944022D01*
X168234672Y-87024638D01*
X168366870Y-87133130D01*
X168475362Y-87265328D01*
X168555978Y-87416150D01*
X168605624Y-87579811D01*
X168623000Y-87756234D01*
X168623000Y-102993766D01*
X168605624Y-103170189D01*
X168555978Y-103333850D01*
X168475362Y-103484672D01*
X168366870Y-103616870D01*
X168363056Y-103620000D01*
X155386944Y-103620000D01*
X155383130Y-103616870D01*
X155274638Y-103484672D01*
X155194022Y-103333850D01*
X155144376Y-103170189D01*
X155127000Y-102993766D01*
X155127000Y-101171653D01*
X156887952Y-101171653D01*
X157043962Y-101487214D01*
X157418745Y-101678020D01*
X157823551Y-101792044D01*
X158242824Y-101824902D01*
X158660451Y-101775334D01*
X159060383Y-101645243D01*
X159356038Y-101487214D01*
X159512048Y-101171653D01*
X164487952Y-101171653D01*
X164643962Y-101487214D01*
X165018745Y-101678020D01*
X165423551Y-101792044D01*
X165842824Y-101824902D01*
X166260451Y-101775334D01*
X166660383Y-101645243D01*
X166956038Y-101487214D01*
X167112048Y-101171653D01*
X165800000Y-99859605D01*
X164487952Y-101171653D01*
X159512048Y-101171653D01*
X158200000Y-99859605D01*
X156887952Y-101171653D01*
X155127000Y-101171653D01*
X155127000Y-99722824D01*
X156055098Y-99722824D01*
X156104666Y-100140451D01*
X156234757Y-100540383D01*
X156392786Y-100836038D01*
X156708347Y-100992048D01*
X158020395Y-99680000D01*
X158379605Y-99680000D01*
X159691653Y-100992048D01*
X160007214Y-100836038D01*
X160198020Y-100461255D01*
X160312044Y-100056449D01*
X160338189Y-99722824D01*
X163655098Y-99722824D01*
X163704666Y-100140451D01*
X163834757Y-100540383D01*
X163992786Y-100836038D01*
X164308347Y-100992048D01*
X165620395Y-99680000D01*
X165979605Y-99680000D01*
X167291653Y-100992048D01*
X167607214Y-100836038D01*
X167798020Y-100461255D01*
X167912044Y-100056449D01*
X167944902Y-99637176D01*
X167895334Y-99219549D01*
X167765243Y-98819617D01*
X167607214Y-98523962D01*
X167291653Y-98367952D01*
X165979605Y-99680000D01*
X165620395Y-99680000D01*
X164308347Y-98367952D01*
X163992786Y-98523962D01*
X163801980Y-98898745D01*
X163687956Y-99303551D01*
X163655098Y-99722824D01*
X160338189Y-99722824D01*
X160344902Y-99637176D01*
X160295334Y-99219549D01*
X160165243Y-98819617D01*
X160007214Y-98523962D01*
X159691653Y-98367952D01*
X158379605Y-99680000D01*
X158020395Y-99680000D01*
X156708347Y-98367952D01*
X156392786Y-98523962D01*
X156201980Y-98898745D01*
X156087956Y-99303551D01*
X156055098Y-99722824D01*
X155127000Y-99722824D01*
X155127000Y-98188347D01*
X156887952Y-98188347D01*
X158200000Y-99500395D01*
X159512048Y-98188347D01*
X164487952Y-98188347D01*
X165800000Y-99500395D01*
X167112048Y-98188347D01*
X166956038Y-97872786D01*
X166581255Y-97681980D01*
X166176449Y-97567956D01*
X165757176Y-97535098D01*
X165339549Y-97584666D01*
X164939617Y-97714757D01*
X164643962Y-97872786D01*
X164487952Y-98188347D01*
X159512048Y-98188347D01*
X159356038Y-97872786D01*
X158981255Y-97681980D01*
X158576449Y-97567956D01*
X158157176Y-97535098D01*
X157739549Y-97584666D01*
X157339617Y-97714757D01*
X157043962Y-97872786D01*
X156887952Y-98188347D01*
X155127000Y-98188347D01*
X155127000Y-97506234D01*
X155144376Y-97329811D01*
X155194022Y-97166150D01*
X155274638Y-97015328D01*
X155383130Y-96883130D01*
X155515328Y-96774638D01*
X155666150Y-96694022D01*
X155829811Y-96644376D01*
X156207538Y-96607173D01*
X156231956Y-96602317D01*
X156419549Y-96545412D01*
X156442550Y-96535884D01*
X156615437Y-96443474D01*
X156636138Y-96429642D01*
X156787675Y-96305279D01*
X156805279Y-96287675D01*
X156929642Y-96136138D01*
X156943474Y-96115437D01*
X157035884Y-95942550D01*
X157045412Y-95919549D01*
X157102317Y-95731956D01*
X157107173Y-95707538D01*
X157126388Y-95512448D01*
X157127000Y-95500000D01*
X157127000Y-95006234D01*
X157144376Y-94829811D01*
X157194022Y-94666150D01*
X157274638Y-94515328D01*
X157383130Y-94383130D01*
X157515328Y-94274638D01*
X157666150Y-94194022D01*
X157829811Y-94144376D01*
X158006234Y-94127000D01*
X163500000Y-94127000D01*
X163512448Y-94126388D01*
X163707538Y-94107173D01*
X163731956Y-94102317D01*
X163919549Y-94045412D01*
X163942550Y-94035884D01*
X164115437Y-93943474D01*
X164136138Y-93929642D01*
X164287675Y-93805279D01*
X164305279Y-93787675D01*
X164429642Y-93636138D01*
X164443474Y-93615437D01*
X164535884Y-93442550D01*
X164545412Y-93419549D01*
X164602317Y-93231956D01*
X164607173Y-93207538D01*
X164626388Y-93012448D01*
X164627000Y-93000000D01*
X164627000Y-91000000D01*
X164626388Y-90987552D01*
X164607173Y-90792462D01*
X164602317Y-90768044D01*
X164545412Y-90580451D01*
X164535884Y-90557450D01*
X164443474Y-90384563D01*
X164429642Y-90363862D01*
X164305279Y-90212325D01*
X164287675Y-90194721D01*
X164136138Y-90070358D01*
X164115437Y-90056526D01*
X163942550Y-89964116D01*
X163919549Y-89954588D01*
X163731956Y-89897683D01*
X163707538Y-89892827D01*
X163512448Y-89873612D01*
X163500000Y-89873000D01*
X160250000Y-89873000D01*
X160235781Y-89873799D01*
X160068890Y-89892603D01*
X160041164Y-89898931D01*
X159882642Y-89954400D01*
X159857019Y-89966739D01*
X159714815Y-90056092D01*
X159692580Y-90073823D01*
X159573823Y-90192580D01*
X159556092Y-90214815D01*
X159466739Y-90357019D01*
X159454400Y-90382642D01*
X159398931Y-90541164D01*
X159392603Y-90568890D01*
X159356597Y-90888451D01*
X159310581Y-91019960D01*
X159236455Y-91137930D01*
X159137930Y-91236455D01*
X159019960Y-91310581D01*
X158888451Y-91356597D01*
X158742872Y-91373000D01*
X157019115Y-91373000D01*
X157014447Y-91371584D01*
X156898763Y-91360190D01*
X156898753Y-91360190D01*
X156860090Y-91356382D01*
X156821427Y-91360190D01*
X153756072Y-91360190D01*
X153717409Y-91356382D01*
X153678746Y-91360190D01*
X153678737Y-91360190D01*
X153652454Y-91362779D01*
X153579811Y-91355624D01*
X153416150Y-91305978D01*
X153265328Y-91225362D01*
X153133130Y-91116870D01*
X153024638Y-90984672D01*
X152944022Y-90833850D01*
X152894376Y-90670189D01*
X152877000Y-90493766D01*
X152877000Y-90106544D01*
X152940518Y-90125812D01*
X153065000Y-90138072D01*
X153079250Y-90135000D01*
X153238000Y-89976250D01*
X153238000Y-88652000D01*
X153492000Y-88652000D01*
X153492000Y-89976250D01*
X153650750Y-90135000D01*
X153665000Y-90138072D01*
X153789482Y-90125812D01*
X153909180Y-90089502D01*
X154000000Y-90040957D01*
X154090820Y-90089502D01*
X154210518Y-90125812D01*
X154335000Y-90138072D01*
X154349250Y-90135000D01*
X154508000Y-89976250D01*
X154508000Y-88652000D01*
X153492000Y-88652000D01*
X153238000Y-88652000D01*
X153218000Y-88652000D01*
X153218000Y-88398000D01*
X153238000Y-88398000D01*
X153238000Y-88378000D01*
X153492000Y-88378000D01*
X153492000Y-88398000D01*
X154508000Y-88398000D01*
X154508000Y-87073750D01*
X154349250Y-86915000D01*
X154335000Y-86911928D01*
X154210518Y-86924188D01*
X154090820Y-86960498D01*
X154000000Y-87009043D01*
X153909180Y-86960498D01*
X153789482Y-86924188D01*
X153665000Y-86911928D01*
X153650750Y-86915000D01*
X153492002Y-87073748D01*
X153492002Y-86921013D01*
X153579811Y-86894376D01*
X153756234Y-86877000D01*
X155188308Y-86877000D01*
X155169180Y-86940058D01*
%TA.AperFunction,Conductor*%
D32*
G36*
X155169180Y-86940058D02*
G01*
X155164345Y-86955998D01*
X155059482Y-86924188D01*
X154935000Y-86911928D01*
X154920750Y-86915000D01*
X154762000Y-87073750D01*
X154762000Y-88398000D01*
X154782000Y-88398000D01*
X154782000Y-88652000D01*
X154762000Y-88652000D01*
X154762000Y-89976250D01*
X154920750Y-90135000D01*
X154935000Y-90138072D01*
X155059482Y-90125812D01*
X155179180Y-90089502D01*
X155289494Y-90030537D01*
X155319064Y-90006270D01*
X155453418Y-90078084D01*
X155601255Y-90122929D01*
X155755000Y-90138072D01*
X156055000Y-90138072D01*
X156208745Y-90122929D01*
X156356582Y-90078084D01*
X156492829Y-90005258D01*
X156612251Y-89907251D01*
X156710258Y-89787829D01*
X156783084Y-89651582D01*
X156827929Y-89503745D01*
X156843072Y-89350000D01*
X156843072Y-87700000D01*
X156827929Y-87546255D01*
X156783084Y-87398418D01*
X156758979Y-87353322D01*
X157235301Y-86877000D01*
X167743766Y-86877000D01*
X167920189Y-86894376D01*
X168083850Y-86944022D01*
X168234672Y-87024638D01*
X168366870Y-87133130D01*
X168475362Y-87265328D01*
X168555978Y-87416150D01*
X168605624Y-87579811D01*
X168623000Y-87756234D01*
X168623000Y-102993766D01*
X168605624Y-103170189D01*
X168555978Y-103333850D01*
X168475362Y-103484672D01*
X168366870Y-103616870D01*
X168363056Y-103620000D01*
X155386944Y-103620000D01*
X155383130Y-103616870D01*
X155274638Y-103484672D01*
X155194022Y-103333850D01*
X155144376Y-103170189D01*
X155127000Y-102993766D01*
X155127000Y-101171653D01*
X156887952Y-101171653D01*
X157043962Y-101487214D01*
X157418745Y-101678020D01*
X157823551Y-101792044D01*
X158242824Y-101824902D01*
X158660451Y-101775334D01*
X159060383Y-101645243D01*
X159356038Y-101487214D01*
X159512048Y-101171653D01*
X164487952Y-101171653D01*
X164643962Y-101487214D01*
X165018745Y-101678020D01*
X165423551Y-101792044D01*
X165842824Y-101824902D01*
X166260451Y-101775334D01*
X166660383Y-101645243D01*
X166956038Y-101487214D01*
X167112048Y-101171653D01*
X165800000Y-99859605D01*
X164487952Y-101171653D01*
X159512048Y-101171653D01*
X158200000Y-99859605D01*
X156887952Y-101171653D01*
X155127000Y-101171653D01*
X155127000Y-99722824D01*
X156055098Y-99722824D01*
X156104666Y-100140451D01*
X156234757Y-100540383D01*
X156392786Y-100836038D01*
X156708347Y-100992048D01*
X158020395Y-99680000D01*
X158379605Y-99680000D01*
X159691653Y-100992048D01*
X160007214Y-100836038D01*
X160198020Y-100461255D01*
X160312044Y-100056449D01*
X160338189Y-99722824D01*
X163655098Y-99722824D01*
X163704666Y-100140451D01*
X163834757Y-100540383D01*
X163992786Y-100836038D01*
X164308347Y-100992048D01*
X165620395Y-99680000D01*
X165979605Y-99680000D01*
X167291653Y-100992048D01*
X167607214Y-100836038D01*
X167798020Y-100461255D01*
X167912044Y-100056449D01*
X167944902Y-99637176D01*
X167895334Y-99219549D01*
X167765243Y-98819617D01*
X167607214Y-98523962D01*
X167291653Y-98367952D01*
X165979605Y-99680000D01*
X165620395Y-99680000D01*
X164308347Y-98367952D01*
X163992786Y-98523962D01*
X163801980Y-98898745D01*
X163687956Y-99303551D01*
X163655098Y-99722824D01*
X160338189Y-99722824D01*
X160344902Y-99637176D01*
X160295334Y-99219549D01*
X160165243Y-98819617D01*
X160007214Y-98523962D01*
X159691653Y-98367952D01*
X158379605Y-99680000D01*
X158020395Y-99680000D01*
X156708347Y-98367952D01*
X156392786Y-98523962D01*
X156201980Y-98898745D01*
X156087956Y-99303551D01*
X156055098Y-99722824D01*
X155127000Y-99722824D01*
X155127000Y-98188347D01*
X156887952Y-98188347D01*
X158200000Y-99500395D01*
X159512048Y-98188347D01*
X164487952Y-98188347D01*
X165800000Y-99500395D01*
X167112048Y-98188347D01*
X166956038Y-97872786D01*
X166581255Y-97681980D01*
X166176449Y-97567956D01*
X165757176Y-97535098D01*
X165339549Y-97584666D01*
X164939617Y-97714757D01*
X164643962Y-97872786D01*
X164487952Y-98188347D01*
X159512048Y-98188347D01*
X159356038Y-97872786D01*
X158981255Y-97681980D01*
X158576449Y-97567956D01*
X158157176Y-97535098D01*
X157739549Y-97584666D01*
X157339617Y-97714757D01*
X157043962Y-97872786D01*
X156887952Y-98188347D01*
X155127000Y-98188347D01*
X155127000Y-97506234D01*
X155144376Y-97329811D01*
X155194022Y-97166150D01*
X155274638Y-97015328D01*
X155383130Y-96883130D01*
X155515328Y-96774638D01*
X155666150Y-96694022D01*
X155829811Y-96644376D01*
X156207538Y-96607173D01*
X156231956Y-96602317D01*
X156419549Y-96545412D01*
X156442550Y-96535884D01*
X156615437Y-96443474D01*
X156636138Y-96429642D01*
X156787675Y-96305279D01*
X156805279Y-96287675D01*
X156929642Y-96136138D01*
X156943474Y-96115437D01*
X157035884Y-95942550D01*
X157045412Y-95919549D01*
X157102317Y-95731956D01*
X157107173Y-95707538D01*
X157126388Y-95512448D01*
X157127000Y-95500000D01*
X157127000Y-95006234D01*
X157144376Y-94829811D01*
X157194022Y-94666150D01*
X157274638Y-94515328D01*
X157383130Y-94383130D01*
X157515328Y-94274638D01*
X157666150Y-94194022D01*
X157829811Y-94144376D01*
X158006234Y-94127000D01*
X163500000Y-94127000D01*
X163512448Y-94126388D01*
X163707538Y-94107173D01*
X163731956Y-94102317D01*
X163919549Y-94045412D01*
X163942550Y-94035884D01*
X164115437Y-93943474D01*
X164136138Y-93929642D01*
X164287675Y-93805279D01*
X164305279Y-93787675D01*
X164429642Y-93636138D01*
X164443474Y-93615437D01*
X164535884Y-93442550D01*
X164545412Y-93419549D01*
X164602317Y-93231956D01*
X164607173Y-93207538D01*
X164626388Y-93012448D01*
X164627000Y-93000000D01*
X164627000Y-91000000D01*
X164626388Y-90987552D01*
X164607173Y-90792462D01*
X164602317Y-90768044D01*
X164545412Y-90580451D01*
X164535884Y-90557450D01*
X164443474Y-90384563D01*
X164429642Y-90363862D01*
X164305279Y-90212325D01*
X164287675Y-90194721D01*
X164136138Y-90070358D01*
X164115437Y-90056526D01*
X163942550Y-89964116D01*
X163919549Y-89954588D01*
X163731956Y-89897683D01*
X163707538Y-89892827D01*
X163512448Y-89873612D01*
X163500000Y-89873000D01*
X160250000Y-89873000D01*
X160235781Y-89873799D01*
X160068890Y-89892603D01*
X160041164Y-89898931D01*
X159882642Y-89954400D01*
X159857019Y-89966739D01*
X159714815Y-90056092D01*
X159692580Y-90073823D01*
X159573823Y-90192580D01*
X159556092Y-90214815D01*
X159466739Y-90357019D01*
X159454400Y-90382642D01*
X159398931Y-90541164D01*
X159392603Y-90568890D01*
X159356597Y-90888451D01*
X159310581Y-91019960D01*
X159236455Y-91137930D01*
X159137930Y-91236455D01*
X159019960Y-91310581D01*
X158888451Y-91356597D01*
X158742872Y-91373000D01*
X157019115Y-91373000D01*
X157014447Y-91371584D01*
X156898763Y-91360190D01*
X156898753Y-91360190D01*
X156860090Y-91356382D01*
X156821427Y-91360190D01*
X153756072Y-91360190D01*
X153717409Y-91356382D01*
X153678746Y-91360190D01*
X153678737Y-91360190D01*
X153652454Y-91362779D01*
X153579811Y-91355624D01*
X153416150Y-91305978D01*
X153265328Y-91225362D01*
X153133130Y-91116870D01*
X153024638Y-90984672D01*
X152944022Y-90833850D01*
X152894376Y-90670189D01*
X152877000Y-90493766D01*
X152877000Y-90106544D01*
X152940518Y-90125812D01*
X153065000Y-90138072D01*
X153079250Y-90135000D01*
X153238000Y-89976250D01*
X153238000Y-88652000D01*
X153492000Y-88652000D01*
X153492000Y-89976250D01*
X153650750Y-90135000D01*
X153665000Y-90138072D01*
X153789482Y-90125812D01*
X153909180Y-90089502D01*
X154000000Y-90040957D01*
X154090820Y-90089502D01*
X154210518Y-90125812D01*
X154335000Y-90138072D01*
X154349250Y-90135000D01*
X154508000Y-89976250D01*
X154508000Y-88652000D01*
X153492000Y-88652000D01*
X153238000Y-88652000D01*
X153218000Y-88652000D01*
X153218000Y-88398000D01*
X153238000Y-88398000D01*
X153238000Y-88378000D01*
X153492000Y-88378000D01*
X153492000Y-88398000D01*
X154508000Y-88398000D01*
X154508000Y-87073750D01*
X154349250Y-86915000D01*
X154335000Y-86911928D01*
X154210518Y-86924188D01*
X154090820Y-86960498D01*
X154000000Y-87009043D01*
X153909180Y-86960498D01*
X153789482Y-86924188D01*
X153665000Y-86911928D01*
X153650750Y-86915000D01*
X153492002Y-87073748D01*
X153492002Y-86921013D01*
X153579811Y-86894376D01*
X153756234Y-86877000D01*
X155188308Y-86877000D01*
X155169180Y-86940058D01*
G37*
%TD.AperFunction*%
%TD*%
M02*
