%TF.GenerationSoftware,KiCad,Pcbnew,5.1.7*%
%TF.CreationDate,2020-10-29T21:38:46-04:00*%
%TF.ProjectId,current-sensor,63757272-656e-4742-9d73-656e736f722e,0*%
%TF.SameCoordinates,Original*%
%TF.FileFunction,Legend,Bot*%
%TF.FilePolarity,Positive*%
%FSLAX46Y46*%
G04 Gerber Fmt 4.6, Leading zero omitted, Abs format (unit mm)*
G04 Created by KiCad (PCBNEW 5.1.7) date 2020-10-29 21:38:46*
%MOMM*%
%LPD*%
G01*
G04 APERTURE LIST*
%ADD10C,0.100000*%
%ADD11C,0.150000*%
%ADD12C,0.300000*%
%ADD13C,0.400000*%
G04 APERTURE END LIST*
D10*
D11*
X159400000Y-171900000D02*
X159400000Y-203900000D01*
X267400000Y-203900000D01*
X267400000Y-171900000D01*
X159400000Y-171900000D01*
D10*
D11*
X10000000Y-10000000D02*
X10000000Y-205900000D01*
X269400000Y-205900000D01*
X269400000Y-10000000D01*
X10000000Y-10000000D01*
D10*
D11*
X12000000Y-12000000D02*
X12000000Y-203900000D01*
X267400000Y-203900000D01*
X267400000Y-12000000D01*
X12000000Y-12000000D01*
D10*
D11*
X60000000Y-12000000D02*
X60000000Y-10000000D01*
D10*
D11*
X110000000Y-12000000D02*
X110000000Y-10000000D01*
D10*
D11*
X160000000Y-12000000D02*
X160000000Y-10000000D01*
D10*
D11*
X210000000Y-12000000D02*
X210000000Y-10000000D01*
D10*
D11*
X260000000Y-12000000D02*
X260000000Y-10000000D01*
D10*
D11*
X36065476Y-11588095D02*
X35322619Y-11588095D01*
X35694047Y-11588095D02*
X35694047Y-10288095D01*
X35570238Y-10473809D01*
X35446428Y-10597619D01*
X35322619Y-10659523D01*
D10*
D11*
X85322619Y-10411904D02*
X85384523Y-10350000D01*
X85508333Y-10288095D01*
X85817857Y-10288095D01*
X85941666Y-10350000D01*
X86003571Y-10411904D01*
X86065476Y-10535714D01*
X86065476Y-10659523D01*
X86003571Y-10845238D01*
X85260714Y-11588095D01*
X86065476Y-11588095D01*
D10*
D11*
X135260714Y-10288095D02*
X136065476Y-10288095D01*
X135632142Y-10783333D01*
X135817857Y-10783333D01*
X135941666Y-10845238D01*
X136003571Y-10907142D01*
X136065476Y-11030952D01*
X136065476Y-11340476D01*
X136003571Y-11464285D01*
X135941666Y-11526190D01*
X135817857Y-11588095D01*
X135446428Y-11588095D01*
X135322619Y-11526190D01*
X135260714Y-11464285D01*
D10*
D11*
X185941666Y-10721428D02*
X185941666Y-11588095D01*
X185632142Y-10226190D02*
X185322619Y-11154761D01*
X186127380Y-11154761D01*
D10*
D11*
X236003571Y-10288095D02*
X235384523Y-10288095D01*
X235322619Y-10907142D01*
X235384523Y-10845238D01*
X235508333Y-10783333D01*
X235817857Y-10783333D01*
X235941666Y-10845238D01*
X236003571Y-10907142D01*
X236065476Y-11030952D01*
X236065476Y-11340476D01*
X236003571Y-11464285D01*
X235941666Y-11526190D01*
X235817857Y-11588095D01*
X235508333Y-11588095D01*
X235384523Y-11526190D01*
X235322619Y-11464285D01*
D10*
D11*
X60000000Y-203900000D02*
X60000000Y-205900000D01*
D10*
D11*
X110000000Y-203900000D02*
X110000000Y-205900000D01*
D10*
D11*
X160000000Y-203900000D02*
X160000000Y-205900000D01*
D10*
D11*
X210000000Y-203900000D02*
X210000000Y-205900000D01*
D10*
D11*
X260000000Y-203900000D02*
X260000000Y-205900000D01*
D10*
D11*
X36065476Y-205488095D02*
X35322619Y-205488095D01*
X35694047Y-205488095D02*
X35694047Y-204188095D01*
X35570238Y-204373809D01*
X35446428Y-204497619D01*
X35322619Y-204559523D01*
D10*
D11*
X85322619Y-204311904D02*
X85384523Y-204250000D01*
X85508333Y-204188095D01*
X85817857Y-204188095D01*
X85941666Y-204250000D01*
X86003571Y-204311904D01*
X86065476Y-204435714D01*
X86065476Y-204559523D01*
X86003571Y-204745238D01*
X85260714Y-205488095D01*
X86065476Y-205488095D01*
D10*
D11*
X135260714Y-204188095D02*
X136065476Y-204188095D01*
X135632142Y-204683333D01*
X135817857Y-204683333D01*
X135941666Y-204745238D01*
X136003571Y-204807142D01*
X136065476Y-204930952D01*
X136065476Y-205240476D01*
X136003571Y-205364285D01*
X135941666Y-205426190D01*
X135817857Y-205488095D01*
X135446428Y-205488095D01*
X135322619Y-205426190D01*
X135260714Y-205364285D01*
D10*
D11*
X185941666Y-204621428D02*
X185941666Y-205488095D01*
X185632142Y-204126190D02*
X185322619Y-205054761D01*
X186127380Y-205054761D01*
D10*
D11*
X236003571Y-204188095D02*
X235384523Y-204188095D01*
X235322619Y-204807142D01*
X235384523Y-204745238D01*
X235508333Y-204683333D01*
X235817857Y-204683333D01*
X235941666Y-204745238D01*
X236003571Y-204807142D01*
X236065476Y-204930952D01*
X236065476Y-205240476D01*
X236003571Y-205364285D01*
X235941666Y-205426190D01*
X235817857Y-205488095D01*
X235508333Y-205488095D01*
X235384523Y-205426190D01*
X235322619Y-205364285D01*
D10*
D11*
X10000000Y-60000000D02*
X12000000Y-60000000D01*
D10*
D11*
X10000000Y-110000000D02*
X12000000Y-110000000D01*
D10*
D11*
X10000000Y-160000000D02*
X12000000Y-160000000D01*
D10*
D11*
X10690476Y-35216666D02*
X11309523Y-35216666D01*
X10566666Y-35588095D02*
X11000000Y-34288095D01*
X11433333Y-35588095D01*
D10*
D11*
X11092857Y-84907142D02*
X11278571Y-84969047D01*
X11340476Y-85030952D01*
X11402380Y-85154761D01*
X11402380Y-85340476D01*
X11340476Y-85464285D01*
X11278571Y-85526190D01*
X11154761Y-85588095D01*
X10659523Y-85588095D01*
X10659523Y-84288095D01*
X11092857Y-84288095D01*
X11216666Y-84350000D01*
X11278571Y-84411904D01*
X11340476Y-84535714D01*
X11340476Y-84659523D01*
X11278571Y-84783333D01*
X11216666Y-84845238D01*
X11092857Y-84907142D01*
X10659523Y-84907142D01*
D10*
D11*
X11402380Y-135464285D02*
X11340476Y-135526190D01*
X11154761Y-135588095D01*
X11030952Y-135588095D01*
X10845238Y-135526190D01*
X10721428Y-135402380D01*
X10659523Y-135278571D01*
X10597619Y-135030952D01*
X10597619Y-134845238D01*
X10659523Y-134597619D01*
X10721428Y-134473809D01*
X10845238Y-134350000D01*
X11030952Y-134288095D01*
X11154761Y-134288095D01*
X11340476Y-134350000D01*
X11402380Y-134411904D01*
D10*
D11*
X10659523Y-185588095D02*
X10659523Y-184288095D01*
X10969047Y-184288095D01*
X11154761Y-184350000D01*
X11278571Y-184473809D01*
X11340476Y-184597619D01*
X11402380Y-184845238D01*
X11402380Y-185030952D01*
X11340476Y-185278571D01*
X11278571Y-185402380D01*
X11154761Y-185526190D01*
X10969047Y-185588095D01*
X10659523Y-185588095D01*
D10*
D11*
X269400000Y-60000000D02*
X267400000Y-60000000D01*
D10*
D11*
X269400000Y-110000000D02*
X267400000Y-110000000D01*
D10*
D11*
X269400000Y-160000000D02*
X267400000Y-160000000D01*
D10*
D11*
X268090476Y-35216666D02*
X268709523Y-35216666D01*
X267966666Y-35588095D02*
X268400000Y-34288095D01*
X268833333Y-35588095D01*
D10*
D11*
X268492857Y-84907142D02*
X268678571Y-84969047D01*
X268740476Y-85030952D01*
X268802380Y-85154761D01*
X268802380Y-85340476D01*
X268740476Y-85464285D01*
X268678571Y-85526190D01*
X268554761Y-85588095D01*
X268059523Y-85588095D01*
X268059523Y-84288095D01*
X268492857Y-84288095D01*
X268616666Y-84350000D01*
X268678571Y-84411904D01*
X268740476Y-84535714D01*
X268740476Y-84659523D01*
X268678571Y-84783333D01*
X268616666Y-84845238D01*
X268492857Y-84907142D01*
X268059523Y-84907142D01*
D10*
D11*
X268802380Y-135464285D02*
X268740476Y-135526190D01*
X268554761Y-135588095D01*
X268430952Y-135588095D01*
X268245238Y-135526190D01*
X268121428Y-135402380D01*
X268059523Y-135278571D01*
X267997619Y-135030952D01*
X267997619Y-134845238D01*
X268059523Y-134597619D01*
X268121428Y-134473809D01*
X268245238Y-134350000D01*
X268430952Y-134288095D01*
X268554761Y-134288095D01*
X268740476Y-134350000D01*
X268802380Y-134411904D01*
D10*
D11*
X268059523Y-185588095D02*
X268059523Y-184288095D01*
X268369047Y-184288095D01*
X268554761Y-184350000D01*
X268678571Y-184473809D01*
X268740476Y-184597619D01*
X268802380Y-184845238D01*
X268802380Y-185030952D01*
X268740476Y-185278571D01*
X268678571Y-185402380D01*
X268554761Y-185526190D01*
X268369047Y-185588095D01*
X268059523Y-185588095D01*
D10*
D11*
X182832142Y-199678571D02*
X182832142Y-198178571D01*
X183189285Y-198178571D01*
X183403571Y-198250000D01*
X183546428Y-198392857D01*
X183617857Y-198535714D01*
X183689285Y-198821428D01*
X183689285Y-199035714D01*
X183617857Y-199321428D01*
X183546428Y-199464285D01*
X183403571Y-199607142D01*
X183189285Y-199678571D01*
X182832142Y-199678571D01*
X184975000Y-199678571D02*
X184975000Y-198892857D01*
X184903571Y-198750000D01*
X184760714Y-198678571D01*
X184475000Y-198678571D01*
X184332142Y-198750000D01*
X184975000Y-199607142D02*
X184832142Y-199678571D01*
X184475000Y-199678571D01*
X184332142Y-199607142D01*
X184260714Y-199464285D01*
X184260714Y-199321428D01*
X184332142Y-199178571D01*
X184475000Y-199107142D01*
X184832142Y-199107142D01*
X184975000Y-199035714D01*
X185475000Y-198678571D02*
X186046428Y-198678571D01*
X185689285Y-198178571D02*
X185689285Y-199464285D01*
X185760714Y-199607142D01*
X185903571Y-199678571D01*
X186046428Y-199678571D01*
X187117857Y-199607142D02*
X186975000Y-199678571D01*
X186689285Y-199678571D01*
X186546428Y-199607142D01*
X186475000Y-199464285D01*
X186475000Y-198892857D01*
X186546428Y-198750000D01*
X186689285Y-198678571D01*
X186975000Y-198678571D01*
X187117857Y-198750000D01*
X187189285Y-198892857D01*
X187189285Y-199035714D01*
X186475000Y-199178571D01*
X187832142Y-199535714D02*
X187903571Y-199607142D01*
X187832142Y-199678571D01*
X187760714Y-199607142D01*
X187832142Y-199535714D01*
X187832142Y-199678571D01*
X187832142Y-198750000D02*
X187903571Y-198821428D01*
X187832142Y-198892857D01*
X187760714Y-198821428D01*
X187832142Y-198750000D01*
X187832142Y-198892857D01*
X189617857Y-198321428D02*
X189689285Y-198250000D01*
X189832142Y-198178571D01*
X190189285Y-198178571D01*
X190332142Y-198250000D01*
X190403571Y-198321428D01*
X190475000Y-198464285D01*
X190475000Y-198607142D01*
X190403571Y-198821428D01*
X189546428Y-199678571D01*
X190475000Y-199678571D01*
X191403571Y-198178571D02*
X191546428Y-198178571D01*
X191689285Y-198250000D01*
X191760714Y-198321428D01*
X191832142Y-198464285D01*
X191903571Y-198750000D01*
X191903571Y-199107142D01*
X191832142Y-199392857D01*
X191760714Y-199535714D01*
X191689285Y-199607142D01*
X191546428Y-199678571D01*
X191403571Y-199678571D01*
X191260714Y-199607142D01*
X191189285Y-199535714D01*
X191117857Y-199392857D01*
X191046428Y-199107142D01*
X191046428Y-198750000D01*
X191117857Y-198464285D01*
X191189285Y-198321428D01*
X191260714Y-198250000D01*
X191403571Y-198178571D01*
X192475000Y-198321428D02*
X192546428Y-198250000D01*
X192689285Y-198178571D01*
X193046428Y-198178571D01*
X193189285Y-198250000D01*
X193260714Y-198321428D01*
X193332142Y-198464285D01*
X193332142Y-198607142D01*
X193260714Y-198821428D01*
X192403571Y-199678571D01*
X193332142Y-199678571D01*
X194260714Y-198178571D02*
X194403571Y-198178571D01*
X194546428Y-198250000D01*
X194617857Y-198321428D01*
X194689285Y-198464285D01*
X194760714Y-198750000D01*
X194760714Y-199107142D01*
X194689285Y-199392857D01*
X194617857Y-199535714D01*
X194546428Y-199607142D01*
X194403571Y-199678571D01*
X194260714Y-199678571D01*
X194117857Y-199607142D01*
X194046428Y-199535714D01*
X193975000Y-199392857D01*
X193903571Y-199107142D01*
X193903571Y-198750000D01*
X193975000Y-198464285D01*
X194046428Y-198321428D01*
X194117857Y-198250000D01*
X194260714Y-198178571D01*
X195403571Y-199107142D02*
X196546428Y-199107142D01*
X198046428Y-199678571D02*
X197189285Y-199678571D01*
X197617857Y-199678571D02*
X197617857Y-198178571D01*
X197475000Y-198392857D01*
X197332142Y-198535714D01*
X197189285Y-198607142D01*
X198975000Y-198178571D02*
X199117857Y-198178571D01*
X199260714Y-198250000D01*
X199332142Y-198321428D01*
X199403571Y-198464285D01*
X199475000Y-198750000D01*
X199475000Y-199107142D01*
X199403571Y-199392857D01*
X199332142Y-199535714D01*
X199260714Y-199607142D01*
X199117857Y-199678571D01*
X198975000Y-199678571D01*
X198832142Y-199607142D01*
X198760714Y-199535714D01*
X198689285Y-199392857D01*
X198617857Y-199107142D01*
X198617857Y-198750000D01*
X198689285Y-198464285D01*
X198760714Y-198321428D01*
X198832142Y-198250000D01*
X198975000Y-198178571D01*
X200117857Y-199107142D02*
X201260714Y-199107142D01*
X201903571Y-198321428D02*
X201975000Y-198250000D01*
X202117857Y-198178571D01*
X202475000Y-198178571D01*
X202617857Y-198250000D01*
X202689285Y-198321428D01*
X202760714Y-198464285D01*
X202760714Y-198607142D01*
X202689285Y-198821428D01*
X201832142Y-199678571D01*
X202760714Y-199678571D01*
X203475000Y-199678571D02*
X203760714Y-199678571D01*
X203903571Y-199607142D01*
X203975000Y-199535714D01*
X204117857Y-199321428D01*
X204189285Y-199035714D01*
X204189285Y-198464285D01*
X204117857Y-198321428D01*
X204046428Y-198250000D01*
X203903571Y-198178571D01*
X203617857Y-198178571D01*
X203475000Y-198250000D01*
X203403571Y-198321428D01*
X203332142Y-198464285D01*
X203332142Y-198821428D01*
X203403571Y-198964285D01*
X203475000Y-199035714D01*
X203617857Y-199107142D01*
X203903571Y-199107142D01*
X204046428Y-199035714D01*
X204117857Y-198964285D01*
X204189285Y-198821428D01*
D10*
D11*
X159400000Y-200400000D02*
X267400000Y-200400000D01*
D10*
D11*
X160832142Y-202478571D02*
X160832142Y-200978571D01*
X161689285Y-202478571D02*
X161046428Y-201621428D01*
X161689285Y-200978571D02*
X160832142Y-201835714D01*
X162332142Y-202478571D02*
X162332142Y-201478571D01*
X162332142Y-200978571D02*
X162260714Y-201050000D01*
X162332142Y-201121428D01*
X162403571Y-201050000D01*
X162332142Y-200978571D01*
X162332142Y-201121428D01*
X163903571Y-202335714D02*
X163832142Y-202407142D01*
X163617857Y-202478571D01*
X163475000Y-202478571D01*
X163260714Y-202407142D01*
X163117857Y-202264285D01*
X163046428Y-202121428D01*
X162975000Y-201835714D01*
X162975000Y-201621428D01*
X163046428Y-201335714D01*
X163117857Y-201192857D01*
X163260714Y-201050000D01*
X163475000Y-200978571D01*
X163617857Y-200978571D01*
X163832142Y-201050000D01*
X163903571Y-201121428D01*
X165189285Y-202478571D02*
X165189285Y-201692857D01*
X165117857Y-201550000D01*
X164975000Y-201478571D01*
X164689285Y-201478571D01*
X164546428Y-201550000D01*
X165189285Y-202407142D02*
X165046428Y-202478571D01*
X164689285Y-202478571D01*
X164546428Y-202407142D01*
X164475000Y-202264285D01*
X164475000Y-202121428D01*
X164546428Y-201978571D01*
X164689285Y-201907142D01*
X165046428Y-201907142D01*
X165189285Y-201835714D01*
X166546428Y-202478571D02*
X166546428Y-200978571D01*
X166546428Y-202407142D02*
X166403571Y-202478571D01*
X166117857Y-202478571D01*
X165975000Y-202407142D01*
X165903571Y-202335714D01*
X165832142Y-202192857D01*
X165832142Y-201764285D01*
X165903571Y-201621428D01*
X165975000Y-201550000D01*
X166117857Y-201478571D01*
X166403571Y-201478571D01*
X166546428Y-201550000D01*
X168403571Y-201692857D02*
X168903571Y-201692857D01*
X169117857Y-202478571D02*
X168403571Y-202478571D01*
X168403571Y-200978571D01*
X169117857Y-200978571D01*
X169760714Y-202335714D02*
X169832142Y-202407142D01*
X169760714Y-202478571D01*
X169689285Y-202407142D01*
X169760714Y-202335714D01*
X169760714Y-202478571D01*
X170475000Y-202478571D02*
X170475000Y-200978571D01*
X170832142Y-200978571D01*
X171046428Y-201050000D01*
X171189285Y-201192857D01*
X171260714Y-201335714D01*
X171332142Y-201621428D01*
X171332142Y-201835714D01*
X171260714Y-202121428D01*
X171189285Y-202264285D01*
X171046428Y-202407142D01*
X170832142Y-202478571D01*
X170475000Y-202478571D01*
X171975000Y-202335714D02*
X172046428Y-202407142D01*
X171975000Y-202478571D01*
X171903571Y-202407142D01*
X171975000Y-202335714D01*
X171975000Y-202478571D01*
X172617857Y-202050000D02*
X173332142Y-202050000D01*
X172475000Y-202478571D02*
X172975000Y-200978571D01*
X173475000Y-202478571D01*
X173975000Y-202335714D02*
X174046428Y-202407142D01*
X173975000Y-202478571D01*
X173903571Y-202407142D01*
X173975000Y-202335714D01*
X173975000Y-202478571D01*
X176975000Y-202478571D02*
X176975000Y-200978571D01*
X177117857Y-201907142D02*
X177546428Y-202478571D01*
X177546428Y-201478571D02*
X176975000Y-202050000D01*
X178189285Y-202478571D02*
X178189285Y-201478571D01*
X178189285Y-200978571D02*
X178117857Y-201050000D01*
X178189285Y-201121428D01*
X178260714Y-201050000D01*
X178189285Y-200978571D01*
X178189285Y-201121428D01*
X179546428Y-202407142D02*
X179403571Y-202478571D01*
X179117857Y-202478571D01*
X178975000Y-202407142D01*
X178903571Y-202335714D01*
X178832142Y-202192857D01*
X178832142Y-201764285D01*
X178903571Y-201621428D01*
X178975000Y-201550000D01*
X179117857Y-201478571D01*
X179403571Y-201478571D01*
X179546428Y-201550000D01*
X180832142Y-202478571D02*
X180832142Y-201692857D01*
X180760714Y-201550000D01*
X180617857Y-201478571D01*
X180332142Y-201478571D01*
X180189285Y-201550000D01*
X180832142Y-202407142D02*
X180689285Y-202478571D01*
X180332142Y-202478571D01*
X180189285Y-202407142D01*
X180117857Y-202264285D01*
X180117857Y-202121428D01*
X180189285Y-201978571D01*
X180332142Y-201907142D01*
X180689285Y-201907142D01*
X180832142Y-201835714D01*
X182189285Y-202478571D02*
X182189285Y-200978571D01*
X182189285Y-202407142D02*
X182046428Y-202478571D01*
X181760714Y-202478571D01*
X181617857Y-202407142D01*
X181546428Y-202335714D01*
X181475000Y-202192857D01*
X181475000Y-201764285D01*
X181546428Y-201621428D01*
X181617857Y-201550000D01*
X181760714Y-201478571D01*
X182046428Y-201478571D01*
X182189285Y-201550000D01*
X184760714Y-200978571D02*
X184046428Y-200978571D01*
X183975000Y-201692857D01*
X184046428Y-201621428D01*
X184189285Y-201550000D01*
X184546428Y-201550000D01*
X184689285Y-201621428D01*
X184760714Y-201692857D01*
X184832142Y-201835714D01*
X184832142Y-202192857D01*
X184760714Y-202335714D01*
X184689285Y-202407142D01*
X184546428Y-202478571D01*
X184189285Y-202478571D01*
X184046428Y-202407142D01*
X183975000Y-202335714D01*
X185475000Y-202335714D02*
X185546428Y-202407142D01*
X185475000Y-202478571D01*
X185403571Y-202407142D01*
X185475000Y-202335714D01*
X185475000Y-202478571D01*
X186975000Y-202478571D02*
X186117857Y-202478571D01*
X186546428Y-202478571D02*
X186546428Y-200978571D01*
X186403571Y-201192857D01*
X186260714Y-201335714D01*
X186117857Y-201407142D01*
X187617857Y-202335714D02*
X187689285Y-202407142D01*
X187617857Y-202478571D01*
X187546428Y-202407142D01*
X187617857Y-202335714D01*
X187617857Y-202478571D01*
X188189285Y-200978571D02*
X189189285Y-200978571D01*
X188546428Y-202478571D01*
D10*
D11*
X159400000Y-197400000D02*
X267400000Y-197400000D01*
D10*
D12*
X246809285Y-199678571D02*
X246309285Y-198964285D01*
X245952142Y-199678571D02*
X245952142Y-198178571D01*
X246523571Y-198178571D01*
X246666428Y-198250000D01*
X246737857Y-198321428D01*
X246809285Y-198464285D01*
X246809285Y-198678571D01*
X246737857Y-198821428D01*
X246666428Y-198892857D01*
X246523571Y-198964285D01*
X245952142Y-198964285D01*
X248023571Y-199607142D02*
X247880714Y-199678571D01*
X247595000Y-199678571D01*
X247452142Y-199607142D01*
X247380714Y-199464285D01*
X247380714Y-198892857D01*
X247452142Y-198750000D01*
X247595000Y-198678571D01*
X247880714Y-198678571D01*
X248023571Y-198750000D01*
X248095000Y-198892857D01*
X248095000Y-199035714D01*
X247380714Y-199178571D01*
X248595000Y-198678571D02*
X248952142Y-199678571D01*
X249309285Y-198678571D01*
X249880714Y-199535714D02*
X249952142Y-199607142D01*
X249880714Y-199678571D01*
X249809285Y-199607142D01*
X249880714Y-199535714D01*
X249880714Y-199678571D01*
X249880714Y-198750000D02*
X249952142Y-198821428D01*
X249880714Y-198892857D01*
X249809285Y-198821428D01*
X249880714Y-198750000D01*
X249880714Y-198892857D01*
X252023571Y-198178571D02*
X252166428Y-198178571D01*
X252309285Y-198250000D01*
X252380714Y-198321428D01*
X252452142Y-198464285D01*
X252523571Y-198750000D01*
X252523571Y-199107142D01*
X252452142Y-199392857D01*
X252380714Y-199535714D01*
X252309285Y-199607142D01*
X252166428Y-199678571D01*
X252023571Y-199678571D01*
X251880714Y-199607142D01*
X251809285Y-199535714D01*
X251737857Y-199392857D01*
X251666428Y-199107142D01*
X251666428Y-198750000D01*
X251737857Y-198464285D01*
X251809285Y-198321428D01*
X251880714Y-198250000D01*
X252023571Y-198178571D01*
D10*
D11*
X160760714Y-199607142D02*
X160975000Y-199678571D01*
X161332142Y-199678571D01*
X161475000Y-199607142D01*
X161546428Y-199535714D01*
X161617857Y-199392857D01*
X161617857Y-199250000D01*
X161546428Y-199107142D01*
X161475000Y-199035714D01*
X161332142Y-198964285D01*
X161046428Y-198892857D01*
X160903571Y-198821428D01*
X160832142Y-198750000D01*
X160760714Y-198607142D01*
X160760714Y-198464285D01*
X160832142Y-198321428D01*
X160903571Y-198250000D01*
X161046428Y-198178571D01*
X161403571Y-198178571D01*
X161617857Y-198250000D01*
X162260714Y-199678571D02*
X162260714Y-198678571D01*
X162260714Y-198178571D02*
X162189285Y-198250000D01*
X162260714Y-198321428D01*
X162332142Y-198250000D01*
X162260714Y-198178571D01*
X162260714Y-198321428D01*
X162832142Y-198678571D02*
X163617857Y-198678571D01*
X162832142Y-199678571D01*
X163617857Y-199678571D01*
X164760714Y-199607142D02*
X164617857Y-199678571D01*
X164332142Y-199678571D01*
X164189285Y-199607142D01*
X164117857Y-199464285D01*
X164117857Y-198892857D01*
X164189285Y-198750000D01*
X164332142Y-198678571D01*
X164617857Y-198678571D01*
X164760714Y-198750000D01*
X164832142Y-198892857D01*
X164832142Y-199035714D01*
X164117857Y-199178571D01*
X165475000Y-199535714D02*
X165546428Y-199607142D01*
X165475000Y-199678571D01*
X165403571Y-199607142D01*
X165475000Y-199535714D01*
X165475000Y-199678571D01*
X165475000Y-198750000D02*
X165546428Y-198821428D01*
X165475000Y-198892857D01*
X165403571Y-198821428D01*
X165475000Y-198750000D01*
X165475000Y-198892857D01*
X167260714Y-199250000D02*
X167975000Y-199250000D01*
X167117857Y-199678571D02*
X167617857Y-198178571D01*
X168117857Y-199678571D01*
D10*
D11*
X245832142Y-202478571D02*
X245832142Y-200978571D01*
X247189285Y-202478571D02*
X247189285Y-200978571D01*
X247189285Y-202407142D02*
X247046428Y-202478571D01*
X246760714Y-202478571D01*
X246617857Y-202407142D01*
X246546428Y-202335714D01*
X246475000Y-202192857D01*
X246475000Y-201764285D01*
X246546428Y-201621428D01*
X246617857Y-201550000D01*
X246760714Y-201478571D01*
X247046428Y-201478571D01*
X247189285Y-201550000D01*
X247903571Y-202335714D02*
X247975000Y-202407142D01*
X247903571Y-202478571D01*
X247832142Y-202407142D01*
X247903571Y-202335714D01*
X247903571Y-202478571D01*
X247903571Y-201550000D02*
X247975000Y-201621428D01*
X247903571Y-201692857D01*
X247832142Y-201621428D01*
X247903571Y-201550000D01*
X247903571Y-201692857D01*
X250546428Y-202478571D02*
X249689285Y-202478571D01*
X250117857Y-202478571D02*
X250117857Y-200978571D01*
X249975000Y-201192857D01*
X249832142Y-201335714D01*
X249689285Y-201407142D01*
X252260714Y-200907142D02*
X250975000Y-202835714D01*
X253546428Y-202478571D02*
X252689285Y-202478571D01*
X253117857Y-202478571D02*
X253117857Y-200978571D01*
X252975000Y-201192857D01*
X252832142Y-201335714D01*
X252689285Y-201407142D01*
D10*
D11*
X159400000Y-193400000D02*
X267400000Y-193400000D01*
D10*
D13*
X161112380Y-194104761D02*
X162255238Y-194104761D01*
X161433809Y-196104761D02*
X161683809Y-194104761D01*
X162671904Y-196104761D02*
X162838571Y-194771428D01*
X162921904Y-194104761D02*
X162814761Y-194200000D01*
X162898095Y-194295238D01*
X163005238Y-194200000D01*
X162921904Y-194104761D01*
X162898095Y-194295238D01*
X163505238Y-194771428D02*
X164267142Y-194771428D01*
X163874285Y-194104761D02*
X163660000Y-195819047D01*
X163731428Y-196009523D01*
X163910000Y-196104761D01*
X164100476Y-196104761D01*
X165052857Y-196104761D02*
X164874285Y-196009523D01*
X164802857Y-195819047D01*
X165017142Y-194104761D01*
X166588571Y-196009523D02*
X166386190Y-196104761D01*
X166005238Y-196104761D01*
X165826666Y-196009523D01*
X165755238Y-195819047D01*
X165850476Y-195057142D01*
X165969523Y-194866666D01*
X166171904Y-194771428D01*
X166552857Y-194771428D01*
X166731428Y-194866666D01*
X166802857Y-195057142D01*
X166779047Y-195247619D01*
X165802857Y-195438095D01*
X167552857Y-195914285D02*
X167636190Y-196009523D01*
X167529047Y-196104761D01*
X167445714Y-196009523D01*
X167552857Y-195914285D01*
X167529047Y-196104761D01*
X167683809Y-194866666D02*
X167767142Y-194961904D01*
X167660000Y-195057142D01*
X167576666Y-194961904D01*
X167683809Y-194866666D01*
X167660000Y-195057142D01*
X171171904Y-195914285D02*
X171064761Y-196009523D01*
X170767142Y-196104761D01*
X170576666Y-196104761D01*
X170302857Y-196009523D01*
X170136190Y-195819047D01*
X170064761Y-195628571D01*
X170017142Y-195247619D01*
X170052857Y-194961904D01*
X170195714Y-194580952D01*
X170314761Y-194390476D01*
X170529047Y-194200000D01*
X170826666Y-194104761D01*
X171017142Y-194104761D01*
X171290952Y-194200000D01*
X171374285Y-194295238D01*
X173029047Y-194771428D02*
X172862380Y-196104761D01*
X172171904Y-194771428D02*
X172040952Y-195819047D01*
X172112380Y-196009523D01*
X172290952Y-196104761D01*
X172576666Y-196104761D01*
X172779047Y-196009523D01*
X172886190Y-195914285D01*
X173814761Y-196104761D02*
X173981428Y-194771428D01*
X173933809Y-195152380D02*
X174052857Y-194961904D01*
X174160000Y-194866666D01*
X174362380Y-194771428D01*
X174552857Y-194771428D01*
X175052857Y-196104761D02*
X175219523Y-194771428D01*
X175171904Y-195152380D02*
X175290952Y-194961904D01*
X175398095Y-194866666D01*
X175600476Y-194771428D01*
X175790952Y-194771428D01*
X177064761Y-196009523D02*
X176862380Y-196104761D01*
X176481428Y-196104761D01*
X176302857Y-196009523D01*
X176231428Y-195819047D01*
X176326666Y-195057142D01*
X176445714Y-194866666D01*
X176648095Y-194771428D01*
X177029047Y-194771428D01*
X177207619Y-194866666D01*
X177279047Y-195057142D01*
X177255238Y-195247619D01*
X176279047Y-195438095D01*
X178171904Y-194771428D02*
X178005238Y-196104761D01*
X178148095Y-194961904D02*
X178255238Y-194866666D01*
X178457619Y-194771428D01*
X178743333Y-194771428D01*
X178921904Y-194866666D01*
X178993333Y-195057142D01*
X178862380Y-196104761D01*
X179695714Y-194771428D02*
X180457619Y-194771428D01*
X180064761Y-194104761D02*
X179850476Y-195819047D01*
X179921904Y-196009523D01*
X180100476Y-196104761D01*
X180290952Y-196104761D01*
X182398095Y-196009523D02*
X182671904Y-196104761D01*
X183148095Y-196104761D01*
X183350476Y-196009523D01*
X183457619Y-195914285D01*
X183576666Y-195723809D01*
X183600476Y-195533333D01*
X183529047Y-195342857D01*
X183445714Y-195247619D01*
X183267142Y-195152380D01*
X182898095Y-195057142D01*
X182719523Y-194961904D01*
X182636190Y-194866666D01*
X182564761Y-194676190D01*
X182588571Y-194485714D01*
X182707619Y-194295238D01*
X182814761Y-194200000D01*
X183017142Y-194104761D01*
X183493333Y-194104761D01*
X183767142Y-194200000D01*
X185160000Y-196009523D02*
X184957619Y-196104761D01*
X184576666Y-196104761D01*
X184398095Y-196009523D01*
X184326666Y-195819047D01*
X184421904Y-195057142D01*
X184540952Y-194866666D01*
X184743333Y-194771428D01*
X185124285Y-194771428D01*
X185302857Y-194866666D01*
X185374285Y-195057142D01*
X185350476Y-195247619D01*
X184374285Y-195438095D01*
X186267142Y-194771428D02*
X186100476Y-196104761D01*
X186243333Y-194961904D02*
X186350476Y-194866666D01*
X186552857Y-194771428D01*
X186838571Y-194771428D01*
X187017142Y-194866666D01*
X187088571Y-195057142D01*
X186957619Y-196104761D01*
X187826666Y-196009523D02*
X188005238Y-196104761D01*
X188386190Y-196104761D01*
X188588571Y-196009523D01*
X188707619Y-195819047D01*
X188719523Y-195723809D01*
X188648095Y-195533333D01*
X188469523Y-195438095D01*
X188183809Y-195438095D01*
X188005238Y-195342857D01*
X187933809Y-195152380D01*
X187945714Y-195057142D01*
X188064761Y-194866666D01*
X188267142Y-194771428D01*
X188552857Y-194771428D01*
X188731428Y-194866666D01*
X189814761Y-196104761D02*
X189636190Y-196009523D01*
X189552857Y-195914285D01*
X189481428Y-195723809D01*
X189552857Y-195152380D01*
X189671904Y-194961904D01*
X189779047Y-194866666D01*
X189981428Y-194771428D01*
X190267142Y-194771428D01*
X190445714Y-194866666D01*
X190529047Y-194961904D01*
X190600476Y-195152380D01*
X190529047Y-195723809D01*
X190410000Y-195914285D01*
X190302857Y-196009523D01*
X190100476Y-196104761D01*
X189814761Y-196104761D01*
X191338571Y-196104761D02*
X191505238Y-194771428D01*
X191457619Y-195152380D02*
X191576666Y-194961904D01*
X191683809Y-194866666D01*
X191886190Y-194771428D01*
X192076666Y-194771428D01*
D10*
D11*
X161332142Y-191492857D02*
X160832142Y-191492857D01*
X160832142Y-192278571D02*
X160832142Y-190778571D01*
X161546428Y-190778571D01*
X162117857Y-192278571D02*
X162117857Y-191278571D01*
X162117857Y-190778571D02*
X162046428Y-190850000D01*
X162117857Y-190921428D01*
X162189285Y-190850000D01*
X162117857Y-190778571D01*
X162117857Y-190921428D01*
X163046428Y-192278571D02*
X162903571Y-192207142D01*
X162832142Y-192064285D01*
X162832142Y-190778571D01*
X164189285Y-192207142D02*
X164046428Y-192278571D01*
X163760714Y-192278571D01*
X163617857Y-192207142D01*
X163546428Y-192064285D01*
X163546428Y-191492857D01*
X163617857Y-191350000D01*
X163760714Y-191278571D01*
X164046428Y-191278571D01*
X164189285Y-191350000D01*
X164260714Y-191492857D01*
X164260714Y-191635714D01*
X163546428Y-191778571D01*
X164903571Y-192135714D02*
X164975000Y-192207142D01*
X164903571Y-192278571D01*
X164832142Y-192207142D01*
X164903571Y-192135714D01*
X164903571Y-192278571D01*
X164903571Y-191350000D02*
X164975000Y-191421428D01*
X164903571Y-191492857D01*
X164832142Y-191421428D01*
X164903571Y-191350000D01*
X164903571Y-191492857D01*
X167403571Y-192207142D02*
X167260714Y-192278571D01*
X166975000Y-192278571D01*
X166832142Y-192207142D01*
X166760714Y-192135714D01*
X166689285Y-191992857D01*
X166689285Y-191564285D01*
X166760714Y-191421428D01*
X166832142Y-191350000D01*
X166975000Y-191278571D01*
X167260714Y-191278571D01*
X167403571Y-191350000D01*
X168689285Y-191278571D02*
X168689285Y-192278571D01*
X168046428Y-191278571D02*
X168046428Y-192064285D01*
X168117857Y-192207142D01*
X168260714Y-192278571D01*
X168475000Y-192278571D01*
X168617857Y-192207142D01*
X168689285Y-192135714D01*
X169403571Y-192278571D02*
X169403571Y-191278571D01*
X169403571Y-191564285D02*
X169475000Y-191421428D01*
X169546428Y-191350000D01*
X169689285Y-191278571D01*
X169832142Y-191278571D01*
X170332142Y-192278571D02*
X170332142Y-191278571D01*
X170332142Y-191564285D02*
X170403571Y-191421428D01*
X170475000Y-191350000D01*
X170617857Y-191278571D01*
X170760714Y-191278571D01*
X171832142Y-192207142D02*
X171689285Y-192278571D01*
X171403571Y-192278571D01*
X171260714Y-192207142D01*
X171189285Y-192064285D01*
X171189285Y-191492857D01*
X171260714Y-191350000D01*
X171403571Y-191278571D01*
X171689285Y-191278571D01*
X171832142Y-191350000D01*
X171903571Y-191492857D01*
X171903571Y-191635714D01*
X171189285Y-191778571D01*
X172546428Y-191278571D02*
X172546428Y-192278571D01*
X172546428Y-191421428D02*
X172617857Y-191350000D01*
X172760714Y-191278571D01*
X172975000Y-191278571D01*
X173117857Y-191350000D01*
X173189285Y-191492857D01*
X173189285Y-192278571D01*
X173689285Y-191278571D02*
X174260714Y-191278571D01*
X173903571Y-190778571D02*
X173903571Y-192064285D01*
X173975000Y-192207142D01*
X174117857Y-192278571D01*
X174260714Y-192278571D01*
X174760714Y-191707142D02*
X175903571Y-191707142D01*
X176546428Y-192207142D02*
X176689285Y-192278571D01*
X176975000Y-192278571D01*
X177117857Y-192207142D01*
X177189285Y-192064285D01*
X177189285Y-191992857D01*
X177117857Y-191850000D01*
X176975000Y-191778571D01*
X176760714Y-191778571D01*
X176617857Y-191707142D01*
X176546428Y-191564285D01*
X176546428Y-191492857D01*
X176617857Y-191350000D01*
X176760714Y-191278571D01*
X176975000Y-191278571D01*
X177117857Y-191350000D01*
X178403571Y-192207142D02*
X178260714Y-192278571D01*
X177975000Y-192278571D01*
X177832142Y-192207142D01*
X177760714Y-192064285D01*
X177760714Y-191492857D01*
X177832142Y-191350000D01*
X177975000Y-191278571D01*
X178260714Y-191278571D01*
X178403571Y-191350000D01*
X178475000Y-191492857D01*
X178475000Y-191635714D01*
X177760714Y-191778571D01*
X179117857Y-191278571D02*
X179117857Y-192278571D01*
X179117857Y-191421428D02*
X179189285Y-191350000D01*
X179332142Y-191278571D01*
X179546428Y-191278571D01*
X179689285Y-191350000D01*
X179760714Y-191492857D01*
X179760714Y-192278571D01*
X180403571Y-192207142D02*
X180546428Y-192278571D01*
X180832142Y-192278571D01*
X180975000Y-192207142D01*
X181046428Y-192064285D01*
X181046428Y-191992857D01*
X180975000Y-191850000D01*
X180832142Y-191778571D01*
X180617857Y-191778571D01*
X180475000Y-191707142D01*
X180403571Y-191564285D01*
X180403571Y-191492857D01*
X180475000Y-191350000D01*
X180617857Y-191278571D01*
X180832142Y-191278571D01*
X180975000Y-191350000D01*
X181903571Y-192278571D02*
X181760714Y-192207142D01*
X181689285Y-192135714D01*
X181617857Y-191992857D01*
X181617857Y-191564285D01*
X181689285Y-191421428D01*
X181760714Y-191350000D01*
X181903571Y-191278571D01*
X182117857Y-191278571D01*
X182260714Y-191350000D01*
X182332142Y-191421428D01*
X182403571Y-191564285D01*
X182403571Y-191992857D01*
X182332142Y-192135714D01*
X182260714Y-192207142D01*
X182117857Y-192278571D01*
X181903571Y-192278571D01*
X183046428Y-192278571D02*
X183046428Y-191278571D01*
X183046428Y-191564285D02*
X183117857Y-191421428D01*
X183189285Y-191350000D01*
X183332142Y-191278571D01*
X183475000Y-191278571D01*
X183975000Y-192135714D02*
X184046428Y-192207142D01*
X183975000Y-192278571D01*
X183903571Y-192207142D01*
X183975000Y-192135714D01*
X183975000Y-192278571D01*
X184689285Y-192278571D02*
X184689285Y-190778571D01*
X184832142Y-191707142D02*
X185260714Y-192278571D01*
X185260714Y-191278571D02*
X184689285Y-191850000D01*
X185903571Y-192278571D02*
X185903571Y-191278571D01*
X185903571Y-190778571D02*
X185832142Y-190850000D01*
X185903571Y-190921428D01*
X185975000Y-190850000D01*
X185903571Y-190778571D01*
X185903571Y-190921428D01*
X187260714Y-192207142D02*
X187117857Y-192278571D01*
X186832142Y-192278571D01*
X186689285Y-192207142D01*
X186617857Y-192135714D01*
X186546428Y-191992857D01*
X186546428Y-191564285D01*
X186617857Y-191421428D01*
X186689285Y-191350000D01*
X186832142Y-191278571D01*
X187117857Y-191278571D01*
X187260714Y-191350000D01*
X188546428Y-192278571D02*
X188546428Y-191492857D01*
X188475000Y-191350000D01*
X188332142Y-191278571D01*
X188046428Y-191278571D01*
X187903571Y-191350000D01*
X188546428Y-192207142D02*
X188403571Y-192278571D01*
X188046428Y-192278571D01*
X187903571Y-192207142D01*
X187832142Y-192064285D01*
X187832142Y-191921428D01*
X187903571Y-191778571D01*
X188046428Y-191707142D01*
X188403571Y-191707142D01*
X188546428Y-191635714D01*
X189903571Y-192278571D02*
X189903571Y-190778571D01*
X189903571Y-192207142D02*
X189760714Y-192278571D01*
X189475000Y-192278571D01*
X189332142Y-192207142D01*
X189260714Y-192135714D01*
X189189285Y-191992857D01*
X189189285Y-191564285D01*
X189260714Y-191421428D01*
X189332142Y-191350000D01*
X189475000Y-191278571D01*
X189760714Y-191278571D01*
X189903571Y-191350000D01*
X190260714Y-192421428D02*
X191403571Y-192421428D01*
X191760714Y-191278571D02*
X191760714Y-192778571D01*
X191760714Y-191350000D02*
X191903571Y-191278571D01*
X192189285Y-191278571D01*
X192332142Y-191350000D01*
X192403571Y-191421428D01*
X192475000Y-191564285D01*
X192475000Y-191992857D01*
X192403571Y-192135714D01*
X192332142Y-192207142D01*
X192189285Y-192278571D01*
X191903571Y-192278571D01*
X191760714Y-192207142D01*
X193760714Y-192207142D02*
X193617857Y-192278571D01*
X193332142Y-192278571D01*
X193189285Y-192207142D01*
X193117857Y-192135714D01*
X193046428Y-191992857D01*
X193046428Y-191564285D01*
X193117857Y-191421428D01*
X193189285Y-191350000D01*
X193332142Y-191278571D01*
X193617857Y-191278571D01*
X193760714Y-191350000D01*
X194403571Y-192278571D02*
X194403571Y-190778571D01*
X194403571Y-191350000D02*
X194546428Y-191278571D01*
X194832142Y-191278571D01*
X194975000Y-191350000D01*
X195046428Y-191421428D01*
X195117857Y-191564285D01*
X195117857Y-191992857D01*
X195046428Y-192135714D01*
X194975000Y-192207142D01*
X194832142Y-192278571D01*
X194546428Y-192278571D01*
X194403571Y-192207142D01*
D10*
D11*
X159400000Y-187400000D02*
X267400000Y-187400000D01*
D10*
D11*
X160760714Y-189507142D02*
X160975000Y-189578571D01*
X161332142Y-189578571D01*
X161475000Y-189507142D01*
X161546428Y-189435714D01*
X161617857Y-189292857D01*
X161617857Y-189150000D01*
X161546428Y-189007142D01*
X161475000Y-188935714D01*
X161332142Y-188864285D01*
X161046428Y-188792857D01*
X160903571Y-188721428D01*
X160832142Y-188650000D01*
X160760714Y-188507142D01*
X160760714Y-188364285D01*
X160832142Y-188221428D01*
X160903571Y-188150000D01*
X161046428Y-188078571D01*
X161403571Y-188078571D01*
X161617857Y-188150000D01*
X162260714Y-189578571D02*
X162260714Y-188078571D01*
X162903571Y-189578571D02*
X162903571Y-188792857D01*
X162832142Y-188650000D01*
X162689285Y-188578571D01*
X162475000Y-188578571D01*
X162332142Y-188650000D01*
X162260714Y-188721428D01*
X164189285Y-189507142D02*
X164046428Y-189578571D01*
X163760714Y-189578571D01*
X163617857Y-189507142D01*
X163546428Y-189364285D01*
X163546428Y-188792857D01*
X163617857Y-188650000D01*
X163760714Y-188578571D01*
X164046428Y-188578571D01*
X164189285Y-188650000D01*
X164260714Y-188792857D01*
X164260714Y-188935714D01*
X163546428Y-189078571D01*
X165475000Y-189507142D02*
X165332142Y-189578571D01*
X165046428Y-189578571D01*
X164903571Y-189507142D01*
X164832142Y-189364285D01*
X164832142Y-188792857D01*
X164903571Y-188650000D01*
X165046428Y-188578571D01*
X165332142Y-188578571D01*
X165475000Y-188650000D01*
X165546428Y-188792857D01*
X165546428Y-188935714D01*
X164832142Y-189078571D01*
X165975000Y-188578571D02*
X166546428Y-188578571D01*
X166189285Y-188078571D02*
X166189285Y-189364285D01*
X166260714Y-189507142D01*
X166403571Y-189578571D01*
X166546428Y-189578571D01*
X167046428Y-189435714D02*
X167117857Y-189507142D01*
X167046428Y-189578571D01*
X166975000Y-189507142D01*
X167046428Y-189435714D01*
X167046428Y-189578571D01*
X167046428Y-188650000D02*
X167117857Y-188721428D01*
X167046428Y-188792857D01*
X166975000Y-188721428D01*
X167046428Y-188650000D01*
X167046428Y-188792857D01*
D10*
D12*
X161737857Y-185150000D02*
X161595000Y-185078571D01*
X161380714Y-185078571D01*
X161166428Y-185150000D01*
X161023571Y-185292857D01*
X160952142Y-185435714D01*
X160880714Y-185721428D01*
X160880714Y-185935714D01*
X160952142Y-186221428D01*
X161023571Y-186364285D01*
X161166428Y-186507142D01*
X161380714Y-186578571D01*
X161523571Y-186578571D01*
X161737857Y-186507142D01*
X161809285Y-186435714D01*
X161809285Y-185935714D01*
X161523571Y-185935714D01*
X162452142Y-186435714D02*
X162523571Y-186507142D01*
X162452142Y-186578571D01*
X162380714Y-186507142D01*
X162452142Y-186435714D01*
X162452142Y-186578571D01*
X164309285Y-186578571D02*
X164309285Y-185078571D01*
X165166428Y-186578571D02*
X164523571Y-185721428D01*
X165166428Y-185078571D02*
X164309285Y-185935714D01*
X166380714Y-186507142D02*
X166237857Y-186578571D01*
X165952142Y-186578571D01*
X165809285Y-186507142D01*
X165737857Y-186364285D01*
X165737857Y-185792857D01*
X165809285Y-185650000D01*
X165952142Y-185578571D01*
X166237857Y-185578571D01*
X166380714Y-185650000D01*
X166452142Y-185792857D01*
X166452142Y-185935714D01*
X165737857Y-186078571D01*
X167666428Y-186507142D02*
X167523571Y-186578571D01*
X167237857Y-186578571D01*
X167095000Y-186507142D01*
X167023571Y-186364285D01*
X167023571Y-185792857D01*
X167095000Y-185650000D01*
X167237857Y-185578571D01*
X167523571Y-185578571D01*
X167666428Y-185650000D01*
X167737857Y-185792857D01*
X167737857Y-185935714D01*
X167023571Y-186078571D01*
X168166428Y-185578571D02*
X168737857Y-185578571D01*
X168380714Y-185078571D02*
X168380714Y-186364285D01*
X168452142Y-186507142D01*
X168595000Y-186578571D01*
X168737857Y-186578571D01*
X169237857Y-186578571D02*
X169237857Y-185078571D01*
X169880714Y-186578571D02*
X169880714Y-185792857D01*
X169809285Y-185650000D01*
X169666428Y-185578571D01*
X169452142Y-185578571D01*
X169309285Y-185650000D01*
X169237857Y-185721428D01*
D10*
D11*
X179400000Y-197400000D02*
X179400000Y-200400000D01*
D10*
D11*
X243400000Y-197400000D02*
X243400000Y-203900000D01*
X98547619Y-92619047D02*
X97833333Y-92619047D01*
X97690476Y-92666666D01*
X97595238Y-92761904D01*
X97547619Y-92904761D01*
X97547619Y-93000000D01*
X97547619Y-91666666D02*
X97547619Y-92142857D01*
X98547619Y-92142857D01*
X97642857Y-90761904D02*
X97595238Y-90809523D01*
X97547619Y-90952380D01*
X97547619Y-91047619D01*
X97595238Y-91190476D01*
X97690476Y-91285714D01*
X97785714Y-91333333D01*
X97976190Y-91380952D01*
X98119047Y-91380952D01*
X98309523Y-91333333D01*
X98404761Y-91285714D01*
X98500000Y-91190476D01*
X98547619Y-91047619D01*
X98547619Y-90952380D01*
X98500000Y-90809523D01*
X98452380Y-90761904D01*
X98547619Y-90047619D02*
X97833333Y-90047619D01*
X97690476Y-90095238D01*
X97595238Y-90190476D01*
X97547619Y-90333333D01*
X97547619Y-90428571D01*
X97547619Y-89095238D02*
X97547619Y-89571428D01*
X98547619Y-89571428D01*
X97642857Y-88190476D02*
X97595238Y-88238095D01*
X97547619Y-88380952D01*
X97547619Y-88476190D01*
X97595238Y-88619047D01*
X97690476Y-88714285D01*
X97785714Y-88761904D01*
X97976190Y-88809523D01*
X98119047Y-88809523D01*
X98309523Y-88761904D01*
X98404761Y-88714285D01*
X98500000Y-88619047D01*
X98547619Y-88476190D01*
X98547619Y-88380952D01*
X98500000Y-88238095D01*
X98452380Y-88190476D01*
X98547619Y-87476190D02*
X97833333Y-87476190D01*
X97690476Y-87523809D01*
X97595238Y-87619047D01*
X97547619Y-87761904D01*
X97547619Y-87857142D01*
X97547619Y-86523809D02*
X97547619Y-87000000D01*
X98547619Y-87000000D01*
X97642857Y-85619047D02*
X97595238Y-85666666D01*
X97547619Y-85809523D01*
X97547619Y-85904761D01*
X97595238Y-86047619D01*
X97690476Y-86142857D01*
X97785714Y-86190476D01*
X97976190Y-86238095D01*
X98119047Y-86238095D01*
X98309523Y-86190476D01*
X98404761Y-86142857D01*
X98500000Y-86047619D01*
X98547619Y-85904761D01*
X98547619Y-85809523D01*
X98500000Y-85666666D01*
X98452380Y-85619047D01*
X98547619Y-84904761D02*
X97833333Y-84904761D01*
X97690476Y-84952380D01*
X97595238Y-85047619D01*
X97547619Y-85190476D01*
X97547619Y-85285714D01*
X97547619Y-83952380D02*
X97547619Y-84428571D01*
X98547619Y-84428571D01*
X97642857Y-83047619D02*
X97595238Y-83095238D01*
X97547619Y-83238095D01*
X97547619Y-83333333D01*
X97595238Y-83476190D01*
X97690476Y-83571428D01*
X97785714Y-83619047D01*
X97976190Y-83666666D01*
X98119047Y-83666666D01*
X98309523Y-83619047D01*
X98404761Y-83571428D01*
X98500000Y-83476190D01*
X98547619Y-83333333D01*
X98547619Y-83238095D01*
X98500000Y-83095238D01*
X98452380Y-83047619D01*
M02*
