M48
; DRILL file {KiCad 5.1.7} date Thu Oct 29 21:38:49 2020
; FORMAT={-:-/ absolute / inch / decimal}
; #@! TF.CreationDate,2020-10-29T21:38:49-04:00
; #@! TF.GenerationSoftware,Kicad,Pcbnew,5.1.7
; #@! TF.FileFunction,Plated,1,2,PTH
FMAT,2
INCH
T1C0.0157
T2C0.0236
T3C0.0315
T4C0.0354
T5C0.0362
T6C0.0433
T7C0.0472
T8C0.0520
T9C0.0591
T10C0.0709
%
G90
G05
T1
X4.5591Y-3.4724
X4.815Y-3.4724
X5.2362Y-3.6417
X5.2362Y-3.7894
X5.2362Y-3.7008
X5.4675Y-3.7451
X5.4724Y-3.5531
X5.5118Y-3.6319
X5.689Y-2.5984
X5.689Y-2.6575
X5.689Y-2.7165
X5.689Y-2.7756
X5.689Y-2.8346
X5.689Y-2.8937
X5.689Y-2.9528
X5.689Y-3.0118
X5.689Y-3.0709
X5.748Y-2.5984
X5.748Y-3.0709
X5.8071Y-2.5984
X5.8071Y-3.0709
X5.8661Y-2.5984
X5.8661Y-3.0709
X5.9055Y-3.5433
X5.9252Y-2.5984
X5.9252Y-3.0709
X5.9843Y-2.5984
X5.9843Y-3.0709
X6.0433Y-2.5984
X6.0433Y-3.0709
X6.1024Y-3.0709
X6.1024Y-3.7303
X6.122Y-3.3366
X6.1319Y-3.2579
X6.1614Y-2.5984
X6.2205Y-2.5984
X6.2205Y-2.6575
X6.2205Y-2.7165
X6.2205Y-2.7756
X6.2205Y-2.8346
X6.2205Y-2.8937
X6.2205Y-2.9528
X6.2992Y-2.5984
X6.2992Y-2.6575
X6.2992Y-2.7165
X6.2992Y-2.7756
X6.2992Y-2.8346
X6.2992Y-2.8937
X6.2992Y-2.9528
X6.3465Y-3.3386
X6.3583Y-2.5984
X6.3976Y-3.0709
X6.4567Y-3.0709
X6.4764Y-2.5984
X6.5157Y-3.0709
X6.5354Y-2.5984
X6.5748Y-3.0709
X6.5945Y-2.5984
X6.6339Y-3.0709
X6.6535Y-2.5984
X6.7126Y-2.5984
X6.7717Y-2.5984
X6.8307Y-2.5984
X6.8307Y-2.6575
X6.8307Y-2.7165
X6.8307Y-2.7756
X6.8307Y-3.0709
T2
X5.128Y-3.4055
X5.2067Y-3.4843
T3
X4.8031Y-4.0157
X4.9606Y-4.0157
X5.0394Y-4.0157
X5.1181Y-4.0157
X5.5118Y-4.0157
X5.6693Y-4.0157
X5.748Y-4.0157
X5.8268Y-4.0157
T4
X4.252Y-3.622
X4.252Y-3.7205
X4.252Y-3.8189
T5
X6.378Y-3.6173
T6
X4.2047Y-3.4961
X4.3386Y-3.9409
T7
X4.6244Y-2.7559
X4.7244Y-2.7559
X4.2307Y-2.7559
X4.3307Y-2.7559
T8
X6.1024Y-2.674
X6.1024Y-2.874
X6.4173Y-2.674
X6.4173Y-2.874
T9
X4.7205Y-4.0157
X5.2008Y-4.0157
X5.4291Y-4.0157
X5.9094Y-4.0157
T10
X6.2283Y-3.9244
X6.5276Y-3.9244
T0
M30
